<svg width="301" height="301" viewBox="0 0 301 301" fill="none" xmlns="http://www.w3.org/2000/svg">
<g clip-path="url(#clip0_1292_8121)">
<path d="M127.879 256.49C127.864 263.723 125.758 270.797 121.815 276.86C117.871 282.923 112.259 287.716 105.653 290.662C99.0479 293.608 91.7314 294.581 84.5856 293.464C77.4397 292.347 70.7695 289.187 65.3786 284.365C61.4024 281.175 58.1185 277.207 55.7274 272.705C53.3363 268.203 51.8884 263.26 51.472 258.179C51.0556 253.098 51.6795 247.986 53.3056 243.154C54.9318 238.323 57.5259 233.874 60.9296 230.078C64.3333 226.283 68.4751 223.222 73.1018 221.082C77.7286 218.941 82.7432 217.767 87.8392 217.63C92.9352 217.493 98.0057 218.396 102.741 220.285C107.476 222.174 111.776 225.008 115.379 228.615C119.339 232.093 122.506 236.383 124.662 241.192C126.819 246.002 127.916 251.219 127.879 256.49Z" fill="#8940D5"/>
<path d="M90.3788 284.365C85.5697 280.019 81.9694 274.5 79.9292 268.348C77.8889 262.195 77.4783 255.619 78.7374 249.26C79.9966 242.901 82.8824 236.978 87.1135 232.067C91.3445 227.156 96.7763 223.426 102.879 221.24C97.2146 219.184 91.1385 218.524 85.1649 219.314C79.1913 220.105 73.4962 222.323 68.5618 225.782C63.6274 229.24 59.5991 233.837 56.8179 239.182C54.0368 244.528 52.5847 250.465 52.5847 256.49C52.5847 262.516 54.0368 268.453 56.8179 273.798C59.5991 279.144 63.6274 283.74 68.5618 287.199C73.4962 290.657 79.1913 292.876 85.1649 293.666C91.1385 294.457 97.2146 293.796 102.879 291.74C98.2716 290.119 94.0254 287.614 90.3788 284.365Z" fill="white"/>
<path d="M240.879 276.24L208.504 294.99C207.084 295.822 205.515 296.365 203.885 296.589C202.256 296.813 200.598 296.713 199.007 296.295C197.416 295.877 195.923 295.149 194.614 294.153C193.305 293.157 192.206 291.912 191.379 290.49L128.879 182.24L157.254 178.115C160.413 177.652 163.276 175.997 165.254 173.49L183.004 150.99L245.504 259.24C247.133 262.11 247.562 265.509 246.695 268.694C245.829 271.878 243.738 274.591 240.879 276.24Z" fill="#3C1663"/>
<path d="M212.504 277.865L155.004 177.865L128.379 181.74L190.879 289.99C191.706 291.412 192.805 292.657 194.114 293.653C195.423 294.649 196.916 295.377 198.507 295.795C200.098 296.213 201.756 296.313 203.385 296.089C205.015 295.865 206.584 295.322 208.004 294.49L229.504 281.99C226.694 283.663 223.34 284.168 220.162 283.397C216.984 282.626 214.234 280.64 212.504 277.865Z" fill="white"/>
<path d="M183.004 150.99L165.254 173.49C163.276 175.997 160.413 177.652 157.254 178.115L128.879 182.24L97.0037 126.99C95.1772 123.794 94.2284 120.171 94.2537 116.49C94.2137 113.241 94.9418 110.029 96.3787 107.115C97.8705 104.06 98.5933 100.686 98.4844 97.2877C98.3755 93.8893 97.4381 90.5689 95.7537 87.6152L58.2537 21.4902L79.8787 8.99023L117.379 75.1152C119.121 78.0995 121.572 80.6077 124.516 82.4175C127.46 84.2273 130.804 85.2827 134.254 85.4902C137.712 85.7217 141.06 86.8006 144.003 88.6317C146.946 90.4629 149.393 92.99 151.129 95.9902L183.004 150.99Z" fill="#A770DF"/>
<path d="M142.254 174.49L110.379 119.24C108.544 115.929 107.801 112.123 108.254 108.365C108.607 104.762 109.806 101.293 111.754 98.2402C113.777 95.1625 114.917 91.5885 115.049 87.9077C115.181 84.2268 114.301 80.5802 112.504 77.3652L75.0037 11.2402L87.5037 3.61523L61.3787 18.9902L100.004 85.1152C101.728 88.3753 102.523 92.0464 102.303 95.7278C102.083 99.4092 100.855 102.959 98.7537 105.99C96.8063 109.043 95.6071 112.512 95.2537 116.115C94.8009 119.873 95.5444 123.679 97.3787 126.99L129.254 182.24L162.504 175.115C166.301 174.242 169.745 172.237 172.379 169.365L173.754 167.865L142.254 174.49Z" fill="#F2F2F2"/>
<path d="M96.3787 107.115C97.8705 104.06 98.5933 100.686 98.4844 97.2877C98.3755 93.8893 97.4381 90.5689 95.7537 87.6152L58.2537 21.4902L79.8787 8.99023L117.379 75.1152C119.121 78.0995 121.572 80.6077 124.516 82.4175C127.46 84.2273 130.804 85.2827 134.254 85.4902L96.3787 107.115Z" fill="#A770DF"/>
<path d="M106.629 81.1152L69.1287 14.9902L79.8787 8.74023L58.2537 21.2402L95.7537 87.6152C97.4809 90.5995 98.4419 93.9652 98.551 97.4116C98.6601 100.858 97.9137 104.278 96.3787 107.365L107.254 101.115C108.833 97.9959 109.603 94.53 109.494 91.0355C109.384 87.541 108.399 84.1299 106.629 81.1152Z" fill="white"/>
<path d="M100.004 97.8652C105.205 98.9081 110.609 98.0251 115.208 95.3806C119.807 92.7361 123.288 88.5104 125.004 83.4902" fill="#BD632E"/>
<path d="M119.504 223.99C111.413 217.046 101.103 213.229 90.4412 213.229C79.7792 213.229 69.4696 217.046 61.3787 223.99C56.7885 228.082 53.1154 233.099 50.6004 238.711C48.0853 244.322 46.7852 250.403 46.7852 256.552C46.7852 262.702 48.0853 268.782 50.6004 274.394C53.1154 280.006 56.7885 285.022 61.3787 289.115C70.0148 296.839 81.3658 300.817 92.9344 300.172C104.503 299.527 115.342 294.313 123.066 285.677C130.791 277.041 134.768 265.69 134.123 254.122C133.479 242.553 128.265 231.714 119.629 223.99H119.504ZM65.3787 275.115V274.24C64.3013 272.907 63.3394 271.486 62.5037 269.99L61.7537 268.24C61.2473 266.936 60.8297 265.6 60.5037 264.24C60.5037 264.24 60.5037 263.115 60.5037 262.49C59.587 258.374 59.587 254.106 60.5037 249.99C60.5037 249.99 60.5037 248.865 60.5037 248.24C60.8641 246.834 61.3236 245.456 61.8787 244.115L62.5037 243.115C63.2545 241.585 64.1326 240.122 65.1287 238.74V238.115C69.1857 243.524 71.3787 250.103 71.3787 256.865C71.3787 263.626 69.1857 270.206 65.1287 275.615L65.3787 275.115ZM106.004 283.24C101.222 285.888 95.8451 287.278 90.3787 287.278C84.9123 287.278 79.5357 285.888 74.7537 283.24C80.8698 275.594 84.2018 266.094 84.2018 256.302C84.2018 246.511 80.8698 237.011 74.7537 229.365C79.4974 226.535 84.9179 225.042 90.4412 225.042C95.9646 225.042 101.385 226.535 106.129 229.365C100.013 237.011 96.6807 246.511 96.6807 256.302C96.6807 266.094 100.013 275.594 106.129 283.24H106.004ZM120.879 250.115C121.791 254.231 121.791 258.498 120.879 262.615C120.879 262.615 120.879 263.74 120.879 264.365C120.518 265.77 120.059 267.149 119.504 268.49L118.754 270.115C118.003 271.644 117.125 273.108 116.129 274.49V275.115C112.072 269.706 109.879 263.126 109.879 256.365C109.879 249.603 112.072 243.024 116.129 237.615L116.754 238.615C117.647 239.885 118.441 241.222 119.129 242.615L119.879 244.365C120.386 245.668 120.803 247.005 121.129 248.365L120.879 250.115ZM250.879 255.615L188.379 147.365L156.504 92.6148C154.245 88.7056 151.054 85.4159 147.215 83.0386C143.377 80.6614 139.01 79.2705 134.504 78.9898C132.102 78.8316 129.776 78.0882 127.728 76.8245C125.68 75.5607 123.972 73.8151 122.754 71.7398L84.6287 5.48976C83.7938 4.07081 82.4328 3.03857 80.8413 2.61729C79.2498 2.196 77.5563 2.41969 76.1287 3.23976L54.5037 15.7398C53.0848 16.5746 52.0525 17.9357 51.6312 19.5272C51.21 21.1187 51.4336 22.8122 52.2537 24.2398L90.3787 90.4898C91.5059 92.6061 92.0954 94.967 92.0954 97.3648C92.0954 99.7625 91.5059 102.123 90.3787 104.24C88.4231 108.276 87.4701 112.724 87.6007 117.207C87.7313 121.689 88.9415 126.075 91.1287 129.99L123.004 185.24L185.504 293.49C186.727 295.628 188.362 297.502 190.315 299.004C192.267 300.506 194.498 301.606 196.879 302.24C199.351 302.92 201.937 303.082 204.476 302.717C207.014 302.351 209.449 301.465 211.629 300.115L244.004 281.365C248.173 278.908 251.222 274.924 252.506 270.257C253.789 265.591 253.205 260.608 250.879 256.365V255.615ZM66.1287 23.4898L76.8787 17.2398L112.504 77.9898C113.925 80.3282 115.696 82.4359 117.754 84.2398C116.402 86.5559 114.468 88.4782 112.144 89.8158C109.819 91.1534 107.185 91.8597 104.504 91.8648C103.944 89.1901 102.974 86.618 101.629 84.2398L66.1287 23.4898ZM102.379 123.49C100.986 121.359 100.167 118.905 100.004 116.365C99.9673 114.068 100.482 111.797 101.504 109.74C102.312 108.061 102.941 106.301 103.379 104.49C108.295 104.43 113.109 103.083 117.342 100.583C121.575 98.0826 125.079 94.5163 127.504 90.2398C129.371 90.8323 131.3 91.2098 133.254 91.3648C135.794 91.4242 138.276 92.1333 140.464 93.4243C142.652 94.7153 144.473 96.5453 145.754 98.7398L175.004 150.115L159.879 169.24C158.884 170.498 157.459 171.344 155.879 171.615L132.129 175.115L102.379 123.49ZM240.754 266.99C240.553 267.777 240.195 268.515 239.701 269.16C239.207 269.804 238.587 270.342 237.879 270.74L205.504 289.49C204.796 289.933 204.006 290.227 203.181 290.353C202.356 290.48 201.513 290.437 200.706 290.226C199.898 290.015 199.142 289.642 198.484 289.128C197.826 288.615 197.279 287.972 196.879 287.24L139.004 187.24L158.379 184.49C163.276 183.896 167.755 181.433 170.879 177.615L183.379 162.365L241.254 262.365C241.702 263.912 241.522 265.574 240.754 266.99Z" fill="#1E0B32"/>
</g>
<defs>
<clipPath id="clip0_1292_8121">
<rect width="300" height="300" fill="white" transform="translate(0.00366211 0.115234)"/>
</clipPath>
</defs>
</svg>
