<svg width="95" height="43" viewBox="0 0 95 43" fill="none" xmlns="http://www.w3.org/2000/svg">
<path d="M31.5605 36.4604C29.6404 36.9121 27.2686 37.251 25.0097 37.251C11.5128 37.251 6.09141 30.7566 6.09141 23.867C6.09141 14.1538 16.7647 6.41704 29.6969 4.94876L28.8498 0.205078C8.91503 3.76284 0.387695 15.5656 0.387695 24.827C0.387695 30.0225 5.18785 41.5429 24.4449 41.5429C27.8333 41.5429 30.431 41.317 32.1252 40.9781L31.5605 36.4604Z" fill="#FD9290"/>
<path d="M89.4535 1.10863C88.324 4.27109 79.0061 28.2154 78.1025 30.9825C74.9965 25.6177 68.3893 14.2667 65.0574 8.3371H64.9445C61.0479 15.4526 53.3676 29.0625 51.9558 32.1685C51.0523 29.1189 43.485 7.03824 41.6214 0.543911L36.7083 2.63339C39.0236 9.07124 48.9063 38.0981 50.6569 42.6158H50.7699C53.0853 38.4369 62.5162 21.4952 64.775 17.3162C66.2433 20.1398 76.2389 36.7427 78.2719 40.6958H78.3849C79.9096 37.4769 93.576 4.55345 94.1972 3.08517L89.4535 1.10863Z" fill="#FD9290"/>
</svg>
