<svg width="145" height="145" viewBox="0 0 145 145" fill="none" xmlns="http://www.w3.org/2000/svg">
<g filter="url(#filter0_d_1292_8103)">
<path d="M119.946 123.132L86.9667 90.1917L96.2054 80.953L129.146 113.932C130.192 115.175 130.738 116.765 130.676 118.39C130.612 120.033 129.931 121.592 128.768 122.754C127.605 123.917 126.047 124.598 124.403 124.662C122.778 124.725 121.189 124.179 119.946 123.132Z" fill="#3C1663" stroke="#2D104A" stroke-width="3"/>
<path d="M99.9482 79.0325L110.243 89.3268C110.714 89.7984 110.979 90.438 110.979 91.1049C110.979 91.7718 110.714 92.4114 110.243 92.883L98.8876 104.238C98.416 104.71 97.7764 104.974 97.1095 104.974C96.4426 104.974 95.803 104.71 95.3314 104.238L85.0371 93.9436L99.9482 79.0325Z" fill="#8940D5" stroke="#2D104A" stroke-width="3"/>
<path d="M107.031 54.3412C107.031 80.1192 86.1336 101.016 60.3556 101.016C34.5776 101.016 13.6804 80.1192 13.6804 54.3412C13.6804 28.5632 34.5776 7.66602 60.3556 7.66602C86.1336 7.66602 107.031 28.5632 107.031 54.3412Z" fill="#3C1663" stroke="#2D104A" stroke-width="3"/>
<path d="M99.0017 54.3413C99.0017 75.6849 81.6993 92.9873 60.3557 92.9873C39.0121 92.9873 21.7097 75.6849 21.7097 54.3413C21.7097 32.9977 39.0121 15.6953 60.3557 15.6953C81.6993 15.6953 99.0017 32.9977 99.0017 54.3413Z" fill="#C4A0EA" stroke="#2D104A" stroke-width="3"/>
<path d="M37.7681 56.8554V51.8262H46.8119V56.8554H37.7681Z" fill="#3C1663" stroke="#2D104A" stroke-width="3"/>
<path d="M57.8411 84.9579V75.9141H62.8703V84.9579H57.8411Z" fill="#3C1663" stroke="#2D104A" stroke-width="3"/>
<path d="M42.8311 75.8476L40.3173 71.4918L48.1502 66.9712L50.664 71.3271L42.8311 75.8476Z" fill="#3C1663" stroke="#2D104A" stroke-width="3"/>
<path d="M57.8411 32.7684V23.7246H62.8703V32.7684H57.8411Z" fill="#3C1663" stroke="#2D104A" stroke-width="3"/>
<path d="M48.1502 41.7153L40.3173 37.1947L42.8311 32.8389L50.664 37.3594L48.1502 41.7153Z" fill="#3C1663" stroke="#2D104A" stroke-width="3"/>
<path d="M73.8994 56.8554V51.8262H82.9432V56.8554H73.8994Z" fill="#3C1663" stroke="#2D104A" stroke-width="3"/>
<path d="M77.8597 75.8334L70.0267 71.3129L72.5406 66.9571L80.3735 71.4776L77.8597 75.8334Z" fill="#3C1663" stroke="#2D104A" stroke-width="3"/>
<path d="M72.5401 41.7197L70.0262 37.3638L77.8592 32.8433L80.373 37.1992L72.5401 41.7197Z" fill="#3C1663" stroke="#2D104A" stroke-width="3"/>
<path d="M60.3555 76.9291C56.4944 76.9291 52.7914 75.3953 50.0612 72.665C47.3309 69.9348 45.7971 66.2318 45.7971 62.3707V46.3123C45.7971 42.4512 47.3309 38.7482 50.0612 36.018C52.7914 33.2877 56.4944 31.7539 60.3555 31.7539C64.2166 31.7539 67.9196 33.2877 70.6498 36.018C73.3801 38.7482 74.9139 42.4512 74.9139 46.3123V62.3707C74.9139 66.2318 73.3801 69.9348 70.6498 72.665C67.9196 75.3953 64.2166 76.9291 60.3555 76.9291Z" fill="#8940D5" stroke="#2D104A" stroke-width="3"/>
<path d="M60.3556 68.9C58.624 68.9 56.9632 68.2121 55.7388 66.9876C54.5143 65.7632 53.8264 64.1024 53.8264 62.3708V46.3124C53.8264 44.5807 54.5143 42.92 55.7388 41.6956C56.9632 40.4711 58.624 39.7832 60.3556 39.7832C62.0873 39.7832 63.748 40.4711 64.9724 41.6956C66.1969 42.92 66.8848 44.5807 66.8848 46.3124V62.3708C66.8848 64.1024 66.1969 65.7632 64.9724 66.9876C63.748 68.2121 62.0873 68.9 60.3556 68.9Z" fill="#3C1663" stroke="#2D104A" stroke-width="3"/>
<path d="M62.8703 42.2978C62.8703 42.9647 62.6053 43.6043 62.1338 44.0759C61.6622 44.5475 61.0226 44.8124 60.3557 44.8124C59.6888 44.8124 59.0492 44.5475 58.5776 44.0759C58.106 43.6043 57.8411 42.9647 57.8411 42.2978C57.8411 41.6309 58.106 40.9913 58.5776 40.5197C59.0492 40.0481 59.6888 39.7832 60.3557 39.7832C61.0226 39.7832 61.6622 40.0481 62.1338 40.5197C62.6053 40.9913 62.8703 41.6309 62.8703 42.2978Z" fill="#3C1663" stroke="#2D104A" stroke-width="3"/>
</g>
<defs>
<filter id="filter0_d_1292_8103" x="0.18042" y="0.166016" width="144" height="144.001" filterUnits="userSpaceOnUse" color-interpolation-filters="sRGB">
<feFlood flood-opacity="0" result="BackgroundImageFix"/>
<feColorMatrix in="SourceAlpha" type="matrix" values="0 0 0 0 0 0 0 0 0 0 0 0 0 0 0 0 0 0 127 0" result="hardAlpha"/>
<feOffset dy="6"/>
<feGaussianBlur stdDeviation="6"/>
<feColorMatrix type="matrix" values="0 0 0 0 0 0 0 0 0 0 0 0 0 0 0 0 0 0 0.1 0"/>
<feBlend mode="normal" in2="BackgroundImageFix" result="effect1_dropShadow_1292_8103"/>
<feBlend mode="normal" in="SourceGraphic" in2="effect1_dropShadow_1292_8103" result="shape"/>
</filter>
</defs>
</svg>
