<svg width="134" height="145" viewBox="0 0 134 145" fill="none" xmlns="http://www.w3.org/2000/svg">
<g clip-path="url(#clip0_1292_8077)" filter="url(#filter0_d_1292_8077)">
<path d="M120.149 62.791V117.4C120.149 118.324 119.967 119.238 119.614 120.091C119.261 120.944 118.743 121.719 118.09 122.372C117.437 123.025 116.662 123.543 115.809 123.897C114.956 124.25 114.041 124.432 113.118 124.432H21.2429C20.3195 124.432 19.4052 124.25 18.5521 123.897C17.699 123.543 16.9239 123.025 16.2709 122.372C15.618 121.719 15.1001 120.944 14.7468 120.091C14.3934 119.238 14.2116 118.324 14.2117 117.4V55.7598H113.118C114.041 55.7597 114.956 55.9415 115.809 56.2949C116.662 56.6482 117.437 57.1661 118.09 57.819C118.743 58.472 119.261 59.2471 119.614 60.1002C119.967 60.9533 120.149 61.8676 120.149 62.791Z" fill="#3C1663"/>
<path d="M113.118 55.7598H102.571C103.494 55.7597 104.409 55.9415 105.262 56.2949C106.115 56.6482 106.89 57.1661 107.543 57.819C108.196 58.472 108.714 59.2471 109.067 60.1002C109.421 60.9533 109.602 61.8676 109.602 62.791V117.4C109.602 118.324 109.421 119.238 109.067 120.091C108.714 120.944 108.196 121.719 107.543 122.372C106.89 123.025 106.115 123.543 105.262 123.897C104.409 124.25 103.494 124.432 102.571 124.432H113.118C114.041 124.432 114.956 124.25 115.809 123.897C116.662 123.543 117.437 123.025 118.09 122.372C118.743 121.719 119.261 120.944 119.614 120.091C119.967 119.238 120.149 118.324 120.149 117.4V62.791C120.149 61.8676 119.967 60.9533 119.614 60.1002C119.261 59.2471 118.743 58.472 118.09 57.819C117.437 57.1661 116.662 56.6482 115.809 56.2949C114.956 55.9415 114.041 55.7597 113.118 55.7598Z" fill="#1E0B32"/>
<path d="M116.05 22.9869L101.397 28.3213L18.264 58.5791L14.4953 48.2267C14.2848 47.6483 14.1904 47.034 14.2174 46.419C14.2444 45.804 14.3923 45.2004 14.6526 44.6426C14.9129 44.0848 15.2805 43.5837 15.7345 43.168C16.1884 42.7522 16.7199 42.43 17.2984 42.2197L99.5617 12.2783L99.564 12.276L110.678 8.23064C111.847 7.80564 113.136 7.86219 114.263 8.38785C115.39 8.91352 116.262 9.86526 116.687 11.0338L118.851 16.9799C119.061 17.5582 119.156 18.1723 119.129 18.7872C119.103 19.4022 118.955 20.0058 118.695 20.5636C118.435 21.1214 118.067 21.6226 117.613 22.0384C117.16 22.4542 116.628 22.7765 116.05 22.9869Z" fill="#A770DF"/>
<path d="M118.791 16.8145C118.547 17.4253 118.176 17.9778 117.704 18.4357C117.232 18.8936 116.668 19.2465 116.05 19.4714L101.397 24.8058L18.2641 55.0636L14.5561 44.8782C14.1214 45.9483 14.0998 47.1417 14.4953 48.2269L18.2641 58.5793L101.397 28.3214L116.05 22.987C116.628 22.7766 117.16 22.4543 117.614 22.0385C118.067 21.6227 118.435 21.1216 118.695 20.5638C118.955 20.0059 119.103 19.4023 119.129 18.7874C119.156 18.1725 119.061 17.5584 118.851 16.98L118.791 16.8145Z" fill="#3C1663"/>
<path d="M116.05 22.9869L101.397 28.3213L99.5618 12.2783L99.5641 12.276L110.678 8.23064C111.847 7.80564 113.136 7.86219 114.263 8.38785C115.39 8.91352 116.262 9.86526 116.688 11.0338L118.851 16.9799C119.061 17.5582 119.156 18.1723 119.129 18.7872C119.103 19.4022 118.955 20.0058 118.695 20.5636C118.435 21.1214 118.067 21.6226 117.614 22.0384C117.16 22.4542 116.628 22.7765 116.05 22.9869Z" fill="#C4A0EA"/>
<path d="M116.05 22.9873L101.397 28.3217L101.012 24.9608L115.649 19.6334C116.38 19.3683 117.033 18.9255 117.549 18.3448C118.065 17.7642 118.429 17.064 118.607 16.3076L118.851 16.9803C119.061 17.5586 119.156 18.1728 119.129 18.7877C119.103 19.4026 118.955 20.0062 118.695 20.564C118.435 21.1219 118.067 21.623 117.613 22.0388C117.16 22.4546 116.628 22.7769 116.05 22.9873Z" fill="#C4A0EA"/>
<path d="M70.2422 39.6605L68.4604 23.5981L84.0316 17.9307L86.1145 33.8834L70.2422 39.6605Z" fill="#C4A0EA"/>
<path d="M38.1303 51.3477L36.2954 35.3048L51.8249 29.6523L53.7749 45.6536L38.1303 51.3477Z" fill="#C4A0EA"/>
<path d="M70.242 39.66L86.1143 33.8829L85.6617 30.416L69.8672 36.2815L70.242 39.66Z" fill="#C4A0EA"/>
<path d="M38.1304 51.3481L53.775 45.6539L53.3711 42.3408L37.7566 48.0239L38.1304 51.3481Z" fill="#C4A0EA"/>
<path d="M120.149 62.791V70.5254H14.2117V55.7598H113.118C114.041 55.7597 114.956 55.9415 115.809 56.2949C116.662 56.6482 117.437 57.1661 118.09 57.819C118.743 58.472 119.261 59.2471 119.614 60.1002C119.967 60.9533 120.149 61.8676 120.149 62.791Z" fill="#A770DF"/>
<path d="M120.149 84.5879H14.2117V109.197H120.149V84.5879Z" fill="#E2CFF4"/>
<path d="M52.1929 70.5254L55.7085 55.7598H38.1304L34.6147 70.5254H52.1929Z" fill="#C4A0EA"/>
<path d="M87.3491 70.5254L90.8647 55.7598H73.2866L69.771 70.5254H87.3491Z" fill="#C4A0EA"/>
<path d="M120.149 62.791V70.5254H104.927L108.442 55.7598H113.118C114.041 55.7597 114.956 55.9415 115.809 56.2949C116.662 56.6482 117.437 57.1661 118.09 57.819C118.743 58.472 119.261 59.2471 119.614 60.1002C119.967 60.9533 120.149 61.8676 120.149 62.791Z" fill="#C4A0EA"/>
<path d="M113.118 55.7598H108.442L107.868 58.1699C108.988 59.4488 109.604 61.0913 109.602 62.791V70.5254H120.149V62.791C120.149 61.8676 119.967 60.9533 119.614 60.1002C119.261 59.2471 118.743 58.472 118.09 57.819C117.437 57.1661 116.662 56.6482 115.809 56.2949C114.956 55.9415 114.041 55.7597 113.118 55.7598Z" fill="#C4A0EA"/>
<path d="M21.2429 63.7285C25.1262 63.7285 28.2742 60.5805 28.2742 56.6973C28.2742 52.814 25.1262 49.666 21.2429 49.666C17.3597 49.666 14.2117 52.814 14.2117 56.6973C14.2117 60.5805 17.3597 63.7285 21.2429 63.7285Z" fill="#C4A0EA"/>
<path d="M21.2429 49.666C20.65 49.6656 20.0594 49.74 19.4851 49.8875C20.9945 50.2777 22.3315 51.1582 23.286 52.3908C24.2406 53.6234 24.7585 55.1383 24.7585 56.6973C24.7585 58.2563 24.2406 59.7711 23.286 61.0037C22.3315 62.2363 20.9945 63.1169 19.4851 63.507C20.4516 63.7564 21.4602 63.7972 22.4437 63.6266C23.4272 63.4561 24.3632 63.0781 25.1893 62.5178C26.0154 61.9575 26.7128 61.2277 27.235 60.377C27.7572 59.5264 28.0924 58.5742 28.2181 57.584C28.3439 56.5937 28.2574 55.5881 27.9644 54.6338C27.6714 53.6796 27.1786 52.7987 26.5187 52.0497C25.8589 51.3007 25.0472 50.7007 24.1375 50.2897C23.2279 49.8787 22.2411 49.6661 21.2429 49.666Z" fill="#8940D5"/>
<path d="M40.8132 84.5879H14.2117V109.197H40.8132V84.5879Z" fill="#E2CFF4"/>
<path d="M40.8132 109.197V84.5879H67.1804V109.197" fill="#C4A0EA"/>
<path d="M120.149 84.5879H93.5476V109.197H120.149V84.5879Z" fill="#C4A0EA"/>
<path d="M120.149 84.5879H109.602V109.197H120.149V84.5879Z" fill="#8940D5"/>
<path d="M113.118 54.0018H35.9762L54.3329 47.3205L54.3407 47.3177L86.6833 35.546C86.6888 35.5442 86.6941 35.542 86.6996 35.5401L116.651 24.6386C117.447 24.3493 118.177 23.9061 118.801 23.3343C119.425 22.7626 119.93 22.0736 120.288 21.3066C120.646 20.5396 120.849 19.7096 120.885 18.8641C120.922 18.0186 120.792 17.1742 120.503 16.379L118.339 10.4323C117.753 8.82688 116.554 7.5196 115.005 6.79722C113.456 6.07483 111.683 5.99633 110.077 6.57894L51.2657 27.9854L51.2628 27.9864L16.6969 40.568C15.9015 40.8573 15.1709 41.3004 14.5468 41.8721C13.9226 42.4438 13.4172 43.1328 13.0594 43.8998C12.7016 44.6668 12.4983 45.4967 12.4613 46.3423C12.4242 47.1878 12.5541 48.0324 12.8434 48.8278L13.9333 51.8232C13.2843 52.7927 12.836 53.8824 12.6148 55.0279C12.5089 55.2573 12.454 55.5069 12.4539 55.7596V117.4C12.4565 119.73 13.3833 121.964 15.031 123.612C16.6787 125.26 18.9127 126.187 21.2429 126.189H113.118C115.448 126.187 117.682 125.26 119.33 123.612C120.978 121.964 121.904 119.73 121.907 117.4V62.7908C121.904 60.4606 120.978 58.2266 119.33 56.5789C117.682 54.9312 115.448 54.0044 113.118 54.0018ZM92.2531 57.5174H106.217L103.539 68.7674H89.5745L92.2531 57.5174ZM74.6749 57.5174H88.6392L85.9606 68.7674H71.9964L74.6749 57.5174ZM57.0968 57.5174H71.0611L68.3825 68.7674H54.4182L57.0968 57.5174ZM39.5187 57.5174H53.483L50.8044 68.7674H36.8401L39.5187 57.5174ZM111.279 9.88239C112.01 9.61761 112.816 9.6534 113.52 9.98191C114.224 10.3104 114.769 10.9048 115.036 11.6347L117.199 17.5814C117.331 17.9428 117.39 18.3266 117.373 18.7109C117.356 19.0952 117.264 19.4724 117.102 19.821C116.939 20.1696 116.709 20.4828 116.426 20.7426C116.142 21.0024 115.81 21.2037 115.449 21.3352L102.89 25.9062L101.465 13.4549L111.279 9.88239ZM98.0676 14.6914L99.4928 27.1426L87.5736 31.4808L85.957 19.0995L98.0676 14.6914ZM82.5723 20.3315L84.1889 32.7127L71.7424 37.2428L70.3598 24.7767L82.5723 20.3315ZM66.9599 26.0142L68.3426 38.4803L55.2521 43.2448L53.7389 30.8265L66.9599 26.0142ZM50.3477 32.0609L51.8609 44.479L39.6234 48.9331L38.1993 36.4827L50.3477 32.0609ZM16.2451 45.3868C16.4071 45.0374 16.6367 44.7236 16.9207 44.4636C17.2047 44.2035 17.5374 44.0023 17.8996 43.8716L34.8022 37.7192L36.2263 50.1695L29.0991 52.7636C28.5575 51.6796 27.7974 50.7195 26.8666 49.9436C25.9357 49.1677 24.8544 48.593 23.6906 48.2554C22.5267 47.9179 21.3056 47.825 20.1041 47.9825C18.9026 48.14 17.7468 48.5445 16.7092 49.1705L16.147 47.6252C16.0144 47.2642 15.9548 46.8804 15.9716 46.4962C15.9885 46.1119 16.0814 45.7348 16.2451 45.3868ZM21.2429 51.4236C22.4207 51.4252 23.5641 51.8204 24.4916 52.5464C25.419 53.2723 26.0772 54.2874 26.3615 55.4304L26.3642 55.4419C26.6252 56.5074 26.5475 57.6277 26.1418 58.6469C25.7362 59.666 25.0227 60.5333 24.1009 61.1279C23.1791 61.7226 22.0948 62.0149 20.999 61.9642C19.9033 61.9136 18.8506 61.5224 17.9876 60.8453C17.1245 60.1681 16.4942 59.2387 16.1843 58.1865C15.8744 57.1342 15.9004 56.0115 16.2586 54.9747C16.6168 53.9379 17.2895 53.0386 18.1829 52.4021C19.0763 51.7656 20.146 51.4236 21.2429 51.4236ZM15.9695 63.7236C17.2186 64.6626 18.6957 65.2514 20.2483 65.4291C21.8009 65.6069 23.3728 65.3672 24.8018 64.7347C26.2308 64.1023 27.4653 63.1 28.3777 61.8313C29.2901 60.5626 29.8475 59.0734 29.9924 57.5174H35.9048L33.2263 68.7674H15.9695V63.7236ZM15.9695 86.3455H39.0554V107.439H15.9695V86.3455ZM118.391 117.4C118.39 118.798 117.834 120.139 116.845 121.127C115.856 122.116 114.516 122.672 113.118 122.674H21.2429C19.8448 122.672 18.5044 122.116 17.5158 121.127C16.5271 120.139 15.971 118.798 15.9695 117.4V110.955H118.391V117.4ZM42.571 107.439V86.3455H65.4226V107.439H42.571ZM68.9382 107.439V86.3455H91.7898V107.439H68.9382ZM118.391 107.439H95.3054V86.3455H118.391V107.439ZM118.391 82.8299H15.9695V72.283H34.6083C34.6109 72.283 34.6136 72.2835 34.6161 72.2835L34.6215 72.283H52.1864C52.189 72.283 52.1917 72.2835 52.1943 72.2835L52.1997 72.283H69.7646C69.7671 72.283 69.7698 72.2835 69.7724 72.2835L69.7778 72.283H87.3427C87.3453 72.283 87.3479 72.2835 87.3505 72.2835L87.3559 72.283H104.921C104.923 72.283 104.926 72.2835 104.929 72.2835L104.934 72.283H118.391V82.8299ZM118.391 68.7674H107.153L109.831 57.5174H113.118C114.516 57.519 115.856 58.0751 116.845 59.0637C117.834 60.0523 118.39 61.3927 118.391 62.7908V68.7674Z" fill="#1E0B32"/>
</g>
<defs>
<filter id="filter0_d_1292_8077" x="-4.81958" y="0.189453" width="144" height="144" filterUnits="userSpaceOnUse" color-interpolation-filters="sRGB">
<feFlood flood-opacity="0" result="BackgroundImageFix"/>
<feColorMatrix in="SourceAlpha" type="matrix" values="0 0 0 0 0 0 0 0 0 0 0 0 0 0 0 0 0 0 127 0" result="hardAlpha"/>
<feOffset dy="6"/>
<feGaussianBlur stdDeviation="6"/>
<feColorMatrix type="matrix" values="0 0 0 0 0 0 0 0 0 0 0 0 0 0 0 0 0 0 0.1 0"/>
<feBlend mode="normal" in2="BackgroundImageFix" result="effect1_dropShadow_1292_8077"/>
<feBlend mode="normal" in="SourceGraphic" in2="effect1_dropShadow_1292_8077" result="shape"/>
</filter>
<clipPath id="clip0_1292_8077">
<rect width="120" height="120" fill="white" transform="translate(7.18042 6.18945)"/>
</clipPath>
</defs>
</svg>
