<svg width="91" height="63" viewBox="0 0 91 63" fill="none" xmlns="http://www.w3.org/2000/svg">
<path d="M0.503662 16.1181C0.540403 15.8242 0.595514 15.5302 0.668996 15.2363C0.705737 14.9791 0.760848 14.7219 0.834329 14.4648C0.90781 14.2076 0.981292 13.9871 1.05477 13.8034C1.12826 13.6197 1.23848 13.3993 1.38544 13.1421C1.49566 12.8482 1.58751 12.591 1.661 12.3705C1.91818 11.8929 2.21211 11.4153 2.54277 10.9376C2.8367 10.4233 3.149 9.96402 3.47966 9.55987C3.62663 9.37617 3.81033 9.15572 4.03077 8.89854C4.25122 8.64135 4.45329 8.40254 4.637 8.18209C5.04114 7.77795 5.48203 7.35543 5.95966 6.91454C6.43729 6.47365 6.93329 6.10624 7.44766 5.81232C7.55789 5.73884 7.72322 5.62861 7.94366 5.48165C8.12737 5.33469 8.2927 5.20609 8.43966 5.09587C8.62337 5.02239 8.84381 4.91217 9.101 4.76521C9.39492 4.5815 9.68885 4.41617 9.98277 4.26921C10.24 4.15898 10.5339 4.03039 10.8646 3.88343C11.1952 3.73647 11.4524 3.62624 11.6361 3.55276C11.8566 3.47928 12.0954 3.42417 12.3526 3.38743C12.6465 3.31395 12.8853 3.24046 13.069 3.16698C13.2527 3.13024 13.4548 3.0935 13.6752 3.05676C13.9324 3.02002 14.1528 3.00165 14.3366 3.00165C14.5203 2.96491 14.7774 2.94654 15.1081 2.94654H15.9348C16.192 2.98328 16.4675 3.02002 16.7614 3.05676C17.0921 3.05676 17.3493 3.07513 17.533 3.11187C17.7167 3.14861 17.9188 3.20372 18.1392 3.27721C18.3964 3.35069 18.6168 3.4058 18.8006 3.44254C18.9843 3.51602 19.2047 3.62624 19.4619 3.77321C19.7558 3.88343 20.013 3.99365 20.2334 4.10387C20.4906 4.17735 20.7662 4.28758 21.0601 4.43454L21.7214 4.87543C21.8684 4.98565 22.0705 5.15098 22.3277 5.37143C22.5848 5.55513 22.8053 5.73883 22.989 5.92254L23.5952 6.52876C23.8157 6.74921 23.9626 6.93291 24.0361 7.07987C24.1463 7.22684 24.2749 7.41054 24.4219 7.63098C24.5688 7.85143 24.6791 8.0535 24.7526 8.23721C24.9363 8.53113 25.1016 8.99039 25.2486 9.61498C25.4323 10.2396 25.5241 10.6988 25.5241 10.9928C25.5608 11.2132 25.5792 11.4888 25.5792 11.8194V12.8114C25.5792 13.1054 25.5608 13.4176 25.5241 13.7483C25.5241 14.0422 25.4874 14.2811 25.4139 14.4648C25.3404 14.9057 25.1934 15.4568 24.973 16.1181C24.7893 16.7427 24.5872 17.2387 24.3668 17.6061C24.2566 17.8265 24.128 18.0654 23.981 18.3225C23.834 18.5797 23.7054 18.8002 23.5952 18.9839C23.338 19.4982 22.8788 20.0494 22.2174 20.6372C21.5928 21.1883 21.005 21.6108 20.4539 21.9048C20.3069 22.015 20.1232 22.0701 19.9028 22.0701C19.7191 22.0701 19.5537 22.0334 19.4068 21.9599C19.37 21.8864 19.3149 21.8313 19.2414 21.7945C19.2047 21.7211 19.168 21.6476 19.1312 21.5741C19.1312 21.5006 19.1312 21.4088 19.1312 21.2985C19.1312 21.2251 19.1312 21.1516 19.1312 21.0781C19.2414 20.8944 19.4986 20.6188 19.9028 20.2514C20.0865 20.0677 20.2886 19.884 20.509 19.7003C20.7294 19.4799 20.8948 19.2962 21.005 19.1492C21.6663 18.4879 22.1991 17.7163 22.6032 16.8345C23.0441 15.9528 23.338 15.0342 23.485 14.079C23.5217 13.8953 23.5401 13.7116 23.5401 13.5279C23.5768 13.3442 23.5952 13.1972 23.5952 13.087C23.5952 12.9033 23.5768 12.7196 23.5401 12.5359C23.5034 12.2787 23.4666 12.0031 23.4299 11.7092C23.4299 11.4153 23.3931 11.1765 23.3197 10.9928C23.2462 10.5151 23.0992 10.1294 22.8788 9.83543C22.7318 9.50476 22.4746 9.15572 22.1072 8.78832C21.7766 8.42091 21.4643 8.14535 21.1703 7.96165C20.4355 7.41054 19.6088 7.00639 18.6903 6.74921C18.029 6.45528 17.3309 6.30832 16.5961 6.30832C16.3022 6.30832 16.045 6.32669 15.8246 6.36343C15.5674 6.43691 15.2918 6.49202 14.9979 6.52876C14.704 6.5655 14.4468 6.62061 14.2263 6.69409C13.712 6.80432 13.1425 7.02476 12.5179 7.35543C12.2607 7.50239 11.9668 7.66772 11.6361 7.85143C11.3054 8.03513 11.0115 8.20046 10.7543 8.34743C10.4971 8.53113 10.2032 8.75158 9.87255 9.00876C9.57863 9.22921 9.32144 9.43128 9.101 9.61498C8.91729 9.83543 8.71522 10.0559 8.49477 10.2763C8.23759 10.4968 8.03551 10.6805 7.88855 10.8274C7.55788 11.2316 7.22722 11.6725 6.89655 12.1501C6.56589 12.591 6.3087 13.0686 6.125 13.583C5.97803 13.8769 5.84944 14.1708 5.73922 14.4648C5.59226 14.7219 5.48203 14.924 5.40855 15.071C5.33507 15.3282 5.27996 15.5486 5.24322 15.7323C5.20648 15.916 5.18811 16.2283 5.18811 16.6692C5.18811 17.1101 5.20648 17.4408 5.24322 17.6612C5.27996 17.8449 5.35344 18.0837 5.46366 18.3777C5.53714 18.6716 5.72085 19.1125 6.01477 19.7003C6.27196 20.2882 6.4924 20.7107 6.67611 20.9679C6.78633 21.1516 6.93329 21.372 7.117 21.6292C7.26396 21.8496 7.42929 22.0517 7.613 22.2354C7.75996 22.4559 7.9804 22.7131 8.27433 23.007C8.53152 23.3009 8.77033 23.5765 8.99077 23.8337C9.24796 24.0908 9.54189 24.3664 9.87255 24.6603C10.2032 24.9542 10.4788 25.1931 10.6992 25.3768C10.9197 25.5605 11.1952 25.7993 11.5259 26.0932C11.8933 26.3504 12.224 26.5892 12.5179 26.8097C13.1057 27.2873 13.6936 27.7098 14.2814 28.0772C14.906 28.4446 15.5306 28.8304 16.1552 29.2345C16.2654 29.308 16.4124 29.4182 16.5961 29.5652C16.8166 29.7122 17.0186 29.8591 17.2023 30.0061C17.386 30.1163 17.6065 30.2817 17.8637 30.5021C18.1208 30.6858 18.3597 30.8695 18.5801 31.0532C18.7638 31.2369 18.9843 31.439 19.2414 31.6594C19.4986 31.8799 19.7191 32.0819 19.9028 32.2657C20.0865 32.4126 20.2886 32.6147 20.509 32.8719C20.7662 33.1291 20.9866 33.3679 21.1703 33.5883C21.354 33.772 21.5377 34.0292 21.7214 34.3599C21.9419 34.6538 22.144 34.911 22.3277 35.1314C22.4746 35.3519 22.6216 35.5907 22.7686 35.8479C22.9523 36.1051 23.0808 36.3255 23.1543 36.5092C23.338 36.8766 23.4483 37.0603 23.485 37.0603C23.5952 36.9868 23.7238 36.895 23.8708 36.7848C23.981 36.7113 24.0912 36.6194 24.2014 36.5092C24.3484 36.3622 24.5137 36.2337 24.6974 36.1234C25.0281 35.8295 25.3771 35.5356 25.7446 35.2417C26.1487 34.9477 26.4426 34.7089 26.6263 34.5252C26.81 34.3415 27.0488 34.1211 27.3428 33.8639C27.6367 33.6067 27.8755 33.3862 28.0592 33.2025C28.2797 33.0188 28.4817 32.8168 28.6654 32.5963C28.8859 32.3759 29.0329 32.2105 29.1063 32.1003C29.3635 31.8064 29.584 31.6594 29.7677 31.6594C29.8779 31.6594 29.9697 31.7513 30.0432 31.935C30.0432 32.0819 29.9514 32.3024 29.7677 32.5963C29.584 32.8535 29.3635 33.1291 29.1063 33.423C28.8859 33.6802 28.6471 33.919 28.3899 34.1394C28.1694 34.3599 28.0041 34.5252 27.8939 34.6354C27.5632 34.9661 27.1407 35.3702 26.6263 35.8479C26.1487 36.3255 25.7078 36.7113 25.3037 37.0052C24.6056 37.5931 24.2198 37.9605 24.1463 38.1074C24.1096 38.2177 24.0912 38.3279 24.0912 38.4381C24.0912 38.6585 24.1463 38.9341 24.2566 39.2648C24.33 39.5587 24.4219 39.8894 24.5321 40.2568C24.6423 40.5874 24.7158 40.863 24.7526 41.0834C24.826 41.3774 24.8628 41.6897 24.8628 42.0203V44.5554C24.8628 44.8494 24.826 45.1249 24.7526 45.3821C24.7158 45.5658 24.6607 45.7862 24.5872 46.0434C24.5505 46.3006 24.5137 46.4659 24.477 46.5394L24.2014 47.2559C24.0912 47.5131 23.981 47.7519 23.8708 47.9723C23.7973 48.156 23.6687 48.3948 23.485 48.6888C23.338 48.9827 23.1911 49.2399 23.0441 49.4603C22.8971 49.644 22.7134 49.8645 22.493 50.1217C22.3093 50.4156 22.144 50.6544 21.997 50.8381C21.4826 51.4259 20.9499 52.0138 20.3988 52.6017C19.8477 53.1895 19.2598 53.7039 18.6352 54.1448C18.4515 54.3285 18.1943 54.5122 17.8637 54.6959C17.5697 54.9163 17.3309 55.1 17.1472 55.247C16.9635 55.3939 16.7247 55.5409 16.4308 55.6879C16.1736 55.8348 15.9348 55.9634 15.7143 56.0737L15.053 56.3492C14.7591 56.4594 14.5203 56.5329 14.3366 56.5697C13.8957 56.7534 13.3446 56.882 12.6832 56.9554C12.0219 57.0289 11.4524 57.0657 10.9748 57.0657H9.81744C9.56026 57.0657 9.32144 57.0289 9.101 56.9554C8.2927 56.7717 7.50277 56.3125 6.73122 55.5777C5.95966 54.8428 5.57388 54.0345 5.57388 53.1528C5.53714 52.9691 5.51877 52.8037 5.51877 52.6568C5.51877 52.4363 5.55551 52.2342 5.629 52.0505C5.70248 51.6831 5.83107 51.3157 6.01477 50.9483C6.08825 50.8014 6.21685 50.5993 6.40055 50.3421C6.54751 50.1217 6.69448 49.9012 6.84144 49.6808C6.9884 49.4971 7.20885 49.2399 7.50277 48.9092C7.7967 48.5785 8.09063 48.2662 8.38455 47.9723C8.67848 47.6784 8.99077 47.3661 9.32144 47.0354C9.68885 46.7048 10.0011 46.4476 10.2583 46.2639C10.4788 46.0802 10.8278 45.8046 11.3054 45.4372C11.7831 45.1065 12.2423 44.7759 12.6832 44.4452C12.7934 44.3717 13.1792 44.0962 13.8406 43.6185C14.5019 43.1777 15.2 42.7 15.9348 42.1856C16.6696 41.708 17.3309 41.2671 17.9188 40.863C18.5066 40.4588 18.8189 40.2568 18.8557 40.2568C18.8557 39.9996 18.672 39.6138 18.3046 39.0994C17.9371 38.5483 17.4963 37.9972 16.9819 37.4461C16.5043 36.8582 16.0083 36.3255 15.4939 35.8479C14.9795 35.3335 14.5754 34.9661 14.2814 34.7457C14.0243 34.5619 13.6752 34.3231 13.2343 34.0292C12.8302 33.7353 12.4444 33.4597 12.077 33.2025C11.6728 32.9454 11.2687 32.6882 10.8646 32.431C10.4604 32.1371 10.1665 31.9166 9.98277 31.7697C9.79907 31.5859 9.52351 31.3655 9.15611 31.1083C8.82544 30.8144 8.49477 30.5205 8.16411 30.2265C6.65774 28.8671 5.24322 27.3975 3.92055 25.8176C3.22248 24.8991 2.56114 23.8337 1.93655 22.6212C1.27522 21.4088 0.852699 20.2147 0.668996 19.039C0.558773 18.5981 0.503662 17.9735 0.503662 17.1652C0.503662 16.7611 0.503662 16.412 0.503662 16.1181ZM7.72322 52.7119C7.72322 53.0058 7.7967 53.2446 7.94366 53.4283C8.01714 53.5018 8.109 53.5937 8.21922 53.7039C8.32944 53.8508 8.42129 53.9611 8.49477 54.0345C8.56826 54.108 8.66011 54.1815 8.77033 54.255C8.88055 54.3285 8.95403 54.3836 8.99077 54.4203C9.06426 54.4571 9.13774 54.4754 9.21122 54.4754C9.32144 54.5122 9.41329 54.5489 9.48677 54.5857H11.085C11.4524 54.5857 11.8198 54.5673 12.1872 54.5305C12.5546 54.5305 12.8302 54.4938 13.0139 54.4203C13.418 54.3468 13.7671 54.255 14.061 54.1448L15.053 53.6488C15.1632 53.5753 15.3286 53.4467 15.549 53.263C15.8062 53.116 16.045 52.9507 16.2654 52.767L17.533 51.4994C18.1208 50.8014 18.5985 50.0849 18.9659 49.3501C19.0394 49.2031 19.1312 49.0011 19.2414 48.7439C19.3517 48.5234 19.4435 48.3214 19.517 48.1377C19.5905 47.9539 19.664 47.7151 19.7374 47.4212C19.8109 47.164 19.8844 46.9252 19.9579 46.7048C20.0314 46.3741 20.0681 46.0802 20.0681 45.823C20.0681 45.6025 20.0314 45.2535 19.9579 44.7759C19.9579 44.6656 19.9395 44.4452 19.9028 44.1145C19.9028 43.7839 19.866 43.4532 19.7926 43.1225C19.7558 42.7919 19.7007 42.4796 19.6272 42.1856C19.5537 41.9285 19.4803 41.7999 19.4068 41.7999C19.2966 41.7999 18.874 42.0754 18.1392 42.6265C17.7718 42.9205 17.3677 43.2328 16.9268 43.5634L15.8246 44.3901C14.8693 45.1249 13.9324 45.8597 13.0139 46.5945C12.0954 47.3661 11.1768 48.1376 10.2583 48.9092L9.65211 49.5705C9.39492 49.791 9.17448 50.0114 8.99077 50.2319C8.80707 50.4891 8.62337 50.7462 8.43966 51.0034C8.21922 51.2974 8.07226 51.5362 7.99877 51.7199C7.81507 52.0873 7.72322 52.4179 7.72322 52.7119Z" fill="#3C1663"/>
<path d="M27.3609 33.2025C27.3976 32.7249 27.4527 32.3024 27.5262 31.935C27.5997 31.6411 27.6548 31.3288 27.6915 30.9981C27.7283 30.6307 27.7834 30.3551 27.8569 30.1714C27.9303 29.9877 28.0038 29.804 28.0773 29.6203C28.1508 29.3999 28.2243 29.2345 28.2977 29.1243C28.4814 28.7937 28.6652 28.5916 28.8489 28.5181C29.0326 28.4079 29.2346 28.3528 29.4551 28.3528C29.6388 28.3528 29.8041 28.3895 29.9511 28.463C30.0613 28.4997 30.2083 28.6099 30.392 28.7936C30.5389 28.8671 30.6492 29.0325 30.7226 29.2896C30.7594 29.3631 30.7777 29.4734 30.7777 29.6203C30.8145 29.7305 30.8329 29.951 30.8329 30.2817C30.8696 30.6123 30.888 31.0716 30.888 31.6594C30.9247 32.2473 30.9431 33.0372 30.9431 34.0292C30.9798 35.3519 31.0166 36.6562 31.0533 37.9421C31.1268 39.228 31.2554 40.5323 31.4391 41.855C31.5493 42.2591 31.6044 42.4979 31.6044 42.5714L31.9351 42.0203C32.0086 41.8734 32.1372 41.6345 32.3209 41.3039C32.5413 40.9365 32.7434 40.5874 32.9271 40.2568C33.4414 39.1913 33.9375 38.1258 34.4151 37.0603C34.9295 35.9581 35.4254 34.8742 35.9031 33.8088C36.0868 33.4046 36.2521 33.0372 36.3991 32.7065C36.546 32.3391 36.6563 32.1003 36.7297 31.9901C36.8032 31.6962 36.9135 31.5308 37.0604 31.4941C37.1339 31.4206 37.2074 31.3839 37.2809 31.3839C37.3176 31.3839 37.336 31.4022 37.336 31.439C37.3727 31.439 37.4095 31.439 37.4462 31.439C37.5932 31.4757 37.7034 31.5676 37.7769 31.7145C37.8503 31.8248 37.8871 32.0268 37.8871 32.3208C37.8136 32.6147 37.685 33.0923 37.5013 33.7537C37.3911 34.0476 37.2441 34.4334 37.0604 34.911C36.9135 35.3886 36.7481 35.8295 36.5644 36.2337C36.4174 36.6378 36.197 37.1889 35.9031 37.887C35.6459 38.5851 35.3887 39.228 35.1315 39.8159C34.8743 40.367 34.6172 40.9365 34.36 41.5243C34.1395 42.0754 33.9742 42.4796 33.864 42.7368C33.4598 43.4716 33.0006 44.2064 32.4862 44.9412C32.229 45.2351 32.0086 45.4005 31.8249 45.4372C31.7514 45.5107 31.6412 45.5474 31.4942 45.5474C31.384 45.5842 31.2921 45.6209 31.2186 45.6577H30.6675C30.4471 45.5842 30.2634 45.5107 30.1164 45.4372C29.8592 45.3637 29.5837 45.1433 29.2897 44.7759C28.9958 44.4085 28.8121 44.1145 28.7386 43.8941C28.6652 43.7104 28.5733 43.4899 28.4631 43.2328C28.3529 43.0123 28.261 42.8102 28.1875 42.6265C28.114 42.4428 28.0589 42.2224 28.0222 41.9652C27.9487 41.7448 27.8936 41.5427 27.8569 41.359C27.7834 41.1753 27.7283 40.9548 27.6915 40.6977C27.6548 40.4405 27.618 40.22 27.5813 40.0363C27.5078 39.8159 27.4711 39.5219 27.4711 39.1545C27.4343 38.7871 27.3976 38.4565 27.3609 38.1625C27.3241 37.8319 27.3057 37.3726 27.3057 36.7848V35.0212C27.3425 34.3231 27.3609 33.7169 27.3609 33.2025ZM28.5182 21.7394C28.5182 21.5925 28.5733 21.4271 28.6835 21.2434C28.9407 20.5821 29.3816 20.2514 30.0062 20.2514C30.1164 20.2514 30.2817 20.2882 30.5022 20.3617C30.6859 20.3984 30.8696 20.5086 31.0533 20.6923C31.1635 20.876 31.237 21.1516 31.2737 21.519C31.2737 21.7762 31.2554 21.9782 31.2186 22.1252C31.2186 22.2354 31.1452 22.4008 30.9982 22.6212C30.8512 23.0621 30.7777 23.3009 30.7777 23.3377C30.7777 23.4479 30.6859 23.5948 30.5022 23.7785C30.3185 23.999 30.0797 24.1276 29.7857 24.1643C29.4551 24.1643 29.2163 24.1092 29.0693 23.999C28.8121 23.8153 28.6468 23.5948 28.5733 23.3377C28.4998 23.0437 28.4631 22.7498 28.4631 22.4559C28.4631 22.1252 28.4814 21.8864 28.5182 21.7394Z" fill="#3C1663"/>
<path d="M35.7158 48.6337C35.6423 48.5234 35.5872 48.4683 35.5505 48.4683C35.5137 48.4683 35.4586 48.4683 35.3851 48.4683C35.3116 48.5051 35.183 48.5418 34.9993 48.5785C34.9259 48.5785 34.834 48.5785 34.7238 48.5785C34.6136 48.6153 34.5217 48.6337 34.4482 48.6337C34.3013 48.6337 34.0441 48.5785 33.6767 48.4683C33.3093 48.3948 33.0888 48.3214 33.0153 48.2479C32.8316 48.1377 32.6847 47.9356 32.5745 47.6417C32.4642 47.4212 32.4091 47.2926 32.4091 47.2559C32.3724 47.2191 32.354 47.1824 32.354 47.1457C32.354 47.0722 32.3908 46.9987 32.4642 46.9252C32.5377 46.7048 32.85 46.4843 33.4011 46.2639C33.9522 46.0802 34.338 45.9699 34.5585 45.9332C34.9259 45.823 35.1463 45.7495 35.2198 45.7128C35.2565 45.676 35.2749 45.5842 35.2749 45.4372C35.2382 45.3637 35.2198 45.1984 35.2198 44.9412C35.183 44.684 35.1463 44.4085 35.1096 44.1145C35.1096 43.7839 35.1096 43.3246 35.1096 42.7368C35.0728 42.1489 35.0361 41.5794 34.9993 41.0283C34.9626 40.4772 34.9442 39.8342 34.9442 39.0994C34.9442 38.3646 34.981 37.7216 35.0545 37.1705C35.0545 34.7089 35.2749 32.0819 35.7158 29.2896C36.1199 26.4974 36.6159 23.8704 37.2038 21.4088C37.2773 20.9679 37.3875 20.4168 37.5345 19.7554C37.7182 19.0941 37.9019 18.5062 38.0856 17.9919C38.2325 17.4775 38.3979 16.9264 38.5816 16.3385C38.7653 15.7139 38.9122 15.2363 39.0225 14.9057C39.1694 14.575 39.3164 14.1892 39.4633 13.7483C39.6103 13.2707 39.7573 12.8665 39.9042 12.5359C40.1982 11.8745 40.4737 11.2132 40.7309 10.5519C41.0248 9.89054 41.3371 9.24758 41.6678 8.62298C41.8148 8.40254 41.9801 8.10861 42.1638 7.74121C42.3475 7.3738 42.5312 7.04313 42.7149 6.74921C42.8619 6.45528 43.0456 6.12461 43.266 5.75721C43.5232 5.3898 43.7436 5.05913 43.9273 4.76521C44.111 4.50802 44.2948 4.23246 44.4785 3.93854C44.6989 3.64461 44.8642 3.4058 44.9745 3.22209C45.1214 3.03839 45.2868 2.83632 45.4705 2.61587C45.6909 2.35869 45.8746 2.15661 46.0216 2.00965C46.242 1.71572 46.5359 1.4218 46.9033 1.12787C47.3075 0.833947 47.6749 0.613502 48.0056 0.466539C48.1525 0.429798 48.3179 0.393058 48.5016 0.356318C48.722 0.319575 48.9057 0.282834 49.0527 0.246094H49.3282C50.3937 0.246094 51.2755 0.595131 51.9736 1.2932C52.194 1.58713 52.4145 1.9178 52.6349 2.2852C52.7084 2.46891 52.7819 2.70772 52.8553 3.00165C52.9656 3.25883 53.0574 3.49765 53.1309 3.7181C53.2044 3.93854 53.2779 4.19572 53.3513 4.48965C53.4248 4.74683 53.4799 4.96728 53.5167 5.15098C53.5534 5.33469 53.5902 5.5735 53.6269 5.86743C53.6636 6.12461 53.682 6.36343 53.682 6.58387C53.7188 6.8778 53.7555 7.15335 53.7922 7.41054C53.7555 7.70446 53.7188 7.99839 53.682 8.29232C53.682 8.5495 53.6636 8.84343 53.6269 9.17409C53.5902 9.50476 53.535 9.76195 53.4616 9.94565C53.4248 10.1661 53.3697 10.4417 53.2962 10.7723C53.2228 11.0662 53.1493 11.3602 53.0758 11.6541C53.0023 11.9113 52.8921 12.2603 52.7451 12.7012C52.5982 13.1054 52.4696 13.5095 52.3593 13.9137C52.2124 14.2811 52.0287 14.7587 51.8082 15.3465C51.6245 15.8977 51.4408 16.3753 51.2571 16.7794C51.1102 17.1836 50.9265 17.6428 50.706 18.1572C50.4856 18.6348 50.3202 19.0206 50.21 19.3145C50.063 19.6085 49.8977 19.9391 49.714 20.3065C49.567 20.6372 49.4385 20.9128 49.3282 21.1332C49.218 21.3169 49.071 21.5741 48.8873 21.9048C48.7036 22.2354 48.5199 22.5294 48.3362 22.7865C48.1893 23.0805 48.0056 23.3928 47.7851 23.7234C47.6014 24.0541 47.4361 24.348 47.2891 24.6052C47.1054 24.8256 46.885 25.1379 46.6278 25.5421C46.3706 25.9095 46.1318 26.2402 45.9113 26.5341C45.4337 27.1219 44.9561 27.7098 44.4785 28.2977C44.0376 28.8488 43.5599 29.3999 43.0456 29.951C42.8619 30.1347 42.623 30.3551 42.3291 30.6123C42.0719 30.8695 41.8515 31.0899 41.6678 31.2737C41.4841 31.4574 41.2636 31.6411 41.0065 31.8248C40.7493 31.9717 40.5472 32.0819 40.4002 32.1554C40.3268 32.1922 40.2533 32.2289 40.1798 32.2657C40.1063 32.3024 40.0328 32.3391 39.9593 32.3759C39.8859 32.4126 39.8308 32.4494 39.794 32.4861C39.7573 32.6331 39.7389 32.7984 39.7389 32.9821C39.7022 33.1291 39.6838 33.2944 39.6838 33.4781C39.6838 33.6618 39.6654 33.8822 39.6287 34.1394C39.5919 34.5803 39.5552 35.1131 39.5185 35.7377C39.4817 36.3255 39.4266 36.8399 39.3531 37.2808V44.7759C39.3531 44.9228 39.3715 44.9963 39.4082 44.9963C39.4082 44.9963 39.5001 44.9596 39.6838 44.8861C39.7573 44.8126 39.941 44.6657 40.2349 44.4452C40.5656 44.2615 40.9146 44.0411 41.282 43.7839C41.6494 43.5267 42.0352 43.2328 42.4393 42.9021C42.8802 42.6082 43.2293 42.351 43.4865 42.1305C43.7436 41.9468 44.0376 41.708 44.3682 41.4141C44.7356 41.0834 45.0663 40.8262 45.3602 40.6425C45.6174 40.4221 45.9113 40.1649 46.242 39.871C46.5727 39.5403 46.885 39.2464 47.1789 38.9892C47.3993 38.732 47.7484 38.3462 48.226 37.8319C48.7404 37.3175 49.218 36.8031 49.6589 36.2888C50.0998 35.7744 50.5774 35.2233 51.0918 34.6354C51.6429 34.0476 52.0654 33.57 52.3593 33.2025C52.6533 32.8719 52.9105 32.5779 53.1309 32.3208C53.3881 32.0636 53.5534 31.9166 53.6269 31.8799C53.7371 31.7696 53.8841 31.7145 54.0678 31.7145C54.2515 31.7145 54.3617 31.7696 54.3985 31.8799C54.4352 31.9166 54.4903 32.0085 54.5638 32.1554C54.5638 32.1554 54.5638 32.1738 54.5638 32.2105C54.5638 32.284 54.5454 32.4126 54.5087 32.5963C54.4719 32.6698 54.3617 32.8168 54.178 33.0372C54.031 33.2209 53.8657 33.4597 53.682 33.7537C53.4983 33.9741 53.2595 34.268 52.9656 34.6354C52.6716 34.9661 52.4328 35.26 52.2491 35.5172C52.0287 35.7744 51.7531 36.1051 51.4225 36.5092C51.1285 36.9134 50.8346 37.2624 50.5407 37.5563C48.9976 39.2464 47.381 40.7895 45.6909 42.1856C44.0008 43.5818 42.2556 44.9596 40.4553 46.319C40.3819 46.3925 40.2716 46.4659 40.1247 46.5394C40.0879 46.5762 40.0512 46.6129 40.0145 46.6497C40.0512 46.6864 40.0879 46.7231 40.1247 46.7599C40.1614 46.7966 40.2533 46.8517 40.4002 46.9252C41.135 47.3294 41.925 47.9356 42.77 48.7439C43.6518 49.5889 44.3499 50.3605 44.8642 51.0585C45.0479 51.3157 45.2316 51.6097 45.4153 51.9403C45.599 52.271 45.7644 52.5465 45.9113 52.767C46.1318 53.2079 46.3155 53.7039 46.4625 54.255C46.6462 54.8061 46.738 55.3388 46.738 55.8532C46.7747 56.0737 46.7931 56.3125 46.7931 56.5697C46.7931 56.8268 46.7747 57.1024 46.738 57.3963C46.591 58.0209 46.389 58.7374 46.1318 59.5457C45.9113 60.354 45.5439 60.9785 45.0296 61.4194C44.8091 61.7134 44.4968 61.9338 44.0927 62.0808C43.8355 62.191 43.5232 62.2461 43.1558 62.2461C42.6782 62.2461 42.2924 62.1726 41.9985 62.0257C41.7045 61.8787 41.3739 61.6582 41.0065 61.3643L40.2349 60.5928C40.1247 60.4458 39.9777 60.2621 39.794 60.0417C39.647 59.8212 39.5001 59.6191 39.3531 59.4354C39.2429 59.2517 39.0959 58.9945 38.9122 58.6639C38.7653 58.3699 38.6183 58.1128 38.4713 57.8923C38.3611 57.6719 38.2142 57.3779 38.0305 57.0105C37.8835 56.6799 37.7549 56.4043 37.6447 56.1839C37.4242 55.5225 37.2038 54.8612 36.9833 54.1999C36.7629 53.5385 36.5608 52.8772 36.3771 52.2159C36.3036 51.922 36.2302 51.5545 36.1567 51.1137C36.0832 50.6728 36.0097 50.3054 35.9362 50.0114C35.8627 49.6808 35.826 49.3868 35.826 49.1297C35.7893 48.8725 35.7525 48.7071 35.7158 48.6337ZM39.794 48.5234L39.8491 48.8541C39.8491 48.9643 39.8491 49.0929 39.8491 49.2399C39.8859 49.3868 39.9042 49.5338 39.9042 49.6808C39.9777 49.9747 40.0512 50.3788 40.1247 50.8932C40.1982 51.4076 40.29 51.8852 40.4002 52.3261C40.5839 53.1711 40.7676 53.9794 40.9513 54.751C41.135 55.5225 41.3739 56.3125 41.6678 57.1208C41.7413 57.3045 41.8331 57.5249 41.9433 57.7821C42.0903 58.0393 42.2189 58.2781 42.3291 58.4985C42.4393 58.6822 42.5679 58.8843 42.7149 59.1048C42.8619 59.3252 42.9721 59.4905 43.0456 59.6008C43.266 59.8212 43.4681 59.9314 43.6518 59.9314C43.8355 59.9314 44.0192 59.8396 44.2029 59.6559C44.2764 59.5824 44.3499 59.4722 44.4233 59.3252C44.4968 59.1782 44.5703 59.0313 44.6438 58.8843C44.8275 58.5537 44.9561 58.2046 45.0296 57.8372C45.103 57.6535 45.1398 57.4882 45.1398 57.3412C45.1765 57.1942 45.1949 57.084 45.1949 57.0105C45.1949 56.8268 45.1765 56.6064 45.1398 56.3492C45.1031 55.6879 45.0296 55.1735 44.9193 54.8061C44.8091 54.4754 44.6438 54.0896 44.4233 53.6488C43.762 52.5465 42.9721 51.4443 42.0536 50.3421C41.8699 50.1584 41.6494 49.938 41.3922 49.6808C41.135 49.4603 40.8962 49.2582 40.6758 49.0745C40.0879 48.7071 39.794 48.5234 39.794 48.5234ZM40.2349 29.3999C40.2349 29.4734 40.2349 29.5468 40.2349 29.6203C40.2349 29.7305 40.2533 29.7857 40.29 29.7857H40.3451C40.3819 29.7489 40.4186 29.7305 40.4553 29.7305C40.5288 29.6571 40.6758 29.5285 40.8962 29.3448C41.1167 29.1243 41.3739 28.8855 41.6678 28.6283C41.925 28.3711 42.2189 28.0772 42.5496 27.7465C42.8802 27.3791 43.1374 27.0852 43.3211 26.8648C43.5048 26.6076 43.7253 26.332 43.9825 26.0381C44.2764 25.7074 44.5152 25.4319 44.6989 25.2114C44.8826 24.991 45.0663 24.7338 45.25 24.4399C45.4705 24.1459 45.6542 23.9071 45.8011 23.7234C45.9481 23.5397 46.1318 23.2825 46.3522 22.9519C46.6094 22.5845 46.8299 22.2538 47.0136 21.9599C47.9688 20.3065 48.7955 18.6348 49.4936 16.9448C50.1916 15.2547 50.8162 13.4911 51.3673 11.6541C51.4408 11.3602 51.4959 11.0479 51.5327 10.7172C51.6062 10.3865 51.6613 10.111 51.698 9.89054C51.7715 9.70683 51.8082 9.44965 51.8082 9.11898C51.845 8.75158 51.8817 8.42091 51.9185 8.12698C51.9185 7.61261 51.8817 7.09824 51.8082 6.58387C51.7715 6.0695 51.6613 5.5735 51.4776 5.09587C51.4408 4.91217 51.3673 4.72846 51.2571 4.54476C51.1836 4.32432 51.1102 4.14061 51.0367 3.99365C50.9632 3.88343 50.8346 3.69972 50.6509 3.44254C50.5039 3.14861 50.357 3.00165 50.21 3.00165C50.0998 3.00165 49.9712 3.03839 49.8242 3.11187C49.714 3.18535 49.5119 3.33232 49.218 3.55276C48.9608 3.80995 48.6485 4.2141 48.2811 4.76521C48.1342 5.02239 47.9505 5.33469 47.73 5.7021C47.5463 6.03276 47.3626 6.34506 47.1789 6.63898C47.0319 6.93291 46.8666 7.26358 46.6829 7.63098C46.4992 7.96165 46.3339 8.25558 46.1869 8.51276C46.0767 8.76995 45.9481 9.0455 45.8011 9.33943C45.6909 9.59661 45.599 9.79869 45.5256 9.94565C45.4521 10.0926 45.3419 10.3131 45.1949 10.607C45.0847 10.9009 44.9745 11.1765 44.8642 11.4337C44.754 11.7276 44.607 12.1317 44.4233 12.6461C44.2396 13.1605 44.0559 13.6381 43.8722 14.079C43.0639 16.1732 42.4026 18.3225 41.8882 20.527C41.3739 22.7314 40.933 24.9359 40.5656 27.1403C40.4921 27.6547 40.4186 28.1323 40.3451 28.5732C40.3084 28.9774 40.2716 29.2529 40.2349 29.3999Z" fill="#3C1663"/>
<path d="M37.1736 15.2914C37.2839 15.1077 37.5962 14.8873 38.1105 14.6301C38.5882 14.3362 38.9188 14.1525 39.1025 14.079C39.8006 13.7851 40.5354 13.5646 41.307 13.4177C42.0785 13.2707 42.8317 13.1605 43.5665 13.087C43.7502 13.087 44.0442 13.0686 44.4483 13.0319C44.8525 12.9951 45.2566 12.9768 45.6608 12.9768C45.8445 12.94 46.0465 12.9216 46.267 12.9216H47.8101C48.0673 12.9216 48.3061 12.94 48.5265 12.9768C48.9307 13.0135 49.3899 13.0502 49.9043 13.087C50.4187 13.1237 50.8412 13.1605 51.1719 13.1972C51.4658 13.2339 51.8148 13.2707 52.219 13.3074C52.6231 13.3442 52.9722 13.3993 53.2661 13.4728C53.4131 13.4728 53.5416 13.4911 53.6519 13.5279C53.7988 13.5279 53.9091 13.5279 53.9825 13.5279H54.2581C54.2948 13.3809 54.3132 13.2339 54.3132 13.087L54.5336 11.9848C54.5336 11.8745 54.552 11.6541 54.5888 11.3234C54.6622 10.956 54.7357 10.5886 54.8092 10.2212C54.8827 9.81706 54.9562 9.44965 55.0296 9.11898C55.1031 8.78832 55.1582 8.56787 55.195 8.45765C55.3052 8.23721 55.4154 8.07187 55.5256 7.96165C55.6359 7.77795 55.7828 7.64935 55.9665 7.57587C56.1502 7.46565 56.3891 7.41054 56.683 7.41054C56.9769 7.41054 57.1973 7.46565 57.3443 7.57587C57.4913 7.64935 57.6199 7.7412 57.7301 7.85143C57.8036 7.92491 57.8587 7.99839 57.8954 8.07187C57.9322 8.14535 57.9873 8.21883 58.0608 8.29232C58.0975 8.3658 58.1342 8.47602 58.171 8.62298C58.2077 8.73321 58.2261 8.84343 58.2261 8.95365C58.2628 9.06387 58.2812 9.39454 58.2812 9.94565C58.3179 10.46 58.3363 11.0295 58.3363 11.6541C58.3363 12.8298 58.3547 13.5095 58.3914 13.6932C58.4282 13.8769 58.5935 13.9871 58.8874 14.0239C59.0711 14.0606 59.4202 14.079 59.9345 14.079C60.4856 14.079 61.0735 14.0974 61.6981 14.1341H64.123C64.5271 14.1341 64.8394 14.1157 65.0599 14.079C65.3538 14.079 65.7028 14.0606 66.107 14.0239C66.5479 13.9871 66.9153 13.9504 67.2092 13.9137C67.4296 13.9137 67.742 13.8953 68.1461 13.8585C68.5502 13.8218 68.9728 13.7667 69.4137 13.6932C69.8545 13.6197 70.2771 13.5462 70.6812 13.4728C71.0854 13.3993 71.3793 13.3258 71.563 13.2523C71.9304 13.2156 72.1141 13.1054 72.1141 12.9216C72.1876 12.7747 72.2794 12.6461 72.3896 12.5359C72.6101 12.4256 72.7571 12.3705 72.8305 12.3705C72.904 12.3705 73.051 12.444 73.2714 12.591C73.3449 12.6645 73.3816 12.7196 73.3816 12.7563C73.4184 12.7931 73.4368 12.8298 73.4368 12.8665C73.4368 12.9768 73.4 13.1421 73.3265 13.3625C73.2163 13.9504 72.9224 14.3729 72.4448 14.6301C72.1508 14.8505 71.7834 14.9975 71.3425 15.071C70.6812 15.2547 70.0199 15.42 69.3585 15.567C68.6972 15.6772 68.0175 15.7874 67.3194 15.8976C66.9153 15.9711 66.456 16.0262 65.9417 16.063C65.4273 16.063 64.968 16.0997 64.5639 16.1732H61.3123C60.7979 16.1732 60.2836 16.1732 59.7692 16.1732C59.2916 16.1365 58.9609 16.0997 58.7772 16.063H58.4465C58.2628 16.063 58.171 16.2467 58.171 16.6141C58.171 16.7978 58.1526 17.2754 58.1159 18.047C58.0791 18.7818 58.024 19.6085 57.9505 20.527C57.9138 21.4455 57.8771 22.2905 57.8403 23.0621C57.8036 23.8337 57.7852 24.3113 57.7852 24.495C57.7485 24.6787 57.7117 25.1012 57.675 25.7625C57.675 26.4239 57.6566 27.1219 57.6199 27.8568C57.5464 28.6283 57.4913 29.5652 57.4545 30.6674C57.4545 31.7329 57.4545 32.6698 57.4545 33.4781V35.903C57.4545 36.7848 57.4729 37.4645 57.5096 37.9421C57.5096 38.383 57.5096 38.879 57.5096 39.4301C57.5464 39.9812 57.5831 40.4588 57.6199 40.863C57.6199 41.0099 57.6382 41.4692 57.675 42.2408C57.7485 43.0123 57.8036 43.839 57.8403 44.7208C57.9138 45.6025 57.9873 46.3925 58.0608 47.0905C58.171 47.8254 58.2445 48.2111 58.2812 48.2479C58.3179 48.2479 58.4833 47.9723 58.7772 47.4212C58.8507 47.164 58.9609 46.8517 59.1079 46.4843C59.2916 46.1169 59.4569 45.7862 59.6039 45.4923C59.6774 45.1984 59.8059 44.7942 59.9896 44.2799C60.2101 43.7655 60.4122 43.2695 60.5959 42.7919C60.7796 42.351 61.0368 41.6345 61.3674 40.6425C61.6981 39.6505 62.0104 38.6769 62.3043 37.7217C62.635 36.7664 62.9473 35.8662 63.2412 35.0212C63.5351 34.1762 63.7372 33.6067 63.8474 33.3128C63.9576 33.0188 64.0679 32.7433 64.1781 32.4861C64.2883 32.2289 64.3802 32.0452 64.4537 31.935C64.6374 31.7145 64.8027 31.6043 64.9496 31.6043C65.1334 31.6043 65.2803 31.6594 65.3905 31.7697C65.464 31.8799 65.5008 32.0268 65.5008 32.2105C65.464 32.3208 65.3538 32.7249 65.1701 33.423C64.9864 34.0843 64.7659 34.8559 64.5088 35.7377C64.2148 36.6562 63.8842 37.7768 63.5168 39.0994C63.1493 40.4221 62.8187 41.5794 62.5248 42.5714C62.2308 43.5267 61.9369 44.4819 61.643 45.4372C61.3491 46.4292 61.147 47.1273 61.0368 47.5314C60.8898 47.9356 60.7428 48.3581 60.5959 48.799C60.4856 49.2399 60.3938 49.5705 60.3203 49.791C60.2468 49.9747 60.155 50.1951 60.0448 50.4523C59.9345 50.7095 59.8427 50.8932 59.7692 51.0034C59.5488 51.6648 59.1262 52.1424 58.5016 52.4363C58.3547 52.5465 58.1526 52.6017 57.8954 52.6017H57.2341C57.1606 52.5649 57.0688 52.5282 56.9585 52.4914C56.8483 52.4914 56.7565 52.4731 56.683 52.4363C56.6462 52.3628 56.5728 52.3077 56.4625 52.271C56.3891 52.2342 56.3156 52.1791 56.2421 52.1057C56.0951 51.9587 55.8747 51.7015 55.5808 51.3341C55.5073 51.1871 55.3971 50.9851 55.2501 50.7279C55.1399 50.5074 55.048 50.2686 54.9745 50.0114C54.6806 49.2766 54.4234 48.5051 54.203 47.6968C54.0193 46.9252 53.8539 46.1537 53.707 45.3821C53.6335 45.0514 53.5784 44.6289 53.5416 44.1145C53.4682 43.6369 53.3947 43.196 53.3212 42.7919C53.2845 42.3877 53.2477 41.8917 53.211 41.3039C53.1742 40.716 53.1191 40.2017 53.0457 39.7608C53.0089 39.2831 52.9722 38.7137 52.9354 38.0523C52.8987 37.391 52.8803 36.8031 52.8803 36.2888C52.8436 35.8111 52.8252 35.1682 52.8252 34.3599C52.7885 33.5516 52.7701 32.8351 52.7701 32.2105C52.7701 31.5859 52.7885 30.8695 52.8252 30.0612C52.8252 29.2162 52.8436 28.5365 52.8803 28.0221C52.8803 27.5077 52.8987 26.9199 52.9354 26.2585C52.9722 25.5605 53.0089 25.0094 53.0457 24.6052C53.1191 24.1643 53.1742 23.6316 53.211 23.007C53.2477 22.3824 53.2845 21.8497 53.3212 21.4088C53.3947 20.9679 53.4682 20.4351 53.5416 19.8105C53.5784 19.1492 53.6335 18.5797 53.707 18.1021C53.7805 17.6245 53.8356 17.1836 53.8723 16.7794C53.9091 16.3385 53.9458 16.063 53.9825 15.9528C53.9825 15.7323 53.9642 15.6037 53.9274 15.567C53.9274 15.5302 53.8539 15.4935 53.707 15.4568C53.6335 15.4568 53.3396 15.4384 52.8252 15.4016C52.2741 15.3282 51.6679 15.2547 51.0065 15.1812C50.4554 15.1077 49.9962 15.0526 49.6288 15.0159C49.2246 14.9791 48.8572 14.9608 48.5265 14.9608C48.1959 14.924 47.8468 14.9057 47.4794 14.9057H46.2119C45.2934 14.9057 44.4299 14.9424 43.6217 15.0159C42.7766 15.0894 41.9132 15.2363 41.0314 15.4568C40.7742 15.4935 40.5171 15.5486 40.2599 15.6221C40.0027 15.6956 39.7822 15.7691 39.5985 15.8425C39.4148 15.916 39.2128 16.0079 38.9923 16.1181C38.7719 16.1916 38.5882 16.2651 38.4412 16.3385C38.1473 16.5222 37.8901 16.6141 37.6696 16.6141C37.4859 16.6141 37.339 16.5406 37.2288 16.3937C37.0818 16.2099 37.0083 16.0262 37.0083 15.8425C37.0083 15.6221 37.0634 15.4384 37.1736 15.2914Z" fill="#3C1663"/>
<path d="M63.5391 36.399V34.8559C63.5391 34.415 63.5759 34.0292 63.6494 33.6985C63.6861 33.4046 63.7412 33.0923 63.8147 32.7617C63.8882 32.3942 63.9433 32.0636 63.98 31.7697C64.0535 31.5125 64.127 31.2185 64.2005 30.8879C64.3107 30.5572 64.4026 30.3 64.476 30.1163C64.5495 29.9326 64.623 29.7305 64.6965 29.5101C64.8067 29.2529 64.8986 29.0325 64.972 28.8488C65.0823 28.7018 65.1925 28.5181 65.3027 28.2977C65.4497 28.0772 65.5966 27.8751 65.7436 27.6914C66.1477 27.0668 66.6437 26.5525 67.2316 26.1483C67.8562 25.7074 68.5359 25.487 69.2707 25.487C69.6381 25.487 69.8769 25.5054 69.9871 25.5421C70.1341 25.5788 70.2994 25.6523 70.4831 25.7625C70.8138 25.9462 71.0894 26.1667 71.3098 26.4239C71.567 26.6811 71.7874 26.9566 71.9711 27.2505C72.0814 27.5077 72.1732 27.6363 72.2467 27.6363C72.2834 27.6363 72.412 27.471 72.6325 27.1403C72.8162 26.8831 72.9999 26.6627 73.1836 26.479C73.3673 26.2585 73.6245 26.1483 73.9551 26.1483C74.1756 26.1483 74.396 26.1851 74.6165 26.2585L75.0574 26.6994C75.3513 27.1036 75.5534 27.6547 75.6636 28.3528C75.7003 28.6099 75.7187 28.9406 75.7187 29.3448C75.7554 29.7489 75.7738 30.2082 75.7738 30.7225V32.3208C75.7738 32.9454 75.7554 33.4597 75.7187 33.8639C75.7187 34.3048 75.7003 34.8375 75.6636 35.4621C75.6269 36.0499 75.6085 36.5643 75.6085 37.0052C75.5717 37.4094 75.5534 38.1258 75.5534 39.1545V42.1856C75.5534 44.6105 75.5901 45.8597 75.6636 45.9332C75.7371 45.9332 75.9208 45.6393 76.2147 45.0514C76.5821 44.2064 76.8944 43.3614 77.1516 42.5163C77.4455 41.708 77.7394 40.8814 78.0334 40.0363C78.3273 39.0076 78.6396 37.9788 78.9703 36.9501C79.3009 35.9214 79.6683 34.911 80.0725 33.919C80.146 33.6251 80.2378 33.3495 80.348 33.0923C80.4583 32.7984 80.5501 32.5963 80.6236 32.4861C80.7706 32.1554 80.9175 31.9534 81.0645 31.8799C81.1747 31.7329 81.2666 31.6594 81.34 31.6594C81.3768 31.6594 81.3951 31.6778 81.3951 31.7145C81.4319 31.7145 81.4686 31.7145 81.5054 31.7145C81.6523 31.788 81.7258 31.8615 81.7258 31.935C81.7258 31.935 81.7258 31.9534 81.7258 31.9901C81.7258 32.1003 81.6707 32.284 81.5605 32.5412C81.487 32.6514 81.3768 32.9454 81.2298 33.423C81.0829 33.8639 80.9175 34.3415 80.7338 34.8559C80.5501 35.3702 80.3297 36.0316 80.0725 36.8399C79.852 37.6114 79.65 38.2911 79.4663 38.879C79.2826 39.5036 79.0621 40.22 78.8049 41.0283C78.5477 41.8366 78.3273 42.5347 78.1436 43.1225C77.9599 43.7104 77.7762 44.2982 77.5925 44.8861C77.4088 45.5107 77.2618 45.9699 77.1516 46.2639C76.9679 46.8885 76.7658 47.3845 76.5454 47.7519C76.4719 47.8988 76.3984 48.0274 76.3249 48.1377C76.2514 48.2846 76.178 48.3948 76.1045 48.4683C75.9943 48.5785 75.7922 48.7071 75.4983 48.8541C75.4248 48.9276 75.3146 48.9643 75.1676 48.9643C75.0206 49.0011 74.9104 49.0194 74.8369 49.0194C74.6165 49.0194 74.396 48.9827 74.1756 48.9092C74.1021 48.8357 73.9919 48.7439 73.8449 48.6337C73.698 48.5602 73.5877 48.4683 73.5143 48.3581C73.2938 48.1376 73.1101 47.8437 72.9632 47.4763C72.8897 47.2926 72.7978 47.0538 72.6876 46.7599C72.5774 46.4659 72.4855 46.1904 72.412 45.9332C72.3386 45.6393 72.2651 45.3086 72.1916 44.9412C72.1549 44.6105 72.1181 44.2982 72.0814 44.0043C72.0079 43.7104 71.9528 43.343 71.916 42.9021C71.916 42.4612 71.8977 42.0387 71.8609 41.6345C71.8242 41.2304 71.8058 40.7344 71.8058 40.1465V38.5483C71.8426 38.0339 71.8609 37.5196 71.8609 37.0052C71.8977 36.4541 71.9344 36.0316 71.9711 35.7377C71.9711 35.4437 71.9895 35.0763 72.0263 34.6354C72.063 34.1945 72.0997 33.8271 72.1365 33.5332C72.21 33.2025 72.2651 32.8351 72.3018 32.431C72.3386 31.9901 72.3937 31.6411 72.4671 31.3839C72.5406 30.943 72.5774 30.6858 72.5774 30.6123C72.6141 30.5021 72.6325 30.3919 72.6325 30.2817C72.5957 30.2817 72.5406 30.3735 72.4671 30.5572C72.3937 30.7042 72.3018 30.8879 72.1916 31.1083C72.0814 31.3655 71.9528 31.6962 71.8058 32.1003C71.6589 32.4677 71.5303 32.8168 71.42 33.1474C71.2731 33.4414 71.1077 33.8455 70.924 34.3599C70.7771 34.8742 70.6301 35.3335 70.4831 35.7377C70.2994 36.1418 70.1157 36.6011 69.932 37.1154C69.7851 37.6298 69.6565 38.0339 69.5463 38.3279C69.3993 38.6218 69.234 38.9525 69.0503 39.3199C68.9033 39.6873 68.7931 39.9812 68.7196 40.2016C68.6094 40.4221 68.4808 40.6609 68.3338 40.9181C68.2236 41.1385 68.1317 41.3039 68.0583 41.4141C67.9113 41.708 67.746 41.9468 67.5623 42.1305C67.2683 42.351 67.0846 42.4979 67.0111 42.5714C66.9377 42.6082 66.8458 42.6265 66.7356 42.6265C66.6621 42.6633 66.5886 42.7 66.5152 42.7368H65.964C65.8906 42.7 65.7803 42.6449 65.6334 42.5714C65.4864 42.5347 65.3578 42.4796 65.2476 42.4061L64.9169 42.0754C64.77 41.9285 64.6597 41.7999 64.5863 41.6897C64.5128 41.5427 64.4209 41.3774 64.3107 41.1936C64.2005 40.9732 64.1086 40.7711 64.0352 40.5874C63.8147 39.8526 63.6861 39.1545 63.6494 38.4932C63.5759 37.8319 63.5391 37.1338 63.5391 36.399ZM66.9009 39.2096L67.0111 39.0994C67.0479 39.0627 67.1214 38.9157 67.2316 38.6585C67.3786 38.3646 67.5439 38.0523 67.7276 37.7217C67.9113 37.3542 68.1134 36.895 68.3338 36.3439C68.591 35.756 68.8298 35.2049 69.0503 34.6905C69.234 34.1762 69.4544 33.6067 69.7116 32.9821C70.0055 32.3575 70.2443 31.8431 70.428 31.439C70.6117 31.0348 70.7587 30.7042 70.8689 30.447C70.9791 30.1531 71.0343 30.0061 71.0343 30.0061C71.0343 29.8224 70.9424 29.5836 70.7587 29.2896C70.575 28.9957 70.4097 28.7753 70.2627 28.6283C70.0423 28.4814 69.8953 28.3711 69.8218 28.2977C69.7851 28.2609 69.7483 28.2425 69.7116 28.2425C69.6014 28.2425 69.4728 28.316 69.3258 28.463L68.9951 28.7936C68.8482 28.9406 68.7196 29.0876 68.6094 29.2345C68.5359 29.4182 68.444 29.6203 68.3338 29.8408C68.2236 30.0245 68.1317 30.1898 68.0583 30.3368C67.9848 30.4837 67.9113 30.6674 67.8378 30.8879C67.7643 31.1083 67.6908 31.3104 67.6174 31.4941C67.5439 31.6778 67.4704 31.935 67.3969 32.2657C67.3602 32.5596 67.3234 32.8535 67.2867 33.1474C67.2132 33.3679 67.1581 33.6985 67.1214 34.1394C67.0846 34.5436 67.0479 34.911 67.0111 35.2417C66.9377 35.6091 66.8826 35.9948 66.8458 36.399C66.8458 36.8031 66.8274 37.1338 66.7907 37.391V38.7688L66.9009 39.2096Z" fill="#3C1663"/>
<path d="M84.0842 38.9231C84.0842 38.2414 84.1739 37.6673 84.3533 37.2009C84.5327 36.7165 84.7749 36.3308 85.0798 36.0438C85.3848 35.7388 85.7436 35.5235 86.1562 35.3979C86.5688 35.2544 87.0173 35.1827 87.5017 35.1827C87.9682 35.1827 88.4077 35.2544 88.8203 35.3979C89.2508 35.5235 89.6186 35.7388 89.9236 36.0438C90.2286 36.3308 90.4708 36.7165 90.6502 37.2009C90.8296 37.6673 90.9193 38.2414 90.9193 38.9231C90.9193 39.5869 90.8296 40.161 90.6502 40.6453C90.4708 41.1118 90.2286 41.4975 89.9236 41.8025C89.6186 42.1074 89.2508 42.3317 88.8203 42.4752C88.4077 42.6187 87.9682 42.6905 87.5017 42.6905C87.0173 42.6905 86.5688 42.6187 86.1562 42.4752C85.7436 42.3317 85.3848 42.1074 85.0798 41.8025C84.7749 41.4975 84.5327 41.1118 84.3533 40.6453C84.1739 40.161 84.0842 39.5869 84.0842 38.9231Z" fill="#3C1663"/>
</svg>
