<svg width="89" height="58" viewBox="0 0 89 58" fill="none" xmlns="http://www.w3.org/2000/svg">
<g clip-path="url(#clip0_916_6106)">
<path d="M43.094 2.8811C43.0416 2.8811 42.9893 2.8811 42.937 2.8811C42.8847 2.8811 42.8847 2.8811 42.8847 2.8811C39.7465 2.98571 36.4514 6.33308 36.6083 12.6617C36.713 16.6367 38.0205 22.1285 39.7465 27.8294C39.5374 28.1433 39.3281 28.5094 39.1712 28.8231C36.2946 33.7397 33.5748 38.3423 32.7381 42.631C32.3196 45.037 32.3719 47.6521 33.4179 49.8489C34.4117 51.9932 36.4514 53.7192 39.485 54.0331C42.7801 54.3469 45.6567 52.8824 47.8535 50.4242C48.7949 52.83 49.4748 54.4515 49.4748 54.4515C49.684 54.8698 50.1548 55.0791 50.6255 54.9222C51.0439 54.7129 51.2531 54.19 51.0439 53.7715C51.0439 53.7715 50.2593 51.8363 49.0564 48.8551C49.2133 48.6982 49.318 48.489 49.4748 48.2798C51.6715 44.6185 52.7175 39.8068 51.9853 35.2041C51.9331 34.7333 51.5146 34.4195 51.0439 34.4719C50.5732 34.5242 50.2071 34.9949 50.3117 35.4657C50.9393 39.3883 50.1024 43.6248 48.2719 46.8676C47.2258 44.2525 46.0751 41.1666 44.82 37.6623C43.6693 34.5764 42.5709 31.2814 41.6294 28.0387C44.14 23.5929 46.7028 18.8334 47.958 13.9169C48.7426 10.988 48.638 8.26827 47.7489 6.22846C46.912 4.24097 45.186 2.8811 43.094 2.8811ZM43.094 4.60709C44.506 4.60709 45.4998 5.39162 46.1798 6.90841C46.8074 8.47748 46.9643 10.8311 46.2844 13.4985C45.2383 17.6305 43.1462 21.71 40.9496 25.7373C39.485 20.664 38.439 15.9045 38.3343 12.6094C38.1774 6.90841 41.0541 4.65939 42.937 4.60709C42.9893 4.60709 43.0416 4.60709 43.094 4.60709ZM40.4265 30.0784C41.3156 32.8504 42.2571 35.6226 43.1985 38.2377C44.6107 42.265 45.9706 45.8216 47.1213 48.6458C45.1338 51.1564 42.5709 52.6209 39.6943 52.3071C37.1314 52.0456 35.7716 50.8425 34.987 49.1165C34.1501 47.3905 34.0456 45.0892 34.464 42.9449C35.1439 39.2837 37.6545 34.838 40.4265 30.0784Z" fill="#BAB2C1"/>
<path d="M77.547 3.07946C77.2332 3.07946 76.867 3.07946 76.5009 3.13176C74.0427 3.55018 72.1599 5.53769 71.0092 8.25742C69.8585 10.9248 69.3877 14.3246 69.8585 17.8288C70.643 24.0528 73.9381 28.4985 76.7625 32.6304C79.6391 36.7624 81.9927 40.5281 81.522 45.6014C80.9989 51.1456 77.4423 53.7083 74.6181 53.4469C71.9506 53.2376 70.3815 51.1456 70.0154 48.8443C69.9631 48.3734 69.5446 48.0597 69.0739 48.112C68.6032 48.1643 68.2371 48.635 68.3417 49.1057C68.7601 52.0347 70.9568 54.859 74.4612 55.1729C78.3838 55.5389 82.6203 51.9823 83.248 45.7583C83.7709 40.1097 81.0512 35.8209 78.2269 31.6889C75.3503 27.5047 72.3168 23.3205 71.5321 17.6196C71.1137 14.3768 71.5845 11.2387 72.5783 8.93735C73.5719 6.58373 75.0888 5.11927 76.7625 4.85774C79.0638 4.49163 80.1621 5.43308 80.9989 6.53143C81.7835 7.68209 82.045 8.88505 82.045 8.88505C82.1496 9.35577 82.568 9.66959 83.0387 9.56498C83.5095 9.46038 83.8233 8.98966 83.7187 8.51893C83.7187 8.51893 83.4049 7.00216 82.3589 5.53769C81.4696 4.28241 79.8483 3.02716 77.547 3.07946Z" fill="#D60665"/>
<path d="M77.547 3.07851V5.47572H77.5742L77.6015 5.47509L77.547 3.07851ZM76.5009 3.13081L76.1619 0.7577L76.1302 0.762231L76.0987 0.767601L76.5009 3.13081ZM71.0092 8.25647L73.2103 9.206L73.2169 9.19052L71.0092 8.25647ZM69.8585 17.8278L72.2369 17.5281L72.2356 17.5184L72.2344 17.5087L69.8585 17.8278ZM76.7625 32.6295L74.7833 33.9822L74.7892 33.9907L74.7951 33.9991L76.7625 32.6295ZM81.522 45.6005L83.9085 45.8257L83.9089 45.822L81.522 45.6005ZM74.6181 53.4459L74.8391 51.0589L74.8223 51.0574L74.8055 51.056L74.6181 53.4459ZM70.0154 48.8433L67.6329 49.108L67.6391 49.1642L67.648 49.2199L70.0154 48.8433ZM69.0739 48.1111L69.3387 50.4935L69.0739 48.1111ZM68.3417 49.1047L70.7148 48.7658L70.7017 48.6747L70.6819 48.5848L68.3417 49.1047ZM74.4612 55.1719L74.6839 52.785L74.675 52.7842L74.4612 55.1719ZM83.248 45.7574L85.6331 45.998L85.634 45.9882L85.635 45.9784L83.248 45.7574ZM78.2269 31.688L80.2059 30.3352L80.2023 30.33L78.2269 31.688ZM71.5321 17.6187L69.1547 17.9254L69.156 17.9355L69.1574 17.9454L71.5321 17.6187ZM72.5783 8.9364L74.779 9.88674L74.7829 9.87781L74.7867 9.86885L72.5783 8.9364ZM76.7625 4.8568L77.1325 7.22527L77.1391 7.22422L76.7625 4.8568ZM80.9989 6.53049L82.9796 5.18005L82.944 5.12789L82.9058 5.07767L80.9989 6.53049ZM82.0449 8.88411L79.7025 9.39334L79.7049 9.40413L82.0449 8.88411ZM83.7187 8.51798L81.3712 9.00367L81.3748 9.02087L81.3785 9.03801L83.7187 8.51798ZM82.3589 5.53674L80.4026 6.92237L80.4081 6.93007L82.3589 5.53674ZM77.547 0.681313C77.2544 0.681313 76.7222 0.677658 76.1619 0.7577L76.8399 5.50392C77.0119 5.47936 77.212 5.47572 77.547 5.47572V0.681313ZM76.0987 0.767601C72.5149 1.37761 70.1197 4.2064 68.8014 7.32242L73.2169 9.19052C74.1999 6.86708 75.5705 5.72087 76.9032 5.49403L76.0987 0.767601ZM68.808 7.30695C67.4691 10.4108 66.9597 14.2538 67.4827 18.147L72.2344 17.5087C71.8158 14.3932 72.2479 11.437 73.2103 9.20598L68.808 7.30695ZM67.4802 18.1276C68.3502 25.0305 72.0348 29.9613 74.7833 33.9822L78.7415 31.2767C75.8413 27.0339 72.9358 23.0733 72.2369 17.5281L67.4802 18.1276ZM74.7951 33.9991C77.6826 38.1469 79.5172 41.2593 79.135 45.379L83.9089 45.822C84.4682 39.795 81.5955 35.376 78.7299 31.2598L74.7951 33.9991ZM79.1353 45.3754C78.6964 50.0287 75.958 51.1625 74.8391 51.0589L74.397 55.8328C78.9268 56.2523 83.3016 52.2605 83.9085 45.8257L79.1353 45.3754ZM74.8055 51.056C73.5518 50.9578 72.6289 50.0129 72.3828 48.4666L67.648 49.2199C68.1342 52.2763 70.3495 55.5157 74.4306 55.8357L74.8055 51.056ZM72.3979 48.5785C72.1901 46.7073 70.5094 45.5396 68.8093 45.7285L69.3387 50.4935C68.58 50.5779 67.7362 50.0378 67.6329 49.108L72.3979 48.5785ZM68.8093 45.7285C67.0304 45.9262 65.5642 47.6566 66.0016 49.6248L70.6819 48.5848C70.8004 49.1182 70.6368 49.5867 70.4099 49.8893C70.188 50.1851 69.8214 50.44 69.3387 50.4935L68.8093 45.7285ZM65.9686 49.4438C66.5087 53.224 69.402 57.1256 74.2473 57.5595L74.675 52.7842C72.5118 52.5905 71.0117 50.8435 70.7148 48.7658L65.9686 49.4438ZM74.2383 57.5587C79.8763 58.0849 84.9181 53.088 85.6331 45.998L80.8629 45.517C80.3226 50.8748 76.8912 52.9911 74.6839 52.785L74.2383 57.5587ZM85.635 45.9784C86.2457 39.3825 83.0115 34.4397 80.2059 30.3352L76.2479 33.0408C79.091 37.2001 81.2963 40.835 80.861 45.5364L85.635 45.9784ZM80.2023 30.33C77.2577 26.047 74.6006 22.3316 73.907 17.2918L69.1574 17.9454C70.0329 24.3077 73.4428 28.9607 76.2515 33.0461L80.2023 30.33ZM73.9097 17.3118C73.5411 14.4559 73.9715 11.7567 74.779 9.88674L70.3774 7.98607C69.1974 10.7187 68.6863 14.2958 69.1547 17.9254L73.9097 17.3118ZM74.7867 9.86885C75.6263 7.8801 76.6316 7.30353 77.1325 7.22527L76.3923 2.48833C73.5459 2.9331 71.5176 5.28547 70.3699 8.00396L74.7867 9.86885ZM77.1391 7.22422C77.8947 7.10402 78.2292 7.22563 78.3747 7.29695C78.5574 7.3865 78.77 7.5605 79.0921 7.9833L82.9058 5.07767C82.391 4.40211 81.6361 3.55621 80.485 2.99197C79.2968 2.40952 77.9315 2.24346 76.3858 2.48937L77.1391 7.22422ZM79.0184 7.88091C79.268 8.24715 79.4482 8.64478 79.5662 8.96598C79.6235 9.12188 79.6619 9.24803 79.6842 9.32719C79.6952 9.36646 79.702 9.39322 79.705 9.4052C79.7065 9.41117 79.707 9.41336 79.7066 9.4115C79.7064 9.41057 79.7059 9.40861 79.7052 9.40559C79.7049 9.40409 79.7044 9.40232 79.7041 9.40028C79.7038 9.39925 79.7036 9.39817 79.7034 9.39701C79.7032 9.39644 79.703 9.39584 79.7029 9.39523C79.7029 9.39491 79.7028 9.39445 79.7028 9.39429C79.7026 9.39381 79.7025 9.39333 82.0449 8.88411C84.3875 8.37487 84.3874 8.37438 84.3873 8.37389C84.3873 8.37371 84.3871 8.37321 84.387 8.37287C84.3869 8.37218 84.3868 8.37148 84.3865 8.37075C84.3863 8.36931 84.3859 8.36777 84.3856 8.36617C84.3849 8.36297 84.3841 8.35945 84.3832 8.35563C84.3815 8.348 84.3795 8.33915 84.3772 8.32912C84.3725 8.30908 84.3666 8.2843 84.3594 8.25513C84.3451 8.19683 84.3253 8.12061 84.2995 8.02913C84.2482 7.84678 84.1722 7.60026 84.0662 7.3116C83.8574 6.74364 83.5144 5.96448 82.9796 5.18005L79.0184 7.88091ZM79.7049 9.40413C80.0501 10.9575 81.5954 12.3405 83.5588 11.9041L82.5188 7.22391C82.9621 7.1254 83.4263 7.22756 83.7841 7.47937C84.1244 7.71877 84.3156 8.05107 84.3851 8.36407L79.7049 9.40413ZM83.5588 11.9041C85.263 11.5255 86.4636 9.81928 86.0588 7.99796L81.3785 9.03801C81.183 8.15814 81.756 7.39341 82.5188 7.22391L83.5588 11.9041ZM83.7187 8.51798C86.0661 8.0323 86.066 8.03174 86.0659 8.03119C86.0659 8.03101 86.0658 8.03045 86.0657 8.03007C86.0655 8.0293 86.0654 8.02851 86.0652 8.02769C86.0648 8.02606 86.0645 8.02434 86.0641 8.02252C86.0634 8.01887 86.0625 8.01483 86.0616 8.01042C86.0597 8.0016 86.0574 7.99127 86.0547 7.97946C86.0495 7.95585 86.0428 7.92634 86.0344 7.89132C86.0176 7.82134 85.9942 7.72904 85.9634 7.61769C85.9018 7.39561 85.8093 7.09419 85.6777 6.74055C85.4177 6.0417 84.9884 5.09377 84.3095 4.14339L80.4081 6.93007C80.7754 7.44418 81.0259 7.98687 81.1844 8.41252C81.2619 8.62113 81.3132 8.79044 81.3433 8.89853C81.3581 8.95226 81.3675 8.98989 81.3719 9.00858C81.3742 9.01789 81.3752 9.0224 81.375 9.02172C81.3749 9.02138 81.3746 9.01974 81.374 9.01674C81.3736 9.01526 81.3733 9.01342 81.3728 9.01124C81.3725 9.01015 81.3723 9.00898 81.3721 9.00772C81.3719 9.00708 81.3718 9.00644 81.3716 9.00576C81.3716 9.00542 81.3715 9.0049 81.3715 9.00473C81.3713 9.00421 81.3712 9.00367 83.7187 8.51798ZM84.315 4.15111C83.0923 2.425 80.7875 0.607048 77.4925 0.681925L77.6015 5.47509C78.909 5.44538 79.847 6.13794 80.4026 6.92236L84.315 4.15111Z" fill="#D60665"/>
<path d="M14.0211 3.07946C13.7073 3.07946 13.3411 3.07946 12.975 3.13176C10.5168 3.55018 8.63392 5.53769 7.48326 8.25742C6.3326 10.9248 5.86188 14.3246 6.3326 17.8288C7.11714 24.0528 10.4122 28.4985 13.2365 32.6304C16.1132 36.7624 18.4668 40.5281 17.9961 45.6014C17.473 51.1456 13.9165 53.7083 11.0921 53.4469C8.4247 53.2376 6.85562 51.1456 6.48951 48.8443C6.4372 48.3734 6.01879 48.0597 5.54806 48.112C5.07734 48.1643 4.71122 48.635 4.81582 49.1057C5.23424 52.0347 7.43095 54.859 10.9352 55.1729C14.8579 55.5389 19.0944 51.9823 19.7221 45.7583C20.245 40.1097 17.5253 35.8209 14.701 31.6889C11.8244 27.5047 8.79083 23.3205 8.00628 17.6196C7.58786 14.3768 8.05859 11.2387 9.05234 8.93735C10.0461 6.58373 11.5629 5.11927 13.2365 4.85774C15.5379 4.49163 16.6362 5.43308 17.473 6.53143C18.2576 7.68209 18.5191 8.88505 18.5191 8.88505C18.6237 9.35577 19.0421 9.66959 19.5128 9.56498C19.9836 9.46038 20.2974 8.98966 20.1928 8.51893C20.1928 8.51893 19.879 7.00216 18.833 5.53769C17.9437 4.28241 16.3224 3.02716 14.0211 3.07946Z" fill="#7167DA"/>
<path d="M14.0211 3.07851V5.47572H14.0483L14.0755 5.47509L14.0211 3.07851ZM12.975 3.13081L12.636 0.7577L12.6043 0.762231L12.5728 0.767601L12.975 3.13081ZM7.48324 8.25647L9.68442 9.206L9.69098 9.19052L7.48324 8.25647ZM6.33258 17.8278L8.71097 17.5281L8.70974 17.5184L8.70844 17.5087L6.33258 17.8278ZM13.2365 32.6295L11.2575 33.9822L11.2633 33.9907L11.2692 33.9991L13.2365 32.6295ZM17.9961 45.6005L20.3826 45.8257L20.383 45.822L17.9961 45.6005ZM11.0921 53.4459L11.3131 51.0589L11.2963 51.0574L11.2796 51.056L11.0921 53.4459ZM6.48949 48.8433L4.10695 49.108L4.11318 49.1642L4.12206 49.2199L6.48949 48.8433ZM5.54804 48.1111L5.81276 50.4935H5.81277L5.54804 48.1111ZM4.8158 49.1047L7.18891 48.7658L7.17589 48.6747L7.15592 48.5848L4.8158 49.1047ZM10.9352 55.1719L11.158 52.785L11.149 52.7842L10.9352 55.1719ZM19.7221 45.7574L22.1072 45.998L22.1081 45.9882L22.1091 45.9784L19.7221 45.7574ZM14.701 31.688L16.68 30.3352L16.6764 30.33L14.701 31.688ZM8.00626 17.6187L5.62877 17.9254L5.63006 17.9355L5.63144 17.9454L8.00626 17.6187ZM9.05232 8.9364L11.2531 9.88674L11.2569 9.87781L11.2607 9.86885L9.05232 8.9364ZM13.2365 4.8568L13.6066 7.22527L13.6132 7.22422L13.2365 4.8568ZM17.473 6.53049L19.4537 5.18005L19.4181 5.12789L19.3799 5.07767L17.473 6.53049ZM18.519 8.88411L16.1766 9.39334L16.179 9.40413L18.519 8.88411ZM20.1928 8.51798L17.8453 9.00367L17.8489 9.02087L17.8526 9.03801L20.1928 8.51798ZM18.8329 5.53674L16.8767 6.92237L16.8822 6.93007L18.8329 5.53674ZM14.0211 0.681313C13.7285 0.681313 13.1963 0.677658 12.636 0.7577L13.314 5.50392C13.4859 5.47936 13.686 5.47572 14.0211 5.47572V0.681313ZM12.5728 0.767601C8.98897 1.37761 6.5938 4.2064 5.27549 7.32242L9.69098 9.19052C10.674 6.86708 12.0446 5.72087 13.3773 5.49403L12.5728 0.767601ZM5.2821 7.30695C3.94317 10.4108 3.43375 14.2538 3.95672 18.147L8.70844 17.5087C8.28996 14.3932 8.72199 11.437 9.68437 9.20598L5.2821 7.30695ZM3.9542 18.1276C4.8243 25.0305 8.50895 29.9613 11.2575 33.9822L15.2156 31.2767C12.3154 27.0339 9.40994 23.0733 8.71097 17.5281L3.9542 18.1276ZM11.2692 33.9991C14.1568 38.1469 15.9914 41.2593 15.6091 45.379L20.383 45.822C20.9422 39.795 18.0696 35.376 15.2039 31.2598L11.2692 33.9991ZM15.6095 45.3754C15.1705 50.0287 12.432 51.1625 11.3131 51.0589L10.8711 55.8328C15.4009 56.2523 19.7756 52.2605 20.3826 45.8257L15.6095 45.3754ZM11.2796 51.056C10.0258 50.9578 9.10291 50.0129 8.85692 48.4666L4.12206 49.2199C4.6083 52.2763 6.82353 55.5157 10.9047 55.8357L11.2796 51.056ZM8.87202 48.5785C8.6641 46.7073 6.98351 45.5396 5.28331 45.7285L5.81277 50.4935C5.05402 50.5779 4.21026 50.0378 4.10695 49.108L8.87202 48.5785ZM5.28331 45.7285C3.50447 45.9262 2.03829 47.6566 2.47569 49.6248L7.15592 48.5848C7.27444 49.1182 7.11092 49.5867 6.88394 49.8893C6.6621 50.1851 6.29542 50.44 5.81276 50.4935L5.28331 45.7285ZM2.44269 49.4438C2.98271 53.224 5.87602 57.1256 10.7214 57.5595L11.149 52.7842C8.98584 52.5905 7.48573 50.8435 7.18891 48.7658L2.44269 49.4438ZM10.7124 57.5587C16.3505 58.0849 21.3922 53.088 22.1072 45.998L17.337 45.517C16.7966 50.8748 13.3653 52.9911 11.158 52.785L10.7124 57.5587ZM22.1091 45.9784C22.7198 39.3825 19.4856 34.4397 16.68 30.3352L12.722 33.0408C15.565 37.2001 17.7704 40.835 17.3351 45.5364L22.1091 45.9784ZM16.6764 30.33C13.7318 26.047 11.0746 22.3316 10.3811 17.2918L5.63144 17.9454C6.50698 24.3077 9.91688 28.9607 12.7256 33.0461L16.6764 30.33ZM10.3838 17.3118C10.0152 14.4559 10.4456 11.7567 11.2531 9.88674L6.85153 7.98607C5.67151 10.7187 5.16043 14.2958 5.62877 17.9254L10.3838 17.3118ZM11.2607 9.86885C12.1004 7.8801 13.1057 7.30353 13.6066 7.22527L12.8664 2.48833C10.02 2.9331 7.9917 5.28547 6.84389 8.00396L11.2607 9.86885ZM13.6132 7.22422C14.3688 7.10402 14.7033 7.22563 14.8488 7.29695C15.0315 7.3865 15.2441 7.5605 15.5662 7.9833L19.3799 5.07767C18.8651 4.40211 18.1102 3.55621 16.9591 2.99197C15.7709 2.40952 14.4056 2.24346 12.8599 2.48937L13.6132 7.22422ZM15.4924 7.88091C15.7421 8.24715 15.9222 8.64478 16.0403 8.96598C16.0976 9.12188 16.136 9.24803 16.1583 9.32719C16.1693 9.36646 16.1761 9.39322 16.1791 9.4052C16.1806 9.41117 16.1811 9.41336 16.1806 9.4115C16.1804 9.41057 16.18 9.40861 16.1793 9.40559C16.179 9.40409 16.1786 9.40232 16.1781 9.40028C16.1779 9.39925 16.1777 9.39817 16.1774 9.39701C16.1773 9.39644 16.1771 9.39584 16.177 9.39523C16.1769 9.39491 16.1768 9.39445 16.1768 9.39429C16.1767 9.39381 16.1766 9.39333 18.519 8.88411C20.8616 8.37487 20.8615 8.37438 20.8613 8.37389C20.8613 8.37371 20.8612 8.37321 20.8611 8.37287C20.861 8.37218 20.8609 8.37148 20.8606 8.37075C20.8604 8.36931 20.86 8.36777 20.8597 8.36617C20.8589 8.36297 20.8582 8.35945 20.8573 8.35563C20.8556 8.348 20.8535 8.33915 20.8513 8.32912C20.8466 8.30908 20.8407 8.2843 20.8335 8.25513C20.8191 8.19683 20.7994 8.12061 20.7736 8.02913C20.7223 7.84678 20.6463 7.60026 20.5402 7.3116C20.3314 6.74364 19.9885 5.96448 19.4537 5.18005L15.4924 7.88091ZM16.179 9.40413C16.5242 10.9575 18.0694 12.3405 20.0329 11.9041L18.9928 7.22391C19.4362 7.1254 19.9004 7.22756 20.2582 7.47937C20.5985 7.71877 20.7897 8.05107 20.8592 8.36407L16.179 9.40413ZM20.0329 11.9041C21.737 11.5255 22.9377 9.81928 22.5329 7.99796L17.8526 9.03801C17.6571 8.15814 18.2301 7.39341 18.9928 7.22391L20.0329 11.9041ZM20.1928 8.51798C22.5402 8.0323 22.5401 8.03174 22.54 8.03119C22.54 8.03101 22.5399 8.03045 22.5397 8.03007C22.5396 8.0293 22.5395 8.02851 22.5393 8.02769C22.5389 8.02606 22.5385 8.02434 22.5382 8.02252C22.5375 8.01887 22.5366 8.01483 22.5357 8.01042C22.5337 8.0016 22.5315 7.99127 22.5288 7.97946C22.5236 7.95585 22.5168 7.92634 22.5085 7.89132C22.4917 7.82134 22.4683 7.72904 22.4375 7.61769C22.3759 7.39561 22.2834 7.09419 22.1518 6.74055C21.8918 6.0417 21.4624 5.09377 20.7835 4.14339L16.8822 6.93007C17.2495 7.44418 17.5 7.98687 17.6584 8.41252C17.736 8.62113 17.7873 8.79044 17.8174 8.89853C17.8322 8.95226 17.8416 8.98989 17.846 9.00858C17.8483 9.01789 17.8493 9.0224 17.8491 9.02172C17.849 9.02138 17.8487 9.01974 17.8481 9.01674C17.8477 9.01526 17.8473 9.01342 17.8469 9.01124C17.8466 9.01015 17.8464 9.00898 17.8461 9.00772C17.846 9.00708 17.8459 9.00644 17.8457 9.00576C17.8457 9.00542 17.8455 9.0049 17.8455 9.00473C17.8454 9.00421 17.8453 9.00367 20.1928 8.51798ZM20.7891 4.15111C19.5664 2.425 17.2616 0.607048 13.9666 0.681925L14.0755 5.47509C15.3831 5.44538 16.3211 6.13794 16.8767 6.92236L20.7891 4.15111Z" fill="#7167DA"/>
</g>
<defs>
<clipPath id="clip0_916_6106">
<rect width="88.5376" height="56.917" fill="white" transform="translate(-0.000976562 0.679688)"/>
</clipPath>
</defs>
</svg>
