<svg width="25" height="25" viewBox="0 0 25 25" fill="none" xmlns="http://www.w3.org/2000/svg">
<path d="M11.5161 8.41009C11.9691 9.07409 12.1956 9.86609 12.1956 10.7925C12.1956 11.7445 11.9691 12.5125 11.5101 13.0917C11.252 13.4133 10.8755 13.7109 10.3775 13.9781C11.1335 14.2693 11.7036 14.7285 12.0921 15.3557C12.4761 15.9829 12.6696 16.7461 12.6696 17.6421C12.6696 18.5669 12.4491 19.3973 12.0081 20.1301C11.7291 20.6149 11.378 21.0261 10.958 21.3573C10.4616 21.7493 9.88895 22.0172 9.28237 22.1413C8.63732 22.2821 7.93976 22.3509 7.1867 22.3509H0.503662V6.74609H7.67124C9.48039 6.77489 10.76 7.32849 11.5161 8.41009ZM3.4604 9.45649V12.8997H7.06669C7.70875 12.8997 8.23229 12.7701 8.63582 12.5125C9.03635 12.2549 9.23887 11.7973 9.23887 11.1429C9.23887 10.4133 8.97335 9.93489 8.44231 9.69969C7.98327 9.53809 7.39822 9.45649 6.68866 9.45649H3.4604ZM3.4604 15.4821V19.6437H7.06219C7.70575 19.6437 8.20829 19.5525 8.56532 19.3685C9.21637 19.0261 9.54039 18.3797 9.54039 17.4197C9.54039 16.6053 9.22687 16.0485 8.59682 15.7445C8.24279 15.5765 7.74775 15.4869 7.1117 15.4821H3.4604ZM21.6359 11.0469C22.4024 11.4069 23.0325 11.9765 23.529 12.7541C23.9821 13.4405 24.2731 14.2357 24.4051 15.1397C24.4831 15.6677 24.5131 16.4341 24.5011 17.4309H16.51C16.558 18.5877 16.936 19.4005 17.6591 19.8645C18.0971 20.1541 18.6221 20.2997 19.2417 20.2997C19.8927 20.2997 20.4238 20.1237 20.8318 19.7717C21.0568 19.5797 21.2533 19.3157 21.4229 18.9781H24.3511C24.2731 19.6613 23.9176 20.3573 23.289 21.0645C22.3064 22.1845 20.9308 22.7461 19.1622 22.7461C17.7011 22.7461 16.414 22.2741 15.2994 21.3269C14.1803 20.3813 13.6237 18.8405 13.6237 16.7077C13.6237 14.7077 14.1278 13.1733 15.1343 12.1061C16.1439 11.0421 17.449 10.5061 19.0557 10.5061C20.0127 10.5045 20.8723 10.6853 21.6359 11.0469ZM17.347 13.6533C16.942 14.0933 16.687 14.6885 16.582 15.4389H21.5249C21.4724 14.6373 21.2158 14.0309 20.7613 13.6133C20.3008 13.1989 19.7352 12.9925 19.0587 12.9925C18.3251 12.9941 17.7521 13.2149 17.347 13.6533ZM15.8409 9.41649H22.1969V7.47409H15.8409V9.41649Z" fill="#1976D2" stroke="#1976D2" stroke-width="0.5"/>
</svg>
