<svg width="36" height="37" viewBox="0 0 36 37" fill="none" xmlns="http://www.w3.org/2000/svg">
<path d="M30.389 17.395C32.9245 10.7747 31.3621 5.70891 30.4663 4.25582C30.1117 3.67991 29.4291 3.51994 28.7999 3.71724C27.1415 4.23982 22.6649 7.89788 20.6866 13.017" fill="#FFC022"/>
<path d="M5.60905 17.395C3.07348 10.7747 4.63588 5.70891 5.53173 4.25582C5.88634 3.67991 6.56889 3.51994 7.19812 3.71724C8.85651 4.23982 13.3331 7.89788 15.3114 13.017" fill="#FFC022"/>
<path d="M31.3595 20.5249C30.8796 13.5981 26.115 8.6709 17.999 8.6709C9.88306 8.6709 5.11852 13.5981 4.6386 20.5249C4.35865 24.5616 5.98504 27.993 9.19517 30.1793C9.19517 30.1793 12.4506 32.8135 17.999 32.8829C23.5474 32.8135 26.8029 30.1793 26.8029 30.1793C30.0104 27.993 31.6394 24.5616 31.3595 20.5249Z" fill="#FFC022"/>
<path opacity="0.47" d="M15.3648 13.662C15.6661 13.918 16.2766 13.8806 16.6312 13.47C17.0605 12.9714 17.5084 11.2917 17.2285 8.69482C15.9833 8.74015 14.8049 8.91879 13.7064 9.22007C14.5942 10.6758 14.8075 13.1874 15.3648 13.662Z" fill="#FF7043"/>
<path opacity="0.47" d="M20.6332 13.662C20.332 13.918 19.7214 13.8806 19.3668 13.47C18.9375 12.9714 18.4896 11.2917 18.7695 8.69482C20.0147 8.74015 21.1931 8.91879 22.2916 9.22007C21.4038 10.6758 21.1905 13.1874 20.6332 13.662Z" fill="#FF7043"/>
<path d="M2.55893 18.9414L6.58492 20.9251" stroke="#9E9E9E" stroke-width="1.4801" stroke-miterlimit="10" stroke-linecap="round"/>
<path d="M1.99902 22.1968L6.83822 23.0366" stroke="#9E9E9E" stroke-width="1.4801" stroke-miterlimit="10" stroke-linecap="round"/>
<path d="M33.4391 18.9414L29.4131 20.9251" stroke="#9E9E9E" stroke-width="1.4801" stroke-miterlimit="10" stroke-linecap="round"/>
<path d="M33.999 22.1968L29.1598 23.0366" stroke="#9E9E9E" stroke-width="1.4801" stroke-miterlimit="10" stroke-linecap="round"/>
<path d="M9.6164 20.3919C9.53641 20.3919 9.45642 20.3759 9.3791 20.3412C9.08048 20.2106 8.94184 19.8613 9.07515 19.5627C9.16847 19.3494 10.035 17.4697 11.5681 17.4697C13.0825 17.4697 14.013 19.2668 14.1143 19.4721C14.2583 19.7653 14.1383 20.12 13.845 20.2639C13.5517 20.4079 13.2665 20.2319 13.0532 19.9946C12.7945 19.7067 12.232 19.0615 11.5681 19.0615C10.9015 19.0615 10.3469 19.752 10.1603 20.0346C10.0243 20.2399 9.84302 20.3919 9.6164 20.3919Z" fill="black"/>
<path d="M26.3816 20.3919C26.4616 20.3919 26.5416 20.3759 26.6189 20.3412C26.9176 20.2106 27.0562 19.8613 26.9229 19.5627C26.8296 19.3494 25.963 17.4697 24.43 17.4697C22.9156 17.4697 21.985 19.2668 21.8837 19.4721C21.7398 19.7653 21.8597 20.12 22.153 20.2639C22.4463 20.4079 22.7316 20.2319 22.9449 19.9946C23.2035 19.7067 23.7661 19.0615 24.43 19.0615C25.0965 19.0615 25.6511 19.752 25.8377 20.0346C25.9737 20.2399 26.155 20.3919 26.3816 20.3919Z" fill="black"/>
<path d="M15.8554 22.1838C15.842 21.4213 16.9379 21.0533 17.975 21.0374C19.0122 21.0187 20.1267 21.3573 20.14 22.1198C20.1533 22.8824 18.8442 23.8902 18.0203 23.8902C17.1965 23.8902 15.8687 22.9464 15.8554 22.1838Z" fill="black"/>
<path d="M24.9472 25.7557C24.5099 25.3104 23.8034 25.1798 23.1475 25.4251C22.4249 25.697 20.2146 26.5262 19.0895 25.8117C18.1003 25.1851 18.1536 23.9106 18.1536 23.9106H17.735C17.735 23.9106 17.8017 25.2997 16.9058 25.8117C15.746 26.4782 13.5704 25.6943 12.8478 25.4251C12.1946 25.1798 11.4881 25.3104 11.0481 25.7557C10.6349 26.1743 10.5629 26.7742 10.8562 27.3234C11.4747 28.4832 13.677 30.4456 17.9963 30.4616C22.3156 30.4482 24.5179 28.4832 25.1365 27.3234C25.4324 26.7742 25.3604 26.1743 24.9472 25.7557Z" fill="white"/>
<path d="M25.3525 25.335C24.8886 24.8311 24.142 24.6844 23.4488 24.9617C22.6836 25.2683 20.3453 26.2095 19.1535 25.399C18.1057 24.6898 18.5323 23.5859 18.5323 23.5859H17.4658C17.4658 23.5859 17.7911 24.8177 16.8446 25.399C15.6154 26.1535 13.3145 25.2657 12.5493 24.9617C11.8561 24.6844 11.1095 24.8311 10.6456 25.335C10.2083 25.8096 10.131 26.4895 10.443 27.1107C11.0989 28.4225 13.4291 30.6461 17.999 30.6621C22.5716 30.6461 24.8992 28.4225 25.5551 27.1107C25.8671 26.4895 25.7897 25.8096 25.3525 25.335ZM24.8406 26.7534C24.3047 27.8226 22.1877 29.8489 17.999 29.8622C13.8104 29.8462 11.6934 27.8226 11.1575 26.7534C10.9949 26.4255 11.0215 26.1055 11.2322 25.8762C11.3841 25.7109 11.6054 25.6229 11.8454 25.6229C11.976 25.6229 12.1147 25.6496 12.2507 25.7029C13.7464 26.3028 15.8981 26.9907 17.2872 26.0655C17.6071 25.8522 17.8311 25.6763 17.991 25.5323C17.9937 25.5349 17.9964 25.5376 17.999 25.5376C18.0017 25.5349 18.0044 25.5323 18.007 25.5323C18.167 25.6763 18.3936 25.8522 18.7109 26.0655C20.1 26.9907 22.2517 26.3028 23.7474 25.7029C23.8834 25.6496 24.0194 25.6229 24.1527 25.6229C24.3926 25.6229 24.6139 25.7109 24.7659 25.8762C24.9765 26.1082 25.0032 26.4255 24.8406 26.7534Z" fill="black"/>
<path d="M12.3813 25.5322V28.8197" stroke="black" stroke-width="0.986735" stroke-miterlimit="10"/>
<path d="M15.1915 26.0547V29.6941" stroke="black" stroke-width="0.986735" stroke-miterlimit="10"/>
<path d="M17.9991 24.8018V30.1102" stroke="black" stroke-width="0.986735" stroke-miterlimit="10"/>
<path d="M23.6168 25.2256V28.513" stroke="black" stroke-width="0.986735" stroke-miterlimit="10"/>
<path d="M20.8065 25.7827V29.5634" stroke="black" stroke-width="0.986735" stroke-miterlimit="10"/>
<path d="M27.3335 21.669C27.2668 21.5197 27.3868 21.3544 27.5521 21.373C28.5412 21.4797 31.2395 21.9649 32.8845 24.1406C33.823 25.3804 34.143 27.6387 32.7539 28.6731C31.0582 29.9343 29.0238 28.7665 28.7146 27.244C28.4799 26.0896 28.3466 24.9778 28.1466 24.1806C27.816 22.8581 27.5094 22.0662 27.3335 21.669Z" fill="#28B3F2"/>
<path d="M33.1698 27.844C31.4528 29.0731 29.6717 28.1213 29.2825 26.4256C29.2825 26.4256 28.8426 24.4232 28.5493 23.57C28.0827 22.2023 27.3708 21.4424 27.3708 21.4424C27.3708 21.4424 27.2748 21.5384 27.3335 21.6717C27.5094 22.0716 27.8161 22.8608 28.1467 24.1833C28.3466 24.9805 28.4799 26.0923 28.7146 27.2467C29.0239 28.7718 31.0582 29.937 32.7539 28.6758C33.2285 28.3239 33.4978 27.828 33.6178 27.2787C33.5111 27.5054 33.3645 27.7027 33.1698 27.844Z" fill="#0277BD"/>
<path d="M31.1994 23.975C31.7007 23.7244 32.6445 24.191 33.0818 25.4388C33.5297 26.7266 32.6552 27.5211 31.7753 26.5319C31.1328 25.8147 30.6902 24.231 31.1994 23.975Z" fill="#81D4FA"/>
<path d="M8.66458 21.669C8.73123 21.5197 8.61125 21.3544 8.44595 21.373C7.45678 21.4797 4.75856 21.9649 3.1135 24.1406C2.17499 25.3804 1.85504 27.6387 3.24415 28.6731C4.93986 29.9343 6.97419 28.7665 7.28347 27.244C7.5181 26.0896 7.65141 24.9778 7.85138 24.1806C8.18199 22.8581 8.48861 22.0662 8.66458 21.669Z" fill="#28B3F2"/>
<path d="M2.82824 27.844C4.54528 29.0731 6.32632 28.1213 6.71559 26.4256C6.71559 26.4256 7.15551 24.4232 7.4488 23.57C7.91539 22.2023 8.62727 21.4424 8.62727 21.4424C8.62727 21.4424 8.72325 21.5384 8.6646 21.6717C8.48863 22.0716 8.18201 22.8608 7.8514 24.1833C7.65143 24.9805 7.51812 26.0923 7.28349 27.2467C6.97421 28.7718 4.93988 29.937 3.24417 28.6758C2.76958 28.3239 2.50029 27.828 2.38031 27.2787C2.48696 27.5054 2.6336 27.7027 2.82824 27.844Z" fill="#0277BD"/>
<path d="M4.79856 23.975C4.29731 23.7244 3.35347 24.191 2.91621 25.4388C2.46828 26.7266 3.3428 27.5211 4.22266 26.5319C4.86522 25.8147 5.30781 24.231 4.79856 23.975Z" fill="#81D4FA"/>
<path d="M25.5071 11.3188C25.0965 10.9749 25.1072 10.4203 25.3471 9.94303C25.923 8.79389 27.3015 7.60209 27.7894 7.21549C28.5892 6.58093 29.2078 6.36763 29.4451 7.38879C29.885 9.27648 29.8504 11.8387 29.3785 13.2518C29.2131 13.7504 28.7012 14.0144 28.3066 13.6704L25.5071 11.3188Z" fill="#FFD1D1"/>
<path d="M10.4909 11.3188C10.9015 10.9749 10.8909 10.4203 10.6509 9.94303C10.075 8.79389 8.69657 7.60209 8.20865 7.21549C7.40878 6.58093 6.79022 6.36763 6.55293 7.38879C6.113 9.27648 6.14766 11.8387 6.61958 13.2518C6.78489 13.7504 7.2968 14.0144 7.6914 13.6704L10.4909 11.3188Z" fill="#FFD1D1"/>
</svg>
