<svg width="28" height="34" viewBox="0 0 28 34" fill="none" xmlns="http://www.w3.org/2000/svg">
<path d="M17.9905 13.237H10.0095L2.40857 0.974194H10.3895L17.9905 13.237Z" fill="#006AC6"/>
<path d="M15.2289 13.2372H11.8338L4.23287 0.94902H7.62795L15.2289 13.2372Z" fill="url(#paint0_linear_2355_6272)"/>
<path d="M12.8724 13.2372H10.0094L2.40849 0.94902H5.24617L12.8724 13.2372Z" fill="#A8202B"/>
<g opacity="0.2">
<path d="M3.77674 1.73429L10.4402 12.4769H16.6223L9.95883 1.73429H3.77674ZM2.40857 0.974194H10.3895L17.9905 13.237H10.0348L2.40857 0.974194Z" fill="#424242"/>
</g>
<path d="M9.47746 10.146H18.5986C19.7134 10.146 20.6255 11.0581 20.6255 12.1729V16.2268C20.6255 16.7842 20.1694 17.2402 19.612 17.2402C19.0546 17.2402 18.3452 16.7842 18.3452 16.2268V13.6931C18.3452 13.4144 18.1172 13.1864 17.8385 13.1864H10.2375C9.95885 13.1864 9.73082 13.4144 9.73082 13.6931V16.2014C9.73082 16.7082 9.14808 17.1389 8.66669 17.2149C8.59068 17.2149 8.54001 17.2402 8.464 17.2402C7.9066 17.2402 7.45054 16.7842 7.45054 16.2268V12.1729C7.45054 11.0581 8.36265 10.146 9.47746 10.146Z" fill="#FDD835"/>
<g opacity="0.2">
<path d="M9.47746 10.6528C8.64135 10.6528 7.95727 11.3368 7.95727 12.1729V16.2268C7.95727 16.5055 8.1853 16.7335 8.464 16.7335C8.48933 16.7335 8.54001 16.7335 8.56534 16.7335C8.86938 16.6828 9.22409 16.4041 9.22409 16.2014V13.6931C9.22409 13.1357 9.68015 12.6797 10.2375 12.6797H17.8385C18.3959 12.6797 18.8519 13.1357 18.8519 13.6931V16.2268C18.8519 16.4548 19.2573 16.7335 19.612 16.7335C19.8907 16.7335 20.1188 16.5055 20.1188 16.2268V12.1729C20.1188 11.3368 19.4347 10.6528 18.5986 10.6528H9.47746ZM9.47746 10.146H18.5986C19.7134 10.146 20.6255 11.0581 20.6255 12.1729V16.2268C20.6255 16.7842 20.1694 17.2402 19.612 17.2402C19.0546 17.2402 18.3452 16.7842 18.3452 16.2268V13.6931C18.3452 13.4144 18.1172 13.1864 17.8385 13.1864H10.2375C9.95885 13.1864 9.73082 13.4144 9.73082 13.6931V16.2014C9.73082 16.7082 9.14808 17.1389 8.66669 17.2149C8.59068 17.2149 8.54001 17.2402 8.464 17.2402C7.9066 17.2402 7.45054 16.7842 7.45054 16.2268V12.1729C7.45054 11.0581 8.36265 10.146 9.47746 10.146Z" fill="#424242"/>
</g>
<path d="M10.0095 13.237H17.9905L25.5914 0.974194H17.6105L10.0095 13.237Z" fill="#2A9CFF"/>
<path d="M11.7577 13.2372H15.1528L22.7537 0.94902H19.3586L11.7577 13.2372Z" fill="url(#paint1_linear_2355_6272)"/>
<path d="M10.0348 13.2372H12.8725L20.4734 0.94902H17.6358L10.0348 13.2372Z" fill="#3C1663"/>
<g opacity="0.2">
<path d="M18.0412 1.73429L11.3777 12.4769H17.5598L24.2233 1.73429H18.0412ZM17.6105 0.974194H25.5914L17.9905 13.237H10.0349C10.0095 13.237 17.6105 0.974194 17.6105 0.974194Z" fill="#424242"/>
</g>
<path d="M14.038 32.949C8.72067 32.949 4.41014 28.6385 4.41014 23.3212C4.41014 18.0039 8.72067 13.6933 14.038 13.6933C19.3553 13.6933 23.6658 18.0039 23.6658 23.3212C23.6658 28.6385 19.3553 32.949 14.038 32.949Z" fill="url(#paint2_radial_2355_6272)"/>
<path opacity="0.2" d="M14.038 14.4534C9.14806 14.4534 5.17023 18.4312 5.17023 23.3212C5.17023 28.2111 9.14806 32.1889 14.038 32.1889C18.9279 32.1889 22.9057 28.2111 22.9057 23.3212C22.9057 18.4312 18.9279 14.4534 14.038 14.4534ZM14.038 13.6933C19.3586 13.6933 23.6658 18.0005 23.6658 23.3212C23.6658 28.6418 19.3586 32.949 14.038 32.949C8.71734 32.949 4.41014 28.6418 4.41014 23.3212C4.41014 18.0005 8.71734 13.6933 14.038 13.6933Z" fill="#424242"/>
<path d="M13.4806 16.0242L11.7324 19.5459C11.631 19.7233 11.4537 19.85 11.2763 19.8753L7.37449 20.4327C7.32382 20.4327 7.27314 20.458 7.22247 20.4834C8.23593 17.9244 10.6682 16.0748 13.5566 15.8721C13.5312 15.9481 13.5059 15.9735 13.4806 16.0242Z" fill="url(#paint3_radial_2355_6272)"/>
<path d="M20.7014 20.4581L16.7996 19.9007C16.5969 19.8754 16.4196 19.7487 16.3436 19.5714L14.5954 16.0496C14.57 15.9989 14.5447 15.9736 14.5193 15.9229C17.4077 16.1003 19.84 17.9498 20.8535 20.5088C20.8028 20.4835 20.7521 20.4581 20.7014 20.4581Z" fill="url(#paint4_radial_2355_6272)"/>
<path d="M18.6999 28.6924L18.0412 24.816C18.0158 24.6133 18.0665 24.4106 18.2185 24.2586L21.0309 21.5222C21.0815 21.4716 21.1069 21.4462 21.1322 21.3956C21.2842 21.9783 21.3602 22.5864 21.3602 23.2198C21.3602 25.5001 20.3214 27.527 18.6999 28.8698C18.7252 28.8191 18.7252 28.7431 18.6999 28.6924Z" fill="url(#paint5_radial_2355_6272)"/>
<path d="M6.94375 21.3956C6.96909 21.4462 6.99442 21.4969 7.0451 21.5222L9.85744 24.2586C10.0095 24.4106 10.0601 24.6133 10.0348 24.816L9.37605 28.6924C9.37605 28.7431 9.35071 28.8191 9.37605 28.8698C7.75451 27.527 6.71572 25.5001 6.71572 23.2198C6.71572 22.5864 6.79173 21.9783 6.94375 21.3956Z" fill="url(#paint6_radial_2355_6272)"/>
<path d="M10.2628 29.3513L13.7339 27.5271C13.9113 27.4257 14.1393 27.4257 14.3166 27.5271L17.7877 29.3513C17.8384 29.3767 17.9144 29.402 17.9651 29.402C16.8249 30.1367 15.4821 30.5421 14.0126 30.5421C12.5431 30.5421 11.2003 30.1114 10.0601 29.402C10.1615 29.3767 10.2121 29.3767 10.2628 29.3513Z" fill="url(#paint7_radial_2355_6272)"/>
<path opacity="0.2" d="M12.1883 16.9108C10.7441 17.3415 9.47729 18.2537 8.61585 19.5205L11.0988 19.1658L12.1883 16.9108ZM13.5565 15.8974C13.5311 15.948 13.5058 15.9734 13.4804 16.024L11.7322 19.5458C11.6309 19.7232 11.4535 19.8498 11.2762 19.8752L7.37437 20.4326C7.32369 20.4326 7.27302 20.4579 7.22235 20.4833C8.26114 17.9496 10.6934 16.0747 13.5565 15.8974Z" fill="#424242"/>
<path opacity="0.2" d="M15.8874 16.9108L17.0022 19.1404L19.4598 19.5205C18.5984 18.2537 17.3316 17.3415 15.8874 16.9108ZM14.5192 15.8974C17.4076 16.0747 19.8399 17.9243 20.8533 20.4833C20.8027 20.4579 20.752 20.4326 20.7013 20.4326L16.7995 19.8752C16.5968 19.8498 16.4195 19.7232 16.3434 19.5458L14.5952 16.024C14.5699 15.9734 14.5446 15.948 14.5192 15.8974Z" fill="#424242"/>
<path opacity="0.2" d="M20.6 22.9918L18.8011 24.74L19.2318 27.223C20.1186 26.1082 20.6 24.6893 20.6 23.2198C20.6 23.1438 20.6 23.0678 20.6 22.9918ZM21.1321 21.3956C21.2841 21.9783 21.3601 22.5864 21.3601 23.2198C21.3601 25.5001 20.3213 27.527 18.6998 28.8699C18.6998 28.8192 18.6998 28.7432 18.6998 28.6925L18.041 24.816C18.0157 24.6133 18.0664 24.4106 18.2184 24.2586L21.0307 21.5223C21.0814 21.4716 21.1067 21.4209 21.1321 21.3956Z" fill="#424242"/>
<path opacity="0.2" d="M7.47569 22.9918V23.2198C7.47569 24.6893 7.95708 26.1082 8.84386 27.2483L9.27458 24.7653L7.47569 22.9918ZM6.94363 21.3956C6.96896 21.4463 6.9943 21.4969 7.04497 21.5223L9.85732 24.2586C10.0093 24.4106 10.06 24.6133 10.0347 24.816L9.37593 28.6925C9.37593 28.7432 9.35059 28.8192 9.37593 28.8699C7.75439 27.527 6.7156 25.5001 6.7156 23.2198C6.7156 22.5864 6.79161 21.9783 6.94363 21.3956Z" fill="#424242"/>
<path opacity="0.2" d="M14.0378 28.211L11.7829 29.4018C12.4923 29.6551 13.2524 29.8072 14.0378 29.8072C14.8232 29.8072 15.558 29.6805 16.2928 29.4018L14.0378 28.211ZM14.0378 27.4255C14.1392 27.4255 14.2405 27.4509 14.3165 27.5015L17.7876 29.3258C17.8383 29.3511 17.9143 29.3764 17.965 29.3764C16.8248 30.1112 15.482 30.5166 14.0125 30.5166C12.543 30.5166 11.2001 30.0859 10.06 29.3764C10.1107 29.3764 10.1613 29.3511 10.2374 29.3258L13.7084 27.5015C13.8351 27.4509 13.9365 27.4255 14.0378 27.4255Z" fill="#424242"/>
<defs>
<linearGradient id="paint0_linear_2355_6272" x1="7.12882" y1="3.02666" x2="13.938" y2="13.668" gradientUnits="userSpaceOnUse">
<stop offset="0.461" stop-color="#EEEEEE"/>
<stop offset="1" stop-color="#BDBDBD"/>
</linearGradient>
<linearGradient id="paint1_linear_2355_6272" x1="20.5725" y1="1.90965" x2="13.7634" y2="12.5509" gradientUnits="userSpaceOnUse">
<stop offset="0.2104" stop-color="#FAFAFA"/>
<stop offset="0.7737" stop-color="#E0E0E0"/>
</linearGradient>
<radialGradient id="paint2_radial_2355_6272" cx="0" cy="0" r="1" gradientUnits="userSpaceOnUse" gradientTransform="translate(19.3586 16.1003) rotate(180) scale(18.3884)">
<stop offset="0.2972" stop-color="#FFEB3B"/>
<stop offset="0.9544" stop-color="#FBC02D"/>
</radialGradient>
<radialGradient id="paint3_radial_2355_6272" cx="0" cy="0" r="1" gradientUnits="userSpaceOnUse" gradientTransform="translate(17.58 17.0642) rotate(180) scale(13.7992 13.7992)">
<stop offset="0.0977" stop-color="#FDD835"/>
<stop offset="0.9508" stop-color="#F9A825"/>
</radialGradient>
<radialGradient id="paint4_radial_2355_6272" cx="0" cy="0" r="1" gradientUnits="userSpaceOnUse" gradientTransform="translate(17.58 17.0643) rotate(180) scale(13.7992 13.7992)">
<stop offset="0.0977" stop-color="#FDD835"/>
<stop offset="0.9508" stop-color="#F9A825"/>
</radialGradient>
<radialGradient id="paint5_radial_2355_6272" cx="0" cy="0" r="1" gradientUnits="userSpaceOnUse" gradientTransform="translate(17.58 17.0643) rotate(180) scale(13.7992 13.7992)">
<stop offset="0.0977" stop-color="#FDD835"/>
<stop offset="0.9508" stop-color="#F9A825"/>
</radialGradient>
<radialGradient id="paint6_radial_2355_6272" cx="0" cy="0" r="1" gradientUnits="userSpaceOnUse" gradientTransform="translate(17.58 17.0643) rotate(180) scale(13.7992)">
<stop offset="0.0977" stop-color="#FDD835"/>
<stop offset="0.9508" stop-color="#F9A825"/>
</radialGradient>
<radialGradient id="paint7_radial_2355_6272" cx="0" cy="0" r="1" gradientUnits="userSpaceOnUse" gradientTransform="translate(17.58 17.0644) rotate(180) scale(13.7992 13.7992)">
<stop offset="0.0977" stop-color="#FDD835"/>
<stop offset="0.9508" stop-color="#F9A825"/>
</radialGradient>
</defs>
</svg>
