<svg width="16" height="15" viewBox="0 0 16 15" fill="none" xmlns="http://www.w3.org/2000/svg">
<path d="M8.08831 14.2248C12.151 14.2248 15.2165 11.1594 15.2165 7.09667C15.2165 3.07091 12.151 0.00543307 8.08831 0.00543307C4.02562 0.00543307 0.960142 3.07091 0.960142 7.09667C0.960142 11.1594 4.02562 14.2248 8.08831 14.2248ZM8.08831 13.1168C4.63503 13.1168 2.12355 10.6053 2.12355 7.09667C2.12355 3.62492 4.61656 1.09497 8.08831 1.09497C11.5601 1.09497 14.0531 3.62492 14.0531 7.09667C14.0531 10.6053 11.5416 13.1168 8.08831 13.1168ZM8.16218 11.658C10.3597 11.658 12.0217 10.2914 12.3172 8.1308H10.7475C10.489 9.51581 9.49178 10.3283 8.14371 10.3283C6.46323 10.3283 5.22596 8.94334 5.22596 7.0228C5.22596 5.13919 6.46323 3.75418 8.16218 3.75418C9.73185 3.75418 10.6183 4.82525 10.3782 6.33953H11.8925C12.2803 4.16045 10.5998 2.42458 8.16218 2.42458C5.5399 2.42458 3.69322 4.34512 3.69322 7.0228C3.69322 9.71894 5.55836 11.658 8.16218 11.658Z" fill="#8940D5"/>
</svg>
