<svg width="32" height="33" viewBox="0 0 32 33" fill="none" xmlns="http://www.w3.org/2000/svg">
<path d="M5.92689 17.1133C5.92689 17.1133 8.77074 20.2496 16.0797 20.2496C23.3887 20.2496 26.1262 17.1133 26.1262 17.1133V10.2828H5.92689V17.1133Z" fill="url(#paint0_linear_2355_3687)"/>
<path opacity="0.4" d="M5.92689 17.1133C5.92689 17.1133 8.77074 20.2496 16.0797 20.2496C23.3887 20.2496 26.1262 17.1133 26.1262 17.1133V10.2828H5.92689V17.1133Z" fill="url(#paint1_linear_2355_3687)"/>
<path d="M16.2924 15.4657L31.9734 10.3095L32 9.27297L0.584717 9.21982V10.2829L16.2924 15.4657Z" fill="#353535"/>
<path opacity="0.5" d="M16.2924 15.4657L31.9734 10.3095L32 9.27297L0.584717 9.21982V10.2829L16.2924 15.4657Z" fill="url(#paint2_linear_2355_3687)"/>
<path d="M16.2923 14.4289L31.9734 9.27279L16.2923 5.10004L0.558105 9.21964L16.2923 14.4289Z" fill="url(#paint3_linear_2355_3687)"/>
<path d="M1.0897 8.95377H15.8937C16.1595 8.95377 16.3987 9.13981 16.4252 9.37902C16.4784 9.69795 16.2126 9.99031 15.9203 9.99031H2.15282C1.86046 9.99031 1.62126 10.2295 1.62126 10.5219V25.1398C1.62126 25.4056 1.43521 25.6448 1.19601 25.698C0.87707 25.7511 0.584713 25.4853 0.584713 25.193V9.48533C0.558135 9.19297 0.797338 8.95377 1.0897 8.95377Z" fill="#FFB300"/>
<path d="M1.08972 25.6982C1.38207 25.6982 1.62128 25.459 1.62128 25.1666V9.48554C1.62128 9.19318 1.38207 8.95398 1.08972 8.95398C0.797357 8.95398 0.558154 9.19318 0.558154 9.48554V25.1932C0.558154 25.4855 0.797357 25.6982 1.08972 25.6982Z" fill="#FFB300"/>
<path d="M1.62126 28.0634C2.20598 28.0634 3.21594 27.3458 3.18937 26.7611C3.18937 26.5751 3.05648 26.3359 2.89701 26.1498C2.36545 25.4854 1.86046 24.6349 1.86046 23.7844V22.8276C1.86046 22.5352 1.62126 22.296 1.3289 22.296H0.823919C0.53156 22.296 0.292358 22.5352 0.292358 22.8276C0.292358 22.8276 -9.53674e-07 25.2993 0.558139 27.0269C0.95681 27.6116 1.03654 28.0634 1.62126 28.0634Z" fill="#FFB300"/>
<path d="M1.08968 23.3061C0.487856 23.3061 -2.09808e-05 22.8183 -2.09808e-05 22.2164C-2.09808e-05 21.6146 0.487856 21.1267 1.08968 21.1267C1.69151 21.1267 2.17938 21.6146 2.17938 22.2164C2.17938 22.8183 1.69151 23.3061 1.08968 23.3061Z" fill="#FFB300"/>
<path d="M1.08972 25.6982C1.38207 25.6982 1.62128 25.459 1.62128 25.1666V9.48554C1.62128 9.19318 1.38207 8.95398 1.08972 8.95398C0.797357 8.95398 0.558154 9.19318 0.558154 9.48554V25.1932C0.558154 25.4855 0.797357 25.6982 1.08972 25.6982Z" fill="#FFB300"/>
<path d="M1.62126 28.0634C2.20598 28.0634 3.21594 27.3458 3.18937 26.7611C3.18937 26.5751 3.05648 26.3359 2.89701 26.1498C2.36545 25.4854 1.86046 24.6349 1.86046 23.7844V22.8276C1.86046 22.5352 1.62126 22.296 1.3289 22.296H0.823919C0.53156 22.296 0.292358 22.5352 0.292358 22.8276C0.292358 22.8276 -9.53674e-07 25.2993 0.558139 27.0269C0.95681 27.6116 1.03654 28.0634 1.62126 28.0634Z" fill="#FFB300"/>
<path d="M1.08968 23.3061C0.487856 23.3061 -2.09808e-05 22.8183 -2.09808e-05 22.2164C-2.09808e-05 21.6146 0.487856 21.1267 1.08968 21.1267C1.69151 21.1267 2.17938 21.6146 2.17938 22.2164C2.17938 22.8183 1.69151 23.3061 1.08968 23.3061Z" fill="#FFB300"/>
<path d="M16.4252 9.48533C16.4252 9.19297 16.186 8.95377 15.8937 8.95377H1.06311C0.770747 8.95377 0.531545 9.19297 0.531545 9.48533C0.531545 9.77769 0.770747 10.0169 1.06311 10.0169H15.9202C16.186 9.99031 16.4252 9.77769 16.4252 9.48533Z" fill="#FFCA28"/>
<path d="M16.0266 10.3891C14.8376 10.3891 13.8738 9.98455 13.8738 9.48547C13.8738 8.9864 14.8376 8.58182 16.0266 8.58182C17.2156 8.58182 18.1794 8.9864 18.1794 9.48547C18.1794 9.98455 17.2156 10.3891 16.0266 10.3891Z" fill="url(#paint4_radial_2355_3687)"/>
<defs>
<linearGradient id="paint0_linear_2355_3687" x1="16.0266" y1="11.8421" x2="16.0266" y2="20.7014" gradientUnits="userSpaceOnUse">
<stop stop-color="#212121"/>
<stop offset="0.7026" stop-color="#616161"/>
</linearGradient>
<linearGradient id="paint1_linear_2355_3687" x1="26.1615" y1="15.2662" x2="5.96215" y2="15.2662" gradientUnits="userSpaceOnUse">
<stop offset="0.0012001" stop-color="#BFBEBE"/>
<stop offset="0.15" stop-color="#212121" stop-opacity="0"/>
<stop offset="0.8505" stop-color="#212121" stop-opacity="0"/>
<stop offset="1" stop-color="#BFBEBE"/>
</linearGradient>
<linearGradient id="paint2_linear_2355_3687" x1="32" y1="12.3427" x2="0.584717" y2="12.3427" gradientUnits="userSpaceOnUse">
<stop offset="0.0012001" stop-color="#BFBEBE"/>
<stop offset="0.3" stop-color="#212121" stop-opacity="0"/>
<stop offset="0.7" stop-color="#212121" stop-opacity="0"/>
<stop offset="1" stop-color="#BFBEBE"/>
</linearGradient>
<linearGradient id="paint3_linear_2355_3687" x1="16.2657" y1="0.723504" x2="16.2657" y2="10.9563" gradientUnits="userSpaceOnUse">
<stop stop-color="#9E9E9E"/>
<stop offset="0.7151" stop-color="#616161"/>
</linearGradient>
<radialGradient id="paint4_radial_2355_3687" cx="0" cy="0" r="1" gradientUnits="userSpaceOnUse" gradientTransform="translate(15.9901 9.13) rotate(180) scale(2.29191 0.915617)">
<stop offset="0.3965" stop-color="#757575"/>
<stop offset="0.9968" stop-color="#424242"/>
</radialGradient>
</defs>
</svg>
