<svg width="25" height="25" viewBox="0 0 25 25" fill="none" xmlns="http://www.w3.org/2000/svg">
<path d="M1.43684 24.6541L0.474902 23.6921C0.318913 23.5361 0.318913 23.2822 0.474902 23.1262L0.574896 23.0262C0.730886 22.8702 0.984869 22.8702 1.14086 23.0262L2.1028 23.9881C2.25879 24.1441 2.25879 24.3981 2.1028 24.5541L2.0028 24.6541C1.84681 24.8101 1.59283 24.8101 1.43684 24.6541Z" fill="#616262"/>
<path d="M1.43684 24.6541L0.474902 23.6921C0.318913 23.5361 0.318913 23.2822 0.474902 23.1262L0.574896 23.0262C0.730886 22.8702 0.984869 22.8702 1.14086 23.0262L2.1028 23.9881C2.25879 24.1441 2.25879 24.3981 2.1028 24.5541L2.0028 24.6541C1.84681 24.8101 1.59283 24.8101 1.43684 24.6541Z" fill="#616262"/>
<path d="M5.65967 18.1914L6.93802 19.4698L1.8232 24.5846L0.544844 23.3062L5.65967 18.1914Z" fill="#616262"/>
<path d="M6.21076 19.8787L5.24883 18.9167C5.09284 18.7607 5.09284 18.5068 5.24883 18.3508L5.34882 18.2508C5.50481 18.0948 5.75879 18.0948 5.91478 18.2508L6.87672 19.2127C7.03271 19.3687 7.03271 19.6227 6.87672 19.7787L6.77673 19.8787C6.62074 20.0367 6.36675 20.0367 6.21076 19.8787Z" fill="#616262"/>
<path d="M4.68839 21.7295L3.89844 19.9436L4.70238 19.1396L5.49033 20.9255L4.68839 21.7295Z" fill="#58C1EF"/>
<path d="M2.96861 23.4493L2.18066 21.6614L2.98461 20.8574L3.77256 22.6453L2.96861 23.4493Z" fill="#58C1EF"/>
<path d="M4.38818 20.1357L12.6381 11.8858L13.2433 12.4911L4.99342 20.741L4.38818 20.1357Z" fill="#58C1EF"/>
<path opacity="0.2" d="M12.4321 12.3758L12.7541 12.6978L4.99463 20.4572L4.67265 20.1353L12.4321 12.3758ZM12.4321 12.0918L4.38867 20.1353L4.99463 20.7412L13.0381 12.6978L12.4321 12.0918Z" fill="#434343"/>
<path d="M5.65967 18.1914L6.93802 19.4698L1.8232 24.5846L0.544844 23.3062L5.65967 18.1914Z" fill="#616262"/>
<path d="M6.21076 19.8787L5.24883 18.9167C5.09284 18.7607 5.09284 18.5068 5.24883 18.3508L5.34882 18.2508C5.50481 18.0948 5.75879 18.0948 5.91478 18.2508L6.87672 19.2127C7.03271 19.3687 7.03271 19.6227 6.87672 19.7787L6.77673 19.8787C6.62074 20.0367 6.36675 20.0367 6.21076 19.8787Z" fill="#616262"/>
<path opacity="0.2" d="M5.63279 18.5474C5.64479 18.5474 5.65079 18.5534 5.65279 18.5554L6.57473 19.4774C6.58673 19.4894 6.58673 19.5074 6.57473 19.5174L6.51474 19.5774C6.51274 19.5794 6.50874 19.5834 6.49274 19.5834H6.49074C6.47074 19.5794 6.45074 19.5794 6.42874 19.5794C6.32275 19.5794 6.22076 19.6214 6.14676 19.6974L1.91904 23.9231C1.82904 24.0131 1.78705 24.1411 1.80705 24.2671C1.80905 24.2751 1.80705 24.2851 1.80105 24.2911L1.74105 24.3511C1.73905 24.3531 1.73305 24.3591 1.72105 24.3591C1.70905 24.3591 1.70305 24.3531 1.70105 24.3511L0.779114 23.4311C0.767114 23.4191 0.767114 23.4011 0.779114 23.3911L0.83911 23.3311C0.84111 23.3291 0.845109 23.3251 0.861108 23.3251H0.863108C0.883107 23.3291 0.903105 23.3291 0.925104 23.3291C1.0311 23.3291 1.13309 23.2871 1.20709 23.2111L5.43481 18.9834C5.5248 18.8934 5.5668 18.7654 5.5468 18.6394C5.5448 18.6314 5.5468 18.6214 5.5528 18.6154L5.6128 18.5554C5.6148 18.5534 5.6208 18.5474 5.63279 18.5474ZM5.63279 18.1475C5.5228 18.1475 5.41281 18.1895 5.33081 18.2735L5.27082 18.3334C5.17083 18.4334 5.13083 18.5714 5.15083 18.7014L0.923104 22.9291C0.901106 22.9251 0.879107 22.9231 0.857109 22.9231C0.747116 22.9231 0.639123 22.9631 0.555128 23.0471L0.495132 23.1071C0.327143 23.2751 0.327143 23.5451 0.495132 23.7131L1.41707 24.635C1.50107 24.719 1.61106 24.761 1.71905 24.761C1.82704 24.761 1.93904 24.719 2.02103 24.635L2.08103 24.575C2.18102 24.475 2.22102 24.3371 2.20102 24.2071L6.42874 19.9793C6.45074 19.9833 6.47274 19.9853 6.49474 19.9853C6.60473 19.9853 6.71272 19.9453 6.79672 19.8613L6.85671 19.8014C7.0247 19.6334 7.0247 19.3634 6.85671 19.1954L5.93477 18.2735C5.85078 18.1895 5.74279 18.1475 5.63279 18.1475Z" fill="#EEEEEE"/>
<path d="M18.771 1.53711L19.0043 1.30378L23.9169 6.21639L23.6836 6.44972L18.771 1.53711Z" fill="#C5C9E6"/>
<path d="M16.4443 1.87305L16.6777 1.63972L23.5785 8.54056L23.3452 8.77389L16.4443 1.87305Z" fill="#C5C9E6"/>
<path d="M14.9395 3.03125L15.1728 2.79792L22.4201 10.0452L22.1868 10.2785L14.9395 3.03125Z" fill="#C5C9E6"/>
<path d="M13.6094 4.3623L13.8427 4.12898L21.09 11.3763L20.8567 11.6096L13.6094 4.3623Z" fill="#C5C9E6"/>
<path d="M12.5991 6.01465L12.8324 5.78132L19.3571 12.306L19.1238 12.5393L12.5991 6.01465Z" fill="#C5C9E6"/>
<path d="M12.1738 8.25293L12.4072 8.0196L17.0977 12.7102L16.8644 12.9435L12.1738 8.25293Z" fill="#C5C9E6"/>
<path d="M15.7852 12.9502L23.5924 5.14291L23.8258 5.37624L16.0185 13.1835L15.7852 12.9502Z" fill="#C5C9E6"/>
<path d="M13.0171 11.9863L22.6274 2.37606L22.8607 2.60939L13.2504 12.2197L13.0171 11.9863Z" fill="#C5C9E6"/>
<path d="M14.3008 12.5703L23.2125 3.65861L23.4458 3.89194L14.5341 12.8036L14.3008 12.5703Z" fill="#C5C9E6"/>
<path d="M11.855 9.41895L20.1671 1.10682L20.4004 1.34015L12.0883 9.65227L11.855 9.41895Z" fill="#C5C9E6"/>
<path d="M12.4219 10.7168L21.4651 1.67358L21.6984 1.90691L12.6552 10.9501L12.4219 10.7168Z" fill="#C5C9E6"/>
<path d="M12.0312 7.37695L18.1515 1.2567L18.3848 1.49003L12.2646 7.61028L12.0312 7.37695Z" fill="#C5C9E6"/>
<path d="M17.8921 12.7119L23.4863 7.11771L23.7196 7.35103L18.1254 12.9452L17.8921 12.7119Z" fill="#C5C9E6"/>
<path d="M22.2176 2.91262C22.9976 3.69257 23.3316 4.8525 23.1576 6.17841C22.9696 7.61631 22.2216 9.05422 21.0497 10.2261C19.8778 11.3981 18.4419 12.146 17.002 12.334C15.6781 12.506 14.5181 12.172 13.7382 11.3921C12.9582 10.6121 12.6243 9.45219 12.7982 8.12628C12.9862 6.68838 13.7342 5.25047 14.9061 4.07855C16.078 2.90662 17.5139 2.16067 18.9518 1.97269C20.2778 1.7987 21.4377 2.13268 22.2176 2.91262ZM23.0336 2.09668C20.8857 -0.0511811 16.88 0.470785 14.0882 3.2626C11.2963 6.05442 10.7724 10.0602 12.9222 12.208C15.0721 14.3559 19.0758 13.8339 21.8676 11.0421C24.6595 8.25027 25.1814 4.24454 23.0336 2.09668Z" fill="#58C1EF"/>
<path opacity="0.2" d="M19.6198 1.17243C20.8797 1.17243 21.9636 1.59041 22.7536 2.37836C23.7015 3.32629 24.1115 4.7102 23.9075 6.2741C23.6975 7.87599 22.8736 9.46989 21.5856 10.7578C20.0777 12.2657 18.1639 13.1316 16.336 13.1316C15.0761 13.1316 13.9941 12.7157 13.2042 11.9257C11.2163 9.93586 11.7403 6.17611 14.3721 3.54628C15.88 2.03838 17.7919 1.17243 19.6198 1.17243ZM19.6198 0.772461C17.7699 0.772461 15.724 1.6284 14.0901 3.2643C11.2963 6.05611 10.7744 10.0598 12.9222 12.2097C13.8142 13.1016 15.0241 13.5316 16.336 13.5316C18.1859 13.5316 20.2337 12.6737 21.8676 11.0418C24.6594 8.24997 25.1834 4.24423 23.0356 2.09637C22.1436 1.20443 20.9297 0.772461 19.6198 0.772461Z" fill="#434343"/>
<path d="M12.158 13.6174L11.512 12.9715C11.356 12.8155 11.356 12.5615 11.512 12.4055L12.158 11.7596C12.314 11.6036 12.5679 11.6036 12.7239 11.7596L13.3699 12.4055C13.5259 12.5615 13.5259 12.8155 13.3699 12.9715L12.7239 13.6174C12.5679 13.7734 12.314 13.7734 12.158 13.6174Z" fill="#616262"/>
<path opacity="0.2" d="M12.436 12.0474L13.082 12.6934L12.436 13.3393L11.7901 12.6934L12.436 12.0474ZM12.436 11.6475C12.3341 11.6475 12.2321 11.6875 12.1541 11.7655L11.5081 12.4114C11.3521 12.5674 11.3521 12.8214 11.5081 12.9774L12.1541 13.6233C12.2321 13.7013 12.3341 13.7413 12.436 13.7413C12.538 13.7413 12.64 13.7013 12.718 13.6233L13.364 12.9774C13.52 12.8214 13.52 12.5674 13.364 12.4114L12.718 11.7655C12.64 11.6855 12.538 11.6475 12.436 11.6475Z" fill="#EEEEEE"/>
<path d="M16.1678 20.3694C16.8097 19.9834 16.4337 19.1115 16.2538 18.6515C16.4817 19.0395 17.1057 19.8274 17.5877 19.3894C18.2456 18.7915 17.1897 17.7475 17.1897 17.7475L17.2017 17.7355C17.2017 17.7355 18.2476 18.7915 18.8436 18.1335C19.2796 17.6516 18.4936 17.0276 18.1056 16.7996C18.5656 16.9796 19.4376 17.3556 19.8235 16.7136C20.0835 16.2816 19.5835 15.9537 18.7736 15.6917C18.3716 15.5617 15.6278 14.9277 15.6278 14.9277L14.3799 16.1757C14.3799 16.1757 15.0138 18.9175 15.1438 19.3214C15.4078 20.1294 15.7358 20.6294 16.1678 20.3694Z" fill="url(#paint0_linear_550_5598)"/>
<path d="M14.1579 16.0939L15.5578 14.694C15.1638 14.346 14.5619 14.358 14.1859 14.736C13.8019 15.12 13.7959 15.7399 14.1659 16.1319C14.1619 16.1059 14.1579 16.0939 14.1579 16.0939Z" fill="url(#paint1_linear_550_5598)"/>
<path d="M15.15 15.1741C15.168 15.1561 15.194 15.1521 15.216 15.1641L18.8937 17.158C18.9217 17.172 18.9317 17.206 18.9157 17.2339C18.8997 17.2619 18.8677 17.2719 18.8397 17.2559L15.162 15.2621C15.134 15.2481 15.124 15.2141 15.14 15.1861C15.144 15.1821 15.146 15.1781 15.15 15.1741Z" fill="#9D9D9D"/>
<path d="M14.6457 15.6774C14.6497 15.6734 14.6537 15.6694 14.6597 15.6674C14.6877 15.6534 14.7217 15.6634 14.7357 15.6914L16.7136 19.4372C16.7276 19.4652 16.7176 19.4992 16.6896 19.5132C16.6616 19.5272 16.6276 19.5172 16.6136 19.4892L14.6357 15.7434C14.6237 15.7194 14.6297 15.6934 14.6457 15.6774Z" fill="#9D9D9D"/>
<path d="M14.8778 15.4257C14.8998 15.4037 14.9358 15.4037 14.9578 15.4257L17.9496 18.4175C17.9716 18.4395 17.9716 18.4755 17.9496 18.4975C17.9276 18.5195 17.8916 18.5195 17.8696 18.4975L14.8778 15.5037C14.8558 15.4817 14.8558 15.4477 14.8778 15.4257Z" fill="#9D9D9D"/>
<path d="M14.0659 16.0392L15.4858 14.6133L15.8558 14.9553L14.4159 16.3952L14.0659 16.0392Z" fill="#FFD740"/>
<path d="M16.1678 20.3694C16.8097 19.9834 16.4337 19.1115 16.2538 18.6515C16.4817 19.0395 17.1057 19.8274 17.5877 19.3894C18.2456 18.7915 17.1897 17.7475 17.1897 17.7475L17.2017 17.7355C17.2017 17.7355 18.2476 18.7915 18.8436 18.1335C19.2796 17.6516 18.4936 17.0276 18.1056 16.7996C18.5656 16.9796 19.4376 17.3556 19.8235 16.7136C20.0835 16.2816 19.5835 15.9537 18.7736 15.6917C18.3716 15.5617 15.6278 14.9277 15.6278 14.9277L14.3799 16.1757C14.3799 16.1757 15.0138 18.9175 15.1438 19.3214C15.4078 20.1294 15.7358 20.6294 16.1678 20.3694Z" fill="url(#paint2_linear_550_5598)"/>
<path d="M14.1579 16.0939L15.5578 14.694C15.1638 14.346 14.5619 14.358 14.1859 14.736C13.8019 15.12 13.7959 15.7399 14.1659 16.1319C14.1619 16.1059 14.1579 16.0939 14.1579 16.0939Z" fill="white"/>
<path d="M18.9638 17.2577C18.9918 17.2057 18.9718 17.1397 18.9198 17.1117L15.242 15.1179C15.2 15.0959 15.148 15.1039 15.114 15.1359C15.106 15.1439 15.1 15.1519 15.096 15.1599C15.088 15.1759 15.082 15.1939 15.082 15.2119C15.082 15.2499 15.102 15.2879 15.138 15.3079L18.8158 17.3017C18.8678 17.3297 18.9338 17.3097 18.9638 17.2577Z" fill="url(#paint3_linear_550_5598)"/>
<path d="M16.714 19.5597C16.74 19.5457 16.758 19.5237 16.768 19.4978C16.776 19.4698 16.774 19.4398 16.76 19.4138L14.7821 15.668C14.7681 15.642 14.7461 15.624 14.7181 15.616C14.6901 15.608 14.6601 15.61 14.6361 15.624C14.6261 15.63 14.6181 15.636 14.6101 15.644C14.5901 15.664 14.5781 15.692 14.5781 15.72C14.5781 15.738 14.5821 15.754 14.5901 15.77L16.568 19.5158C16.596 19.5657 16.662 19.5857 16.714 19.5597Z" fill="url(#paint4_linear_550_5598)"/>
<path d="M17.9079 18.5637C17.9359 18.5637 17.9639 18.5517 17.9839 18.5317C18.0039 18.5117 18.0159 18.4837 18.0159 18.4557C18.0159 18.4277 18.0039 18.3997 17.9839 18.3797L14.9941 15.3879C14.9521 15.3459 14.8841 15.3459 14.8401 15.3879C14.8201 15.4099 14.8081 15.4359 14.8081 15.4639C14.8081 15.4919 14.8181 15.5199 14.8401 15.5399L17.8319 18.5317C17.8519 18.5537 17.8799 18.5637 17.9079 18.5637Z" fill="url(#paint5_linear_550_5598)"/>
<path d="M14.082 16.0635L15.4619 14.5996L15.8399 14.9316L14.44 16.4095L14.082 16.0635Z" fill="#E53A35"/>
<path opacity="0.2" d="M14.8939 14.6394C15.0619 14.6394 15.2219 14.6914 15.3599 14.7874C15.3739 14.7974 15.3899 14.8054 15.4059 14.8114L15.6459 15.0354C15.6679 15.1034 15.7219 15.1534 15.7918 15.1694C16.3938 15.3094 18.3837 15.7754 18.7137 15.8814C19.4696 16.1253 19.6456 16.3333 19.6836 16.4353C19.6976 16.4713 19.7056 16.5233 19.6536 16.6113C19.5456 16.7913 19.3856 16.8733 19.1456 16.8733C18.8396 16.8733 18.4897 16.7353 18.2337 16.6353L18.1777 16.6133C18.1537 16.6033 18.1297 16.5993 18.1057 16.5993C18.0317 16.5993 17.9597 16.6413 17.9257 16.7113C17.8797 16.8053 17.9137 16.9173 18.0037 16.9713C18.3537 17.1773 18.7297 17.5213 18.7677 17.7792C18.7797 17.8612 18.7577 17.9292 18.6937 17.9992C18.5997 18.1012 18.4937 18.1492 18.3597 18.1492C17.9757 18.1492 17.4937 17.7492 17.3417 17.5952C17.3037 17.5572 17.2458 17.5432 17.1938 17.5432C17.1398 17.5432 17.0838 17.5712 17.0458 17.6092C17.0078 17.6472 16.9878 17.6972 16.9878 17.7512C16.9878 17.8052 17.0098 17.8552 17.0478 17.8932C17.2058 18.0492 17.6097 18.5372 17.6017 18.9232C17.5997 19.0512 17.5497 19.1551 17.4517 19.2451C17.3937 19.2971 17.3377 19.3211 17.2738 19.3211C17.0158 19.3211 16.6438 18.9252 16.4238 18.5532C16.3858 18.4892 16.3198 18.4552 16.2518 18.4552C16.2218 18.4552 16.1918 18.4612 16.1638 18.4752C16.0698 18.5212 16.0278 18.6312 16.0658 18.7272L16.0878 18.7832C16.3138 19.3571 16.4998 19.9411 16.0638 20.2011C16.0198 20.2271 15.9778 20.2411 15.9418 20.2411C15.8558 20.2411 15.6219 20.1451 15.3359 19.2611C15.2299 18.9312 14.7639 16.9413 14.6239 16.3393C14.6079 16.2733 14.5599 16.2193 14.4959 16.1973L14.2739 15.9694C14.268 15.9494 14.258 15.9274 14.244 15.9094C14.014 15.5894 14.05 15.1554 14.3279 14.8754C14.4799 14.7214 14.6819 14.6394 14.8939 14.6394ZM14.8939 14.4395C14.6379 14.4395 14.3819 14.5374 14.186 14.7314C13.834 15.0834 13.8 15.6314 14.08 16.0234L14.064 16.0393L14.4139 16.3953L14.4279 16.3813C14.5779 17.0273 15.0359 18.9832 15.1439 19.3191C15.3579 19.9811 15.6179 20.4371 15.9418 20.4371C16.0138 20.4371 16.0878 20.4151 16.1658 20.3671C16.8078 19.9811 16.4318 19.1091 16.2518 18.6492C16.4318 18.9572 16.8638 19.5151 17.2738 19.5151C17.3817 19.5151 17.4857 19.4771 17.5857 19.3871C18.2437 18.7892 17.1878 17.7452 17.1878 17.7452L17.1998 17.7332C17.1998 17.7332 17.8077 18.3472 18.3597 18.3472C18.5317 18.3472 18.6997 18.2872 18.8416 18.1312C19.2776 17.6492 18.4917 17.0253 18.1037 16.7973C18.3697 16.9013 18.7757 17.0713 19.1436 17.0713C19.4116 17.0713 19.6596 16.9813 19.8216 16.7113C20.0816 16.2793 19.5816 15.9514 18.7717 15.6894C18.4357 15.5814 16.4778 15.1234 15.8338 14.9734L15.8518 14.9554L15.4819 14.6134L15.4719 14.6234C15.3019 14.5015 15.0979 14.4395 14.8939 14.4395Z" fill="#434343"/>
<defs>
<linearGradient id="paint0_linear_550_5598" x1="17.4786" y1="18.0238" x2="14.9359" y2="15.4811" gradientUnits="userSpaceOnUse">
<stop offset="0.3684" stop-color="#D0D8DC"/>
<stop offset="0.7389" stop-color="#ECEFF0"/>
</linearGradient>
<linearGradient id="paint1_linear_550_5598" x1="14.68" y1="15.2254" x2="14.1751" y2="14.7205" gradientUnits="userSpaceOnUse">
<stop offset="0.2556" stop-color="#F05323"/>
<stop offset="0.6694" stop-color="#D74527"/>
</linearGradient>
<linearGradient id="paint2_linear_550_5598" x1="14.1963" y1="14.7419" x2="17.8161" y2="18.3617" gradientUnits="userSpaceOnUse">
<stop offset="0.1411" stop-color="#B5E4FA"/>
<stop offset="0.6948" stop-color="#E2F4FD"/>
</linearGradient>
<linearGradient id="paint3_linear_550_5598" x1="15.0816" y1="16.2094" x2="18.976" y2="16.2094" gradientUnits="userSpaceOnUse">
<stop offset="0.2365" stop-color="#84D2F6"/>
<stop offset="0.7199" stop-color="#B5E4FA"/>
</linearGradient>
<linearGradient id="paint4_linear_550_5598" x1="14.5779" y1="17.5901" x2="16.772" y2="17.5901" gradientUnits="userSpaceOnUse">
<stop offset="0.2365" stop-color="#84D2F6"/>
<stop offset="0.7199" stop-color="#B5E4FA"/>
</linearGradient>
<linearGradient id="paint5_linear_550_5598" x1="14.8095" y1="16.9604" x2="18.0169" y2="16.9604" gradientUnits="userSpaceOnUse">
<stop offset="0.2365" stop-color="#84D2F6"/>
<stop offset="0.7199" stop-color="#B5E4FA"/>
</linearGradient>
</defs>
</svg>
