<svg width="25" height="25" viewBox="0 0 25 25" fill="none" xmlns="http://www.w3.org/2000/svg">
<path d="M10.0913 0.424805C1.95899 0.424805 2.02443 7.94436 2.02443 8.06334C2.02443 12.9336 2.39724 19.8126 4.34653 22.5194C5.1199 23.5922 6.6131 23.6517 6.6131 23.6517L9.97826 23.6458L13.3434 23.6517C13.3434 23.6517 14.8386 23.5922 15.61 22.5194C17.5593 19.8126 17.9321 12.9336 17.9321 8.06334C17.9321 7.94436 18.2236 0.424805 10.0913 0.424805Z" fill="#543930"/>
<path d="M10.0913 0.424805C1.95899 0.424805 2.02443 7.94436 2.02443 8.06334C2.02443 12.9336 2.39724 19.8126 4.34653 22.5194C5.1199 23.5922 6.6131 23.6517 6.6131 23.6517L9.97826 23.6458L13.3434 23.6517C13.3434 23.6517 14.8386 23.5922 15.61 22.5194C17.5593 19.8126 17.9321 12.9336 17.9321 8.06334C17.9321 7.94436 18.2236 0.424805 10.0913 0.424805Z" fill="url(#paint0_radial_550_3713)"/>
<path d="M9.85322 18.8662C5.16937 18.8801 0.312988 20.3198 0.312988 23.8336V24.4365H19.3954V23.8336C19.3954 20.3198 14.5371 18.8801 9.85322 18.8662Z" fill="url(#paint1_radial_550_3713)"/>
<path d="M17.4105 20.5898L16.2563 24.4389H19.3954V23.836C19.3954 22.438 18.628 21.3711 17.4105 20.5898Z" fill="url(#paint2_linear_550_3713)"/>
<path d="M9.86893 18.0898H8.06836V20.0689C8.06836 20.9632 8.80207 21.689 9.70632 21.689H10.0335C10.9378 21.689 11.6715 20.9632 11.6715 20.0689V18.0898H9.86893Z" fill="#99674F"/>
<path d="M12.0065 20.7012H7.81445L8.29434 24.4391H11.5782L12.0065 20.7012Z" fill="url(#paint3_linear_550_3713)"/>
<path d="M8.0944 18.9297C6.92046 19.015 6.37117 19.1161 6.37117 19.1161L5.75049 20.5637L6.79157 21.4342L5.82386 22.6538L7.23576 24.4385H8.69922L8.0944 18.9297Z" fill="url(#paint4_linear_550_3713)"/>
<path d="M11.6976 18.9297C12.8715 19.015 13.4208 19.1161 13.4208 19.1161L14.0415 20.5637L13.0004 21.4342L13.9681 22.6538L12.5562 24.4385H11.0928L11.6976 18.9297Z" fill="url(#paint5_linear_550_3713)"/>
<path d="M23.8134 14.417C24.0395 15.9618 23.7916 17.7623 23.7916 17.7623L21.757 17.5839C21.757 17.5839 21.6797 16.4119 21.757 16.4099L23.8134 14.417Z" fill="#80CBC4"/>
<path d="M21.7652 17.2606C20.4445 17.1 19.8635 16.9434 19.8635 16.9434L17.6147 24.4391H23.2048L24.0258 17.2587C24.0258 17.2587 23.4012 17.4589 21.7652 17.2606Z" fill="url(#paint6_linear_550_3713)"/>
<path opacity="0.86" d="M21.4677 22.1746C21.0175 22.4523 19.6611 22.1984 18.3444 21.7285C17.3291 21.3656 16.5141 20.9035 16.5062 20.9016C16.4011 20.852 15.4155 20.3166 15.4155 19.7633C15.4155 19.3033 15.8042 18.9919 15.8994 18.8848C15.9133 18.871 15.9192 18.865 15.9192 18.865L19.3815 15.3769L21.9872 9.07095L21.9912 9.06897C21.9912 9.06897 22.4592 8.90835 23.1155 9.16614C23.7719 9.42393 24.109 9.85226 24.109 9.85226L24.1051 9.85424L21.7552 16.3228C21.7552 16.3228 21.7611 20.9591 21.7552 21.3576C21.7473 21.897 21.6838 22.0418 21.4677 22.1746Z" fill="url(#paint7_linear_550_3713)"/>
<path opacity="0.8" d="M20.754 21.8655C19.6355 21.4293 17.3075 20.5072 16.1871 20.0531C15.8837 19.9281 15.8044 19.5375 16.0344 19.3055L17.5078 17.8202L21.3766 17.6338V21.4392C21.3786 21.7604 21.0554 21.9825 20.754 21.8655Z" fill="url(#paint8_radial_550_3713)"/>
<path d="M18.7627 19.627L18.9159 19.2611L20.1597 19.7819L20.0065 20.1477L18.7627 19.627Z" fill="white"/>
<path d="M19.1621 18.5469L19.3153 18.1811L20.5591 18.7018L20.4059 19.0676L19.1621 18.5469Z" fill="white"/>
<path d="M19.5654 17.4688L19.7186 17.1029L20.9624 17.6237L20.8092 17.9895L19.5654 17.4688Z" fill="white"/>
<path d="M19.9663 16.3906L20.1195 16.0248L21.3633 16.5456L21.2101 16.9114L19.9663 16.3906Z" fill="white"/>
<path d="M20.3662 15.3105L20.5194 14.9447L21.7632 15.4655L21.61 15.8313L20.3662 15.3105Z" fill="white"/>
<path d="M20.7666 14.2334L20.9197 13.8676L22.1635 14.3882L22.0104 14.754L20.7666 14.2334Z" fill="white"/>
<path d="M21.168 13.1543L21.3211 12.7885L22.5649 13.3091L22.4118 13.6749L21.168 13.1543Z" fill="white"/>
<path d="M21.6646 11.9004L21.8177 11.5346L23.0615 12.0552L22.9084 12.421L21.6646 11.9004Z" fill="white"/>
<path d="M22.0664 10.8213L22.2195 10.4555L23.4633 10.9761L23.3102 11.3419L22.0664 10.8213Z" fill="white"/>
<path d="M19.1374 15.6245C19.1374 15.6245 18.6357 15.2001 18.6377 14.8134C18.6397 14.5041 19.0125 14.2106 19.0125 14.2106C19.0125 14.2106 18.6555 13.6613 18.7864 13.3619C18.9728 12.9375 19.4626 12.8562 19.4626 12.8562C19.4626 12.8562 19.2405 12.3029 19.5915 11.9777C19.8414 11.7457 20.5632 11.8429 20.5632 11.8429C20.5632 11.8429 20.6346 10.9347 21.519 11.1627C21.864 11.2519 23.0876 11.9539 23.5437 13.4352C23.8292 14.3613 23.9403 14.6369 23.849 16.025C23.8094 16.614 22.3201 16.614 21.7589 16.4117C20.3609 15.908 19.9643 15.2933 19.772 15.2973C19.5776 15.2993 19.1374 15.6245 19.1374 15.6245Z" fill="#80CBC4"/>
<path d="M19.3102 13.8656C19.1674 13.8913 19.0564 14.0063 19.0246 14.1491L19.0107 14.2106L19.8396 13.927C19.6453 13.8358 19.453 13.8398 19.3102 13.8656Z" fill="#26A69A"/>
<path d="M20.3176 12.9122C20.2046 12.7873 20.0737 12.7159 19.9567 12.6742C19.7703 12.6088 19.5641 12.6881 19.4609 12.8567L20.3176 12.9122Z" fill="#26A69A"/>
<path d="M20.9701 11.7124C20.8253 11.6549 20.6528 11.6985 20.5655 11.8274C20.5635 11.8314 20.5616 11.8353 20.5596 11.8373C20.9125 11.881 21.442 12.1031 21.442 12.1031C21.3349 11.8929 21.1327 11.7759 20.9701 11.7124Z" fill="#26A69A"/>
<path d="M21.2518 21.74C21.3864 21.3986 20.3036 20.652 18.8334 20.0724C17.3632 19.4927 16.0623 19.2995 15.9278 19.6408C15.7932 19.9821 16.8759 20.7287 18.3461 21.3084C19.8163 21.8881 21.1172 22.0813 21.2518 21.74Z" fill="#8F5D9B"/>
<path d="M24.0886 9.94218C24.2126 9.62729 23.8398 9.18562 23.2558 8.95569C22.6719 8.72576 22.098 8.79463 21.974 9.10952C21.85 9.42442 22.2229 9.86608 22.8068 10.096C23.3907 10.3259 23.9646 10.2571 24.0886 9.94218Z" fill="#81D4FA"/>
<path d="M9.89098 2.9209C6.48022 2.9209 3.32129 5.45716 3.32129 10.8351C3.32129 15.1541 5.99636 17.7101 8.32441 18.5351C8.87965 18.7314 9.41506 18.8305 9.89098 18.8305C10.3629 18.8305 10.8964 18.7334 11.4476 18.539C13.7797 17.7181 16.4607 15.162 16.4607 10.8371C16.4607 5.45716 13.3018 2.9209 9.89098 2.9209Z" fill="#BA8D68"/>
<path d="M10.6346 13.2766C10.6128 13.2687 10.5929 13.2627 10.5711 13.2607H9.16716C9.14535 13.2627 9.12354 13.2687 9.10371 13.2766C8.97679 13.3282 8.90739 13.459 8.96688 13.5998C9.02637 13.7406 9.30597 14.1333 9.86915 14.1333C10.4323 14.1333 10.7119 13.7386 10.7714 13.5998C10.8309 13.461 10.7615 13.3282 10.6346 13.2766Z" fill="#99674F"/>
<path d="M11.5608 14.8808C10.9282 15.2556 8.85793 15.2556 8.22733 14.8808C7.86444 14.6646 7.49362 14.9958 7.64433 15.325C7.79306 15.6482 8.92139 16.3998 9.89901 16.3998C10.8766 16.3998 11.9911 15.6482 12.1398 15.325C12.2885 14.9938 11.9237 14.6646 11.5608 14.8808Z" fill="#5D4037"/>
<path d="M8.23706 9.64962C8.05264 9.40571 7.62828 9.05273 6.80335 9.05273C5.97842 9.05273 5.55207 9.40769 5.36963 9.64962C5.28833 9.7567 5.30816 9.88163 5.36567 9.95698C5.41723 10.0264 5.5719 10.0918 5.74244 10.0343C5.91298 9.97681 6.24612 9.80429 6.80335 9.80033C7.36057 9.80429 7.69372 9.97681 7.86425 10.0343C8.03479 10.0918 8.18947 10.0284 8.24103 9.95698C8.29853 9.88361 8.31836 9.75868 8.23706 9.64962Z" fill="#613E31"/>
<path d="M14.4143 9.64962C14.2299 9.40571 13.8055 9.05273 12.9806 9.05273C12.1557 9.05273 11.7293 9.40769 11.5469 9.64962C11.4656 9.7567 11.4854 9.88163 11.5429 9.95698C11.5945 10.0264 11.7491 10.0918 11.9197 10.0343C12.0902 9.97681 12.4234 9.80429 12.9806 9.80033C13.5378 9.80429 13.871 9.97681 14.0415 10.0343C14.212 10.0918 14.3667 10.0284 14.4183 9.95698C14.4738 9.88361 14.4936 9.75868 14.4143 9.64962Z" fill="#613E31"/>
<path d="M6.8033 12.4563C7.34323 12.4563 7.78093 12.0035 7.78093 11.4449C7.78093 10.8864 7.34323 10.4336 6.8033 10.4336C6.26338 10.4336 5.82568 10.8864 5.82568 11.4449C5.82568 12.0035 6.26338 12.4563 6.8033 12.4563Z" fill="#49362E"/>
<path d="M12.9786 12.4563C13.5185 12.4563 13.9562 12.0035 13.9562 11.4449C13.9562 10.8864 13.5185 10.4336 12.9786 10.4336C12.4387 10.4336 12.001 10.8864 12.001 11.4449C12.001 12.0035 12.4387 12.4563 12.9786 12.4563Z" fill="#49362E"/>
<path d="M5.72454 8.52734H14.1821L15.3302 9.53868V12.5191C15.3302 12.5191 14.5489 13.6098 12.6651 13.1517C10.7812 12.6936 11.033 11.5554 9.91264 11.5554C8.79225 11.5554 8.27666 13.3738 5.82369 13.3242C5.82369 13.3242 4.55853 13.2132 4.32454 12.42L4.271 9.12621L5.72454 8.52734Z" fill="url(#paint9_linear_550_3713)"/>
<path d="M17.0634 10.5996C17.0654 10.7325 17.0257 10.8614 16.9504 10.9704L15.8657 12.5667C15.4572 13.1319 14.0215 13.4452 14.0215 13.4452L15.6436 11.6327L15.3342 9.35229L13.8608 8.20215C13.8608 8.20215 14.4696 8.26164 14.8999 8.26164C15.3302 8.26164 15.7586 8.53728 15.9787 8.68997L16.7759 9.23926C16.9504 9.36022 17.0535 9.55654 17.0555 9.76872L17.0634 10.5996Z" fill="url(#paint10_linear_550_3713)"/>
<path d="M2.72419 10.5996C2.72221 10.7325 2.76187 10.8614 2.83722 10.9704L3.91994 12.5667C4.32844 13.1319 5.76414 13.4452 5.76414 13.4452L4.14204 11.6327L4.45139 9.35229L5.92476 8.20215C5.92476 8.20215 5.31598 8.26164 4.88567 8.26164C4.45535 8.26164 4.02703 8.53728 3.80691 8.68997L3.00974 9.23926C2.83524 9.36022 2.73212 9.55654 2.73014 9.76872L2.72419 10.5996Z" fill="url(#paint11_linear_550_3713)"/>
<path d="M13.7516 8.78924C13.9697 8.78924 14.3326 8.85864 14.64 9.05496C15.0564 9.32068 15.0683 9.62805 15.0723 9.72918C15.0782 9.88187 15.0842 10.0286 15.0921 10.1754C15.1119 10.6334 15.1318 11.0657 15.1318 11.4861C15.1318 12.3487 14.3564 12.9496 13.2479 12.9496C12.4646 12.9496 11.5782 12.2892 11.1737 11.845C10.8564 11.498 10.3884 11.2977 9.88869 11.2977C9.38897 11.2977 8.92098 11.498 8.6037 11.845C8.19917 12.2892 7.31276 12.9496 6.52948 12.9496C5.42098 12.9496 4.64562 12.3487 4.64562 11.4861C4.64562 11.0637 4.66545 10.6314 4.68528 10.1754C4.69123 10.0286 4.69916 9.87989 4.70511 9.72918C4.70908 9.62805 4.72098 9.32068 5.13741 9.05496C5.44477 8.85864 5.80766 8.78924 6.02579 8.78924H13.7516ZM13.7516 8.19434H6.02976C5.31984 8.19434 4.1578 8.65043 4.11418 9.70539C4.0884 10.3399 4.05469 10.915 4.05469 11.4881C4.05469 12.6779 5.08783 13.5465 6.53344 13.5465C7.52495 13.5465 8.54619 12.7969 9.04591 12.2476C9.26007 12.0136 9.57537 11.8946 9.89067 11.8946C10.206 11.8946 10.5232 12.0136 10.7354 12.2476C11.2371 12.7969 12.2564 13.5465 13.2479 13.5465C14.6935 13.5465 15.7267 12.6779 15.7267 11.4881C15.7267 10.917 15.6929 10.3399 15.6672 9.70539C15.6255 8.65043 14.4635 8.19434 13.7516 8.19434Z" fill="url(#paint12_radial_550_3713)"/>
<path d="M10.0913 0.424805C1.95899 0.424805 2.02443 7.94436 2.02443 8.06334C2.02443 9.60215 2.06211 11.3412 2.17316 13.0843L3.50573 13.0803C3.49384 12.5013 3.90035 8.92198 5.108 8.65031C9.542 7.65286 12.0505 5.30101 12.0505 5.30101C12.7029 6.72481 14.7434 8.1149 15.4751 8.64436C16.076 9.07864 16.2604 12.3228 16.2485 13.0823H17.7774C17.7774 13.0724 17.7814 13.0625 17.7814 13.0506C17.8924 11.3155 17.9281 9.58827 17.9281 8.05937C17.9321 7.94436 18.2236 0.424805 10.0913 0.424805Z" fill="#543930"/>
<path d="M10.0913 0.424805C1.95899 0.424805 2.02443 7.94436 2.02443 8.06334C2.02443 9.60215 2.06211 11.3412 2.17316 13.0843L3.50573 13.0803C3.49384 12.5013 3.90035 8.92198 5.108 8.65031C9.542 7.65286 12.0505 5.30101 12.0505 5.30101C12.7029 6.72481 14.7434 8.1149 15.4751 8.64436C16.076 9.07864 16.2604 12.3228 16.2485 13.0823H17.7774C17.7774 13.0724 17.7814 13.0625 17.7814 13.0506C17.8924 11.3155 17.9281 9.58827 17.9281 8.05937C17.9321 7.94436 18.2236 0.424805 10.0913 0.424805Z" fill="url(#paint13_radial_550_3713)"/>
<defs>
<radialGradient id="paint0_radial_550_3713" cx="0" cy="0" r="1" gradientUnits="userSpaceOnUse" gradientTransform="translate(9.97852 11.4442) scale(9.42554 11.2173)">
<stop offset="0.7936" stop-color="#6D4C41" stop-opacity="0"/>
<stop offset="1" stop-color="#6D4C41"/>
</radialGradient>
<radialGradient id="paint1_radial_550_3713" cx="0" cy="0" r="1" gradientUnits="userSpaceOnUse" gradientTransform="translate(10.1324 25.0666) scale(13.5279 8.16411)">
<stop offset="0.5595" stop-color="#F5F5F5"/>
<stop offset="1" stop-color="#C6C6C6"/>
</radialGradient>
<linearGradient id="paint2_linear_550_3713" x1="16.9925" y1="22.5347" x2="19.8595" y2="22.9145" gradientUnits="userSpaceOnUse">
<stop stop-color="#9E9E9E" stop-opacity="0"/>
<stop offset="0.788" stop-color="#9E9E9E"/>
</linearGradient>
<linearGradient id="paint3_linear_550_3713" x1="9.91049" y1="20.702" x2="9.91049" y2="24.4754" gradientUnits="userSpaceOnUse">
<stop offset="0.0032" stop-color="#80CBC4"/>
<stop offset="0.3326" stop-color="#73C6BE"/>
<stop offset="0.9409" stop-color="#51B8AE"/>
<stop offset="1" stop-color="#4DB6AC"/>
</linearGradient>
<linearGradient id="paint4_linear_550_3713" x1="7.22485" y1="23.0093" x2="7.22485" y2="19.003" gradientUnits="userSpaceOnUse">
<stop offset="0.335" stop-color="#E0E0E0"/>
<stop offset="0.668" stop-color="#D0D0D0"/>
<stop offset="0.9874" stop-color="#BDBDBD"/>
</linearGradient>
<linearGradient id="paint5_linear_550_3713" x1="12.567" y1="23.0093" x2="12.567" y2="19.003" gradientUnits="userSpaceOnUse">
<stop offset="0.335" stop-color="#E0E0E0"/>
<stop offset="0.668" stop-color="#D0D0D0"/>
<stop offset="0.9874" stop-color="#BDBDBD"/>
</linearGradient>
<linearGradient id="paint6_linear_550_3713" x1="18.9857" y1="20.605" x2="24.0905" y2="21.2813" gradientUnits="userSpaceOnUse">
<stop offset="0.4369" stop-color="#F5F5F5"/>
<stop offset="1" stop-color="#C6C6C6"/>
</linearGradient>
<linearGradient id="paint7_linear_550_3713" x1="23.0693" y1="10.1654" x2="18.6123" y2="20.618" gradientUnits="userSpaceOnUse">
<stop stop-color="#B3E5FC" stop-opacity="0.8"/>
<stop offset="0.0826" stop-color="#AEE3FC" stop-opacity="0.8165"/>
<stop offset="0.6744" stop-color="#8DD8FA" stop-opacity="0.9349"/>
<stop offset="1" stop-color="#81D4FA"/>
</linearGradient>
<radialGradient id="paint8_radial_550_3713" cx="0" cy="0" r="1" gradientUnits="userSpaceOnUse" gradientTransform="translate(21.4623 17.5719) rotate(13.3081) scale(5.03045)">
<stop stop-color="#CE93D8"/>
<stop offset="0.2054" stop-color="#CA8AD5"/>
<stop offset="0.5366" stop-color="#BF73CC"/>
<stop offset="0.9503" stop-color="#AD4CBE"/>
<stop offset="1" stop-color="#AB47BC"/>
</radialGradient>
<linearGradient id="paint9_linear_550_3713" x1="9.8005" y1="8.52715" x2="9.8005" y2="13.3246" gradientUnits="userSpaceOnUse">
<stop offset="0.2028" stop-color="#B3E5FC" stop-opacity="0.5"/>
<stop offset="1" stop-color="#B3E5FC" stop-opacity="0.2"/>
</linearGradient>
<linearGradient id="paint10_linear_550_3713" x1="15.4629" y1="10.802" x2="15.4629" y2="8.29793" gradientUnits="userSpaceOnUse">
<stop stop-color="#BDBDBD"/>
<stop offset="1" stop-color="#E0E0E0"/>
</linearGradient>
<linearGradient id="paint11_linear_550_3713" x1="4.32465" y1="10.7689" x2="4.32465" y2="8.36513" gradientUnits="userSpaceOnUse">
<stop stop-color="#BDBDBD"/>
<stop offset="1" stop-color="#E0E0E0"/>
</linearGradient>
<radialGradient id="paint12_radial_550_3713" cx="0" cy="0" r="1" gradientUnits="userSpaceOnUse" gradientTransform="translate(9.89087 10.871) rotate(90) scale(4.54027 6.39451)">
<stop stop-color="#F5F5F5"/>
<stop offset="0.6761" stop-color="#EEEEEE"/>
<stop offset="1" stop-color="#E0E0E0"/>
</radialGradient>
<radialGradient id="paint13_radial_550_3713" cx="0" cy="0" r="1" gradientUnits="userSpaceOnUse" gradientTransform="translate(10.0446 12.2433) scale(9.87298 11.9809)">
<stop offset="0.7945" stop-color="#6D4C41" stop-opacity="0"/>
<stop offset="1" stop-color="#6D4C41"/>
</radialGradient>
</defs>
</svg>
