<svg width="36" height="37" viewBox="0 0 36 37" fill="none" xmlns="http://www.w3.org/2000/svg">
<path d="M18.039 28.3794C18.0267 28.3794 18.0113 28.3794 17.999 28.3794C10.1559 28.3886 1.99902 30.6194 1.99902 36.0902V36.9948H2.46056H2.9221H33.0759H33.5375H33.999V36.0902C33.999 30.9332 25.919 28.3794 18.039 28.3794Z" fill="url(#paint0_linear_46_10143)"/>
<path d="M15.2052 26.5586V29.6294C15.2052 31.0171 16.3437 32.1432 17.7467 32.1432H18.2544C19.6575 32.1432 20.796 31.0171 20.796 29.6294V26.5586H15.2052Z" fill="#EDC391"/>
<path d="M26.4083 14.3584H9.58982C7.77751 14.3584 6.29443 15.9399 6.29443 17.8692C6.29443 19.7984 7.77751 21.3799 9.58982 21.3799H26.4052C28.2175 21.3799 29.7006 19.7984 29.7006 17.8692C29.7006 15.9399 28.2206 14.3584 26.4083 14.3584Z" fill="#EDC391"/>
<path d="M18.0052 2.24756C12.6513 2.24448 7.68826 7.97064 7.68518 16.2106C7.68211 24.4076 12.7898 28.4629 17.9929 28.466C23.196 28.4691 28.3098 24.4199 28.3129 16.2229C28.3159 7.97679 23.359 2.24756 18.0052 2.24756Z" fill="#F9DDBD"/>
<path d="M19.1713 19.7829C19.1375 19.7706 19.1067 19.7614 19.0729 19.7583H16.9221C16.8883 19.7614 16.8575 19.7706 16.8236 19.7829C16.6298 19.8629 16.5221 20.0629 16.6144 20.2783C16.7067 20.4937 17.1344 21.0968 17.996 21.0968C18.8575 21.0968 19.2883 20.4937 19.3775 20.2783C19.4729 20.0629 19.3683 19.8598 19.1713 19.7829Z" fill="#DBA689"/>
<path d="M12.9806 17.3951C12.3467 17.3951 11.7806 17.2412 11.3867 16.9982C11.2175 16.8935 11.119 16.9551 11.1498 17.152C11.2636 17.9151 12.0421 18.5059 12.9806 18.5059C13.9221 18.5059 14.6975 17.9151 14.8113 17.152C14.8421 16.9551 14.7436 16.8935 14.5744 16.9982C14.1806 17.2412 13.6144 17.3951 12.9806 17.3951Z" fill="#312D2D"/>
<path d="M23.0175 17.3951C22.3836 17.3951 21.8175 17.2412 21.4236 16.9982C21.2544 16.8935 21.1559 16.9551 21.1867 17.152C21.3036 17.9151 22.079 18.5059 23.0175 18.5059C23.9559 18.5059 24.7344 17.9151 24.8482 17.152C24.879 16.9551 24.7805 16.8935 24.6113 16.9982C24.2175 17.2412 23.6482 17.3951 23.0175 17.3951Z" fill="#312D2D"/>
<path d="M10.6113 14.4507C11.5929 13.0476 13.9221 13.023 15.0667 14.223C15.276 14.4415 15.4821 14.7368 15.2667 15.0322C15.0329 15.3553 14.6913 15.1984 14.4021 15.0784C13.6729 14.7799 12.8575 14.6968 12.0883 14.8784C11.9252 14.9153 11.7652 14.9676 11.6083 15.023C11.4513 15.0784 11.3006 15.183 11.1375 15.2168C10.7098 15.3092 10.3683 14.8138 10.6113 14.4507Z" fill="#454140"/>
<path d="M24.7837 15.1893C24.0975 14.8909 23.4021 14.7186 22.6452 14.8047C22.3006 14.8447 21.9621 14.9339 21.6421 15.0601C21.3867 15.1616 21.1129 15.3247 20.8483 15.1462C20.0944 14.6262 21.4298 13.7801 21.8237 13.6109C22.6729 13.2447 23.6852 13.2786 24.5067 13.7062C24.8329 13.8755 25.1867 14.1216 25.3806 14.4447C25.6237 14.8478 25.2606 15.3832 24.7837 15.1893Z" fill="#454140"/>
<path d="M21.0606 23.9979C21.0606 24.3086 19.6883 24.3733 17.999 24.3733C16.3098 24.3733 14.9375 24.3025 14.9375 23.9979C14.9375 23.6779 16.3098 23.481 17.999 23.481C19.6883 23.481 21.0606 23.6717 21.0606 23.9979Z" fill="#444444"/>
<path d="M18.0052 0.259766C18.0021 0.259766 18.0021 0.259766 17.999 0.259766C17.996 0.259766 17.996 0.259766 17.9929 0.259766C4.01135 0.333612 6.87596 16.3028 6.87596 16.3028C6.87596 16.3028 7.50365 17.949 7.78981 18.6751C7.82981 18.7798 7.98365 18.7675 8.00827 18.6598C8.30673 17.3244 9.38058 12.589 9.92212 11.1521C10.2421 10.3028 11.1221 9.81054 12.0113 9.97361C13.3806 10.2228 15.5652 10.5305 17.9713 10.5305H17.996C17.996 10.5305 18.0144 10.5305 18.0206 10.5305C20.4267 10.5305 22.6113 10.2228 23.9806 9.97361C24.8729 9.81054 25.7529 10.3059 26.0698 11.1521C26.6083 12.5859 27.676 17.2936 27.9775 18.6475C28.0021 18.7582 28.156 18.7675 28.196 18.6628L29.1129 16.3028C29.1221 16.3028 31.9837 0.333612 18.0052 0.259766Z" fill="#4D4D4D"/>
<path d="M29.1221 16.3028C29.1221 16.3028 31.9867 0.333612 18.0052 0.259766C18.0021 0.259766 18.0021 0.259766 17.999 0.259766C17.996 0.259766 17.9959 0.259766 17.9929 0.259766C17.7744 0.259766 17.5621 0.265919 17.3529 0.27515C16.9375 0.293612 16.5344 0.324381 16.1467 0.370535C16.1436 0.370535 16.1375 0.370535 16.1344 0.370535C16.1098 0.376689 16.0852 0.379766 16.0575 0.382843C4.28826 1.86284 6.87595 16.3028 6.87595 16.3028L7.79287 18.6659C7.83287 18.7705 7.98364 18.7613 8.00826 18.6505C8.3098 17.2998 9.38057 12.5859 9.9221 11.1521C10.2421 10.3028 11.1221 9.81053 12.0113 9.97361C13.3806 10.2228 15.5652 10.5305 17.9713 10.5305H17.996C17.996 10.5305 18.0144 10.5305 18.0206 10.5305C20.4267 10.5305 22.6113 10.2228 23.9806 9.97361C24.8729 9.81053 25.7529 10.3059 26.0698 11.1521C26.6113 12.5921 27.6852 17.3367 27.9836 18.6659C28.0083 18.7767 28.159 18.7859 28.199 18.6813C28.4883 17.9552 29.1221 16.3028 29.1221 16.3028Z" fill="url(#paint1_radial_46_10143)"/>
<path opacity="0.2" d="M23.6667 21.6843C24.2051 20.3212 24.1098 19.6627 23.7159 18.4135C23.6144 18.0904 23.5528 17.3858 23.5313 17.1458C23.4513 16.2289 23.7651 15.0689 23.9651 14.8381C24.3313 14.4166 24.4359 13.9612 24.3898 13.4904C24.3221 12.8073 23.1928 11.9489 21.9559 13.2319C21.4575 13.7519 21.2451 14.5796 21.2451 14.5796C20.6882 13.2535 19.7128 10.9089 19.5867 10.6104L19.5682 10.5643C19.3682 10.0627 18.9898 9.6781 18.5375 9.5181C18.1282 9.37041 17.6882 9.41041 17.2944 9.62579C17.0236 9.77349 16.8113 10.0012 16.679 10.2719C16.2544 9.87195 15.7067 9.73041 15.1621 9.91503C14.7344 10.0596 14.4082 10.3643 14.2451 10.7704C14.1375 11.0412 14.1067 11.3396 14.1528 11.6412C13.8175 11.5796 13.4698 11.6412 13.1559 11.8258C12.8667 11.9981 11.9836 12.6596 12.6975 14.0319C12.7128 14.0627 12.7344 14.1027 12.7621 14.1489C12.4913 14.1612 12.2728 14.2504 12.1313 14.3304C11.7313 14.5519 11.4575 14.9058 11.3651 15.3304C11.2636 15.7858 11.3836 16.2843 11.6851 16.6935L13.5867 19.4812C13.5867 19.4812 14.7775 21.2843 15.2667 22.035C15.6575 22.6319 16.0944 23.1212 16.5744 23.4904C16.4698 23.795 16.4882 24.1212 16.6175 24.3889L21.2144 36.995H31.8205C31.8205 36.995 23.6698 21.6873 23.6667 21.6843Z" fill="url(#paint2_linear_46_10143)"/>
<path d="M23.4667 12.9488C23.1344 12.8226 22.5959 12.9457 22.1221 13.5211C21.6482 14.0965 21.8113 14.8934 21.6144 15.3919C21.5498 15.5519 21.3252 15.5519 21.2605 15.3919C20.8298 14.3334 19.199 10.4657 19.199 10.4657C18.9898 9.93955 18.4944 9.64724 18.0082 9.91493C17.6205 10.1272 17.5498 10.6103 17.7282 11.0503L19.0482 14.5919C19.0667 14.638 19.0482 14.6903 19.0082 14.7088C18.9652 14.7303 18.9098 14.7119 18.8852 14.6626L16.7682 10.8165C16.5498 10.398 16.1713 10.118 15.7529 10.2595C15.2329 10.4349 15.119 11.0011 15.3805 11.5057L17.2944 15.4195C17.3436 15.5149 17.3129 15.6257 17.2298 15.678C17.2298 15.678 17.2267 15.678 17.2267 15.6811C17.1405 15.7334 17.0236 15.6995 16.9682 15.6042C16.9682 15.6042 15.2882 12.9488 15.0544 12.5611C14.8205 12.1734 14.3713 11.8195 13.8913 12.1026C13.4113 12.3857 13.4882 12.8472 13.7221 13.2934C13.9221 13.6749 15.1405 15.7365 15.4944 16.3303C15.5467 16.4195 15.519 16.5334 15.4329 16.5888C15.3529 16.6411 15.2452 16.6226 15.1836 16.5488L13.9005 14.9949C13.5836 14.6103 13.2329 14.4072 12.8482 14.6195C12.3682 14.8842 12.3282 15.4165 12.6636 15.8749L14.5713 18.6719C14.5713 18.6719 15.7652 20.478 16.2544 21.2288C17.5436 23.2042 18.9067 23.1488 19.1836 23.1549C19.9036 23.1703 21.4113 22.5365 21.8975 22.3026C24.6144 20.998 23.2544 18.6288 23.1313 17.2165C23.0544 16.3457 23.3867 14.7211 23.8175 14.1549C24.2329 13.5888 23.7467 13.0534 23.4667 12.9488Z" fill="url(#paint3_linear_46_10143)"/>
<path d="M22.519 36.9952L17.6759 23.7337C17.6698 23.7214 17.6667 23.706 17.6575 23.6937C17.6021 23.5798 17.5959 23.4506 17.6421 23.3337C17.6882 23.2168 17.7744 23.1214 17.8882 23.0721L22.9898 20.8291C23.0482 20.8044 23.1128 20.7891 23.1744 20.7891C23.3467 20.7891 23.5036 20.8844 23.5836 21.0352L32.7498 36.9952H22.519Z" fill="url(#paint4_linear_46_10143)"/>
<defs>
<linearGradient id="paint0_linear_46_10143" x1="17.999" y1="28.1268" x2="17.999" y2="38.2812" gradientUnits="userSpaceOnUse">
<stop stop-color="#00BFA5"/>
<stop offset="0.4701" stop-color="#00B29A"/>
<stop offset="1" stop-color="#009E89"/>
</linearGradient>
<radialGradient id="paint1_radial_46_10143" cx="0" cy="0" r="1" gradientUnits="userSpaceOnUse" gradientTransform="translate(17.9989 13.5114) scale(11.7207 13.2233)">
<stop offset="0.7945" stop-color="#454140" stop-opacity="0"/>
<stop offset="1" stop-color="#454140"/>
</radialGradient>
<linearGradient id="paint2_linear_46_10143" x1="20.0175" y1="25.0836" x2="16.1661" y2="26.8972" gradientUnits="userSpaceOnUse">
<stop offset="0.5089"/>
<stop offset="1" stop-opacity="0"/>
</linearGradient>
<linearGradient id="paint3_linear_46_10143" x1="16.2561" y1="10.0332" x2="21.4081" y2="21.8257" gradientUnits="userSpaceOnUse">
<stop offset="0.5" stop-color="#F9DDBD"/>
<stop offset="1" stop-color="#FFD29C"/>
</linearGradient>
<linearGradient id="paint4_linear_46_10143" x1="28.5116" y1="28.5229" x2="22.1575" y2="31.5282" gradientUnits="userSpaceOnUse">
<stop stop-color="#00BFA5"/>
<stop offset="0.4701" stop-color="#00B29A"/>
<stop offset="1" stop-color="#009E89"/>
</linearGradient>
</defs>
</svg>
