<svg width="16" height="16" viewBox="0 0 16 16" fill="none" xmlns="http://www.w3.org/2000/svg">
<path d="M2.24521 3.98506C2.25583 3.90005 2.27177 3.81505 2.29302 3.73004C2.30365 3.65566 2.31959 3.58128 2.34084 3.50691C2.36209 3.43253 2.38334 3.36877 2.40459 3.31564C2.42584 3.26252 2.45772 3.19876 2.50022 3.12438C2.5321 3.03938 2.55866 2.965 2.57992 2.90125C2.65429 2.76311 2.7393 2.62498 2.83493 2.48685C2.91993 2.33809 3.01025 2.20527 3.10588 2.08839C3.14838 2.03526 3.20151 1.97151 3.26527 1.89713C3.32902 1.82275 3.38746 1.75368 3.44059 1.68993C3.55747 1.57305 3.68498 1.45085 3.82311 1.32335C3.96124 1.19584 4.10469 1.08958 4.25345 1.00458C4.28532 0.983327 4.33314 0.95145 4.39689 0.908948C4.45002 0.866445 4.49784 0.829255 4.54034 0.797378C4.59347 0.776127 4.65722 0.744251 4.7316 0.701748C4.8166 0.64862 4.90161 0.600805 4.98661 0.558303C5.06099 0.526426 5.146 0.489236 5.24163 0.446733C5.33726 0.404231 5.41164 0.372355 5.46477 0.351103C5.52852 0.329852 5.59758 0.313914 5.67196 0.303288C5.75697 0.282037 5.82604 0.260786 5.87916 0.239535C5.93229 0.228909 5.99073 0.218283 6.05449 0.207658C6.12887 0.197032 6.19262 0.191719 6.24575 0.191719C6.29887 0.181094 6.37325 0.175781 6.46888 0.175781H6.70796C6.78234 0.186407 6.86203 0.197032 6.94704 0.207658C7.04267 0.207658 7.11705 0.21297 7.17017 0.223596C7.2233 0.234222 7.28174 0.25016 7.3455 0.271411C7.41988 0.292662 7.48363 0.308601 7.53676 0.319227C7.58988 0.340478 7.65364 0.372354 7.72802 0.414857C7.81302 0.446734 7.8874 0.478611 7.95116 0.510487C8.02553 0.531739 8.10523 0.563616 8.19023 0.606118L8.38149 0.733625C8.42399 0.765502 8.48244 0.813317 8.55681 0.87707C8.63119 0.930198 8.69495 0.983326 8.74808 1.03645L8.9234 1.21178C8.98715 1.27553 9.02965 1.32866 9.0509 1.37116C9.08278 1.41366 9.11997 1.46679 9.16247 1.53054C9.20498 1.5943 9.23685 1.65274 9.2581 1.70587C9.31123 1.79087 9.35905 1.92369 9.40155 2.10433C9.45468 2.28496 9.48124 2.41778 9.48124 2.50279C9.49187 2.56654 9.49718 2.64623 9.49718 2.74186V3.02875C9.49718 3.11376 9.49187 3.20408 9.48124 3.29971C9.48124 3.38471 9.47062 3.45378 9.44936 3.50691C9.42811 3.63441 9.38561 3.7938 9.32186 3.98506C9.26873 4.16569 9.21029 4.30914 9.14654 4.41539C9.11466 4.47915 9.07747 4.54821 9.03497 4.62259C8.99246 4.69697 8.95527 4.76073 8.9234 4.81385C8.84902 4.96261 8.7162 5.122 8.52494 5.29201C8.3443 5.45139 8.17429 5.57358 8.01491 5.65859C7.97241 5.69047 7.91928 5.7064 7.85553 5.7064C7.8024 5.7064 7.75458 5.69578 7.71208 5.67453C7.70145 5.65328 7.68552 5.63734 7.66426 5.62671C7.65364 5.60546 7.64301 5.58421 7.63239 5.56296C7.63239 5.54171 7.63239 5.51514 7.63239 5.48327C7.63239 5.46202 7.63239 5.44076 7.63239 5.41951C7.66426 5.36639 7.73864 5.28669 7.85553 5.18044C7.90865 5.12731 7.96709 5.07418 8.03085 5.02105C8.0946 4.9573 8.14242 4.90417 8.17429 4.86167C8.36555 4.67041 8.51962 4.44727 8.63651 4.19226C8.76401 3.93724 8.84902 3.6716 8.89152 3.39534C8.90215 3.34221 8.90746 3.28908 8.90746 3.23595C8.91808 3.18282 8.9234 3.14032 8.9234 3.10845C8.9234 3.05532 8.91808 3.00219 8.90746 2.94906C8.89683 2.87468 8.88621 2.79499 8.87558 2.70999C8.87558 2.62498 8.86496 2.55591 8.84371 2.50279C8.82245 2.36465 8.77995 2.25309 8.7162 2.16808C8.6737 2.07245 8.59932 1.97151 8.49306 1.86525C8.39743 1.759 8.30711 1.6793 8.22211 1.62617C8.0096 1.46679 7.77052 1.34991 7.50488 1.27553C7.31362 1.19053 7.11173 1.14802 6.89922 1.14802C6.81422 1.14802 6.73984 1.15334 6.67608 1.16396C6.6017 1.18521 6.52201 1.20115 6.43701 1.21178C6.352 1.2224 6.27762 1.23834 6.21387 1.25959C6.06511 1.29147 5.90041 1.35522 5.71978 1.45085C5.6454 1.49336 5.5604 1.54117 5.46477 1.5943C5.36913 1.64743 5.28413 1.69524 5.20975 1.73774C5.13537 1.79087 5.05037 1.85463 4.95474 1.92901C4.86973 1.99276 4.79535 2.0512 4.7316 2.10433C4.67847 2.16808 4.62003 2.23183 4.55628 2.29559C4.4819 2.35934 4.42346 2.41247 4.38095 2.45497C4.28532 2.57185 4.18969 2.69936 4.09406 2.83749C3.99843 2.965 3.92405 3.10313 3.87093 3.25189C3.82842 3.3369 3.79123 3.4219 3.75936 3.50691C3.71685 3.58128 3.68498 3.63973 3.66373 3.68223C3.64248 3.75661 3.62654 3.82036 3.61591 3.87349C3.60529 3.92662 3.59997 4.01693 3.59997 4.14444C3.59997 4.27195 3.60529 4.36758 3.61591 4.43133C3.62654 4.48446 3.64779 4.55353 3.67966 4.63853C3.70092 4.72354 3.75404 4.85104 3.83905 5.02105C3.91343 5.19106 3.97718 5.31326 4.03031 5.38764C4.06219 5.44076 4.10469 5.50452 4.15782 5.5789C4.20032 5.64265 4.24813 5.70109 4.30126 5.75422C4.34376 5.81797 4.40752 5.89235 4.49252 5.97736C4.5669 6.06236 4.63597 6.14205 4.69972 6.21643C4.7741 6.29081 4.85911 6.3705 4.95474 6.45551C5.05037 6.54051 5.13006 6.60958 5.19381 6.66271C5.25757 6.71584 5.33726 6.7849 5.43289 6.86991C5.53914 6.94429 5.63477 7.01335 5.71978 7.07711C5.88979 7.21524 6.0598 7.33743 6.22981 7.44369C6.41044 7.54995 6.59108 7.66151 6.77171 7.7784C6.80359 7.79965 6.84609 7.83152 6.89922 7.87403C6.96297 7.91653 7.02142 7.95903 7.07454 8.00153C7.12767 8.03341 7.19142 8.08123 7.2658 8.14498C7.34018 8.19811 7.40925 8.25124 7.473 8.30436C7.52613 8.35749 7.58989 8.41593 7.66426 8.47969C7.73864 8.54344 7.8024 8.60188 7.85553 8.65501C7.90865 8.69751 7.96709 8.75595 8.03085 8.83033C8.10523 8.90471 8.16898 8.97378 8.22211 9.03753C8.27524 9.09066 8.32836 9.16504 8.38149 9.26067C8.44525 9.34567 8.50369 9.42005 8.55681 9.4838C8.59932 9.54756 8.64182 9.61662 8.68432 9.691C8.73745 9.76538 8.77464 9.82914 8.79589 9.88226C8.84902 9.98852 8.8809 10.0416 8.89152 10.0416C8.9234 10.0204 8.96059 9.99383 9.00309 9.96196C9.03497 9.94071 9.06684 9.91414 9.09872 9.88226C9.14122 9.83976 9.18904 9.80257 9.24217 9.7707C9.3378 9.68569 9.43874 9.60069 9.545 9.51568C9.66188 9.43068 9.74688 9.36161 9.80001 9.30848C9.85314 9.25535 9.9222 9.1916 10.0072 9.11722C10.0922 9.04284 10.1613 8.97909 10.2144 8.92596C10.2782 8.87283 10.3366 8.81439 10.3897 8.75064C10.4535 8.68688 10.496 8.63907 10.5172 8.60719C10.5916 8.52219 10.6554 8.47969 10.7085 8.47969C10.7404 8.47969 10.7669 8.50625 10.7882 8.55938C10.7882 8.60188 10.7616 8.66563 10.7085 8.75064C10.6554 8.82502 10.5916 8.90471 10.5172 8.98971C10.4535 9.06409 10.3844 9.13316 10.31 9.19691C10.2463 9.26067 10.1985 9.30848 10.1666 9.34036C10.071 9.43599 9.94877 9.55287 9.80001 9.691C9.66188 9.82914 9.53437 9.94071 9.41749 10.0257C9.2156 10.1957 9.10403 10.302 9.08278 10.3445C9.07216 10.3764 9.06684 10.4082 9.06684 10.4401C9.06684 10.5039 9.08278 10.5836 9.11466 10.6792C9.13591 10.7642 9.16247 10.8598 9.19435 10.9661C9.22623 11.0617 9.24748 11.1414 9.2581 11.2052C9.27936 11.2902 9.28998 11.3805 9.28998 11.4761V12.2093C9.28998 12.2943 9.27936 12.374 9.2581 12.4483C9.24748 12.5015 9.23154 12.5652 9.21029 12.6396C9.19966 12.714 9.18904 12.7618 9.17841 12.7831L9.09872 12.9903C9.06684 13.0646 9.03497 13.1337 9.00309 13.1975C8.98184 13.2506 8.94465 13.3196 8.89152 13.4046C8.84902 13.4897 8.80652 13.564 8.76401 13.6278C8.72151 13.6809 8.66838 13.7447 8.60463 13.819C8.5515 13.9041 8.50369 13.9731 8.46118 14.0262C8.31243 14.1963 8.15835 14.3663 7.99897 14.5363C7.83959 14.7063 7.66958 14.855 7.48894 14.9826C7.43581 15.0357 7.36143 15.0888 7.2658 15.1419C7.1808 15.2057 7.11173 15.2588 7.05861 15.3013C7.00548 15.3438 6.93641 15.3863 6.85141 15.4288C6.77703 15.4713 6.70796 15.5085 6.64421 15.5404L6.45295 15.6201C6.36794 15.652 6.29887 15.6732 6.24575 15.6838C6.11824 15.737 5.95886 15.7742 5.76759 15.7954C5.57633 15.8167 5.41164 15.8273 5.2735 15.8273H4.9388C4.86442 15.8273 4.79535 15.8167 4.7316 15.7954C4.49784 15.7423 4.26939 15.6095 4.04625 15.3969C3.82311 15.1844 3.71154 14.9507 3.71154 14.6957C3.70092 14.6425 3.6956 14.5947 3.6956 14.5522C3.6956 14.4885 3.70623 14.43 3.72748 14.3769C3.74873 14.2706 3.78592 14.1644 3.83905 14.0581C3.8603 14.0156 3.89749 13.9572 3.95062 13.8828C3.99312 13.819 4.03562 13.7553 4.07812 13.6915C4.12063 13.6384 4.18438 13.564 4.26939 13.4684C4.35439 13.3728 4.43939 13.2825 4.5244 13.1975C4.6094 13.1124 4.69972 13.0221 4.79535 12.9265C4.90161 12.8309 4.99193 12.7565 5.06631 12.7034C5.13006 12.6502 5.231 12.5705 5.36913 12.4643C5.50727 12.3687 5.64009 12.273 5.76759 12.1774C5.79947 12.1561 5.91104 12.0765 6.1023 11.9383C6.29356 11.8108 6.49545 11.6727 6.70796 11.5239C6.92047 11.3858 7.11173 11.2583 7.28174 11.1414C7.45175 11.0245 7.54207 10.9661 7.5527 10.9661C7.5527 10.8917 7.49957 10.7801 7.39331 10.6314C7.28706 10.472 7.15955 10.3126 7.01079 10.1532C6.87266 9.98321 6.72921 9.82914 6.58045 9.691C6.43169 9.54224 6.31481 9.43599 6.22981 9.37224C6.15543 9.31911 6.05449 9.25004 5.92698 9.16504C5.8101 9.08003 5.69853 9.00034 5.59227 8.92596C5.47539 8.85158 5.35851 8.7772 5.24163 8.70282C5.12475 8.61782 5.03974 8.55406 4.98661 8.51156C4.93349 8.45843 4.85379 8.39468 4.74754 8.3203C4.65191 8.2353 4.55628 8.15029 4.46065 8.06529C4.025 7.67214 3.61591 7.24712 3.23339 6.79022C3.0315 6.52458 2.84024 6.21643 2.65961 5.86579C2.46835 5.51514 2.34615 5.16981 2.29302 4.82979C2.26115 4.70229 2.24521 4.52165 2.24521 4.28789C2.24521 4.17101 2.24521 4.07006 2.24521 3.98506ZM4.33314 14.5682C4.33314 14.6532 4.35439 14.7222 4.39689 14.7754C4.41814 14.7966 4.44471 14.8232 4.47658 14.855C4.50846 14.8975 4.53503 14.9294 4.55628 14.9507C4.57753 14.9719 4.60409 14.9932 4.63597 15.0144C4.66785 15.0357 4.6891 15.0516 4.69972 15.0622C4.72097 15.0729 4.74222 15.0782 4.76348 15.0782C4.79535 15.0888 4.82192 15.0994 4.84317 15.1101H5.30538C5.41164 15.1101 5.51789 15.1047 5.62415 15.0941C5.73041 15.0941 5.8101 15.0835 5.86323 15.0622C5.98011 15.041 6.08105 15.0144 6.16605 14.9826L6.45295 14.8391C6.48482 14.8179 6.53264 14.7807 6.59639 14.7275C6.67077 14.685 6.73984 14.6372 6.80359 14.5841L7.17017 14.2175C7.34018 14.0156 7.47832 13.8084 7.58457 13.5959C7.60582 13.5534 7.63239 13.495 7.66426 13.4206C7.69614 13.3568 7.72271 13.2984 7.74396 13.2453C7.76521 13.1921 7.78646 13.1231 7.80771 13.0381C7.82896 12.9637 7.85021 12.8946 7.87146 12.8309C7.89271 12.7352 7.90334 12.6502 7.90334 12.5759C7.90334 12.5121 7.89271 12.4112 7.87146 12.273C7.87146 12.2411 7.86615 12.1774 7.85553 12.0818C7.85553 11.9861 7.8449 11.8905 7.82365 11.7949C7.81302 11.6992 7.79708 11.6089 7.77583 11.5239C7.75458 11.4495 7.73333 11.4124 7.71208 11.4124C7.6802 11.4124 7.55801 11.492 7.3455 11.6514C7.23924 11.7364 7.12236 11.8267 6.99485 11.9224L6.67608 12.1615C6.39982 12.374 6.12887 12.5865 5.86323 12.799C5.59759 13.0221 5.33195 13.2453 5.06631 13.4684L4.89098 13.6597C4.8166 13.7234 4.75285 13.7872 4.69972 13.8509C4.64659 13.9253 4.59347 13.9997 4.54034 14.0741C4.47658 14.1591 4.43408 14.2281 4.41283 14.2813C4.3597 14.3875 4.33314 14.4831 4.33314 14.5682Z" fill="#3C1663"/>
<path d="M11.7781 10.5804C11.7781 10.3832 11.804 10.2172 11.8559 10.0823C11.9078 9.94222 11.9778 9.83067 12.066 9.74766C12.1542 9.65946 12.258 9.5972 12.3773 9.56088C12.4966 9.51938 12.6263 9.49862 12.7664 9.49862C12.9013 9.49862 13.0284 9.51938 13.1478 9.56088C13.2723 9.5972 13.3786 9.65946 13.4668 9.74766C13.555 9.83067 13.6251 9.94222 13.677 10.0823C13.7288 10.2172 13.7548 10.3832 13.7548 10.5804C13.7548 10.7723 13.7288 10.9384 13.677 11.0785C13.6251 11.2133 13.555 11.3249 13.4668 11.4131C13.3786 11.5013 13.2723 11.5662 13.1478 11.6077C13.0284 11.6492 12.9013 11.6699 12.7664 11.6699C12.6263 11.6699 12.4966 11.6492 12.3773 11.6077C12.258 11.5662 12.1542 11.5013 12.066 11.4131C11.9778 11.3249 11.9078 11.2133 11.8559 11.0785C11.804 10.9384 11.7781 10.7723 11.7781 10.5804Z" fill="#3C1663"/>
</svg>
