<svg width="37" height="37" viewBox="0 0 37 37" fill="none" xmlns="http://www.w3.org/2000/svg">
<path d="M17.2799 31.4144C16.1637 30.5399 5.79893 20.6995 5.68308 20.5919C5.22531 20.145 4.93708 19.6815 4.85796 19.2566C4.77602 18.8152 4.91448 18.429 5.28182 18.0704C5.62374 17.7366 6.04195 17.56 6.49124 17.56C7.03943 17.56 7.60175 17.8138 8.07082 18.2745L12.77 22.683C12.852 22.7602 12.9593 22.7989 13.0639 22.7989C13.1741 22.7989 13.2815 22.7575 13.3634 22.6775C13.5273 22.5175 13.5273 22.2581 13.3662 22.0981L5.86392 14.5337C5.11228 13.7998 4.75906 12.677 5.65199 11.8053C5.99391 11.4715 6.41212 11.2949 6.86141 11.2949C7.4096 11.2949 7.97192 11.5487 8.44099 12.0094L16.1157 19.3146C16.1976 19.3918 16.305 19.4332 16.4124 19.4332C16.5198 19.4332 16.63 19.3918 16.7119 19.3118C16.8758 19.1518 16.8786 18.8925 16.7147 18.7297L7.4972 9.50449C7.07051 9.08792 6.81337 8.58859 6.76816 8.10305C6.72577 7.60924 6.90379 7.15128 7.28527 6.77885C7.62718 6.44505 8.04539 6.26849 8.49468 6.26849C9.04287 6.26849 9.60519 6.52229 10.0743 6.98024L19.4755 15.9296C19.5574 16.0068 19.6648 16.0482 19.7722 16.0482C19.8796 16.0482 19.9898 16.0068 20.0717 15.9268C20.2356 15.7668 20.2384 15.5075 20.0745 15.3447L13.2476 8.49479C12.8181 8.07546 12.5609 7.57889 12.5185 7.09335C12.4761 6.59954 12.6542 6.14159 13.0356 5.76916C13.3775 5.43535 13.7958 5.25879 14.245 5.25879C14.7932 5.25879 15.3556 5.51259 15.8246 5.9733C18.3282 8.37341 24.8642 14.6495 25.0846 14.8813C25.9238 15.4468 26.0933 14.5916 26.1357 14.0371C26.1838 13.3916 25.4265 11.1377 25.8673 9.10999C26.6076 6.4147 28.7411 6.8561 28.7891 6.87817C29.9589 7.41337 29.7357 8.2134 29.3203 9.82175L29.2779 10.139C28.8428 12.2412 31.8324 18.4704 32.0528 18.9366C33.2255 21.4416 34.5762 26.5204 30.1031 30.8875C25.2004 35.6739 19.1307 33.2214 17.2799 31.4144Z" fill="url(#paint0_radial_2355_6336)"/>
<path d="M23.57 34.1012C20.5634 34.1012 18.0061 32.697 16.9973 31.7231C16.0903 31.0003 10.3653 25.6042 5.70286 21.1875C5.51354 21.0082 5.40334 20.9061 5.39203 20.8923C4.86362 20.3764 4.53584 19.8385 4.44259 19.3309C4.33521 18.7543 4.51888 18.2329 4.9823 17.7777C5.40616 17.3639 5.9261 17.146 6.49124 17.146C7.15529 17.146 7.82216 17.4439 8.37035 17.9818L13.0639 22.3848L5.55875 14.8203C4.69408 13.9762 4.25891 12.5775 5.35247 11.5126C5.77633 11.0988 6.29627 10.8808 6.86141 10.8808C7.52546 10.8808 8.19233 11.1788 8.74053 11.7167L16.4096 19.0164L7.19485 9.79391C6.70317 9.31389 6.40082 8.72627 6.34713 8.14142C6.29344 7.51795 6.51385 6.94689 6.98575 6.48618C7.40961 6.07237 7.92954 5.85443 8.49469 5.85443C9.15591 5.85443 9.82278 6.14961 10.3738 6.68756L19.7722 15.6342L12.9452 8.78421C12.4507 8.30143 12.1484 7.71382 12.0975 7.12896C12.0438 6.50825 12.2642 5.93719 12.7361 5.47648C13.16 5.06267 13.6799 4.84473 14.2451 4.84473C14.9091 4.84473 15.576 5.14267 16.1242 5.68062L18.1615 7.63105C21.7926 11.1071 24.8274 14.0175 25.1524 14.3431C25.3106 14.4672 25.5169 14.5141 25.6045 14.4727C25.661 14.4451 25.7232 14.3182 25.7119 14.0506C25.6949 13.5817 25.6271 12.9996 25.5565 12.3844C25.4152 11.1484 25.2682 9.86839 25.4519 9.02422C25.8532 7.55933 26.6415 6.93861 27.2293 6.67101C28.0375 6.30686 28.8202 6.43376 28.9699 6.50273C30.4393 7.17586 30.1483 8.30143 29.747 9.86287L29.7385 9.9015L29.6933 10.2243C29.3995 11.6367 30.9084 15.5404 32.4173 18.7212L32.4399 18.7653C33.4487 20.9171 35.2657 26.4374 30.4054 31.1824C28.1703 33.3591 25.7514 34.1012 23.57 34.1012ZM6.49124 17.9736C6.15781 17.9736 5.84132 18.1088 5.58136 18.3626C5.31291 18.6246 5.21966 18.8784 5.27618 19.1819C5.33834 19.5157 5.58983 19.913 5.98261 20.2992C5.98544 20.3019 6.09847 20.4095 6.29344 20.5916C12.9113 26.8622 16.9069 30.5893 17.5455 31.0914L17.5794 31.1217C19.1392 32.6446 24.9348 35.3481 29.8035 30.5948C34.288 26.2167 32.601 21.1047 31.6657 19.1074L31.6459 19.066C30.6739 17.019 28.4641 12.0533 28.8569 10.0725L28.9219 9.65873C29.3571 7.97038 29.3825 7.61726 28.645 7.26966C28.4274 7.23104 26.8676 7.0462 26.2714 9.21733C26.1216 9.90977 26.2657 11.176 26.3929 12.2933C26.4663 12.9251 26.5342 13.5237 26.5511 14.0231C26.5794 14.8093 26.1979 15.11 25.9662 15.2203C25.4943 15.4438 24.932 15.2535 24.5816 14.9665L24.5448 14.9334C24.3725 14.7514 20.2723 10.8257 17.5596 8.22694L15.5195 6.271C14.8243 5.58959 13.9286 5.47648 13.3267 6.06409C13.0328 6.351 12.9 6.68757 12.9311 7.06C12.965 7.44898 13.1798 7.85451 13.5386 8.20487L20.3797 15.0548C20.7019 15.3748 20.7019 15.899 20.3741 16.219C20.0604 16.5252 19.5066 16.5308 19.1844 16.2273L9.77757 7.27518C9.08244 6.59653 8.18386 6.48342 7.5848 7.07103C7.29092 7.35794 7.15812 7.69451 7.1892 8.06694C7.22593 8.45592 7.44069 8.86421 7.79673 9.20905L17.0171 18.4398C17.3421 18.7598 17.3392 19.284 17.0114 19.604C16.6978 19.9102 16.1439 19.9157 15.8218 19.6123L8.1443 12.3044C7.44917 11.6202 6.55058 11.5098 5.95153 12.0975C5.21966 12.812 5.60961 13.6975 6.16346 14.241L13.6714 21.811C13.9936 22.131 13.9907 22.6524 13.663 22.9697C13.3465 23.2786 12.7983 23.2814 12.4761 22.9807L7.77695 18.5722C7.38135 18.1832 6.92641 17.9736 6.49124 17.9736Z" fill="#EDA600"/>
<path d="M24.4092 14.6133C22.8579 17.7058 23.0585 22.0343 25.3869 25.5075C25.6497 25.9765 26.099 25.7476 25.8701 25.2648C23.0585 19.3914 26.0058 15.1595 26.0058 15.1595L24.4092 14.6133Z" fill="#EDA600"/>
<path d="M18.3084 3.01535C19.1618 2.79741 20.0717 2.81672 20.9562 3.01811C21.835 3.22502 22.7138 3.6609 23.3665 4.37265C24.0051 5.07889 24.3979 5.93686 24.5307 6.83621C24.655 7.72728 24.5392 8.64594 24.1069 9.40735C24.056 8.55214 23.9034 7.7659 23.6463 7.04036C23.5134 6.67896 23.358 6.33412 23.1687 6.00859C22.9822 5.68581 22.7618 5.3658 22.5273 5.10372C22.0497 4.56576 21.4026 4.14644 20.6764 3.8209C19.9474 3.48434 19.1533 3.23605 18.3084 3.01535Z" fill="#B0BEC5"/>
<path d="M18.543 5.63111C19.0149 5.33868 19.6055 5.27799 20.1621 5.37455C20.7245 5.4711 21.2613 5.74422 21.6852 6.12217C22.1062 6.50563 22.4058 6.98841 22.5923 7.4905C22.6827 7.74155 22.7279 8.00639 22.7703 8.26295C22.7844 8.52779 22.7844 8.79263 22.742 9.05747C22.5471 8.85608 22.3945 8.65469 22.2504 8.45882C22.0836 8.27398 21.9537 8.07811 21.8039 7.8988C21.51 7.54292 21.2246 7.22015 20.9166 6.93324C20.6001 6.6546 20.2667 6.40908 19.8796 6.19665C19.4953 5.97871 19.0629 5.79664 18.543 5.63111Z" fill="#90A4AE"/>
<path d="M2.38827 23.1104C2.7867 23.8718 3.20208 24.578 3.68528 25.2015C4.16565 25.825 4.71667 26.3546 5.35811 26.6995C5.66894 26.8678 6.03911 27.014 6.40081 27.1243C6.76533 27.2374 7.14398 27.3147 7.53393 27.3671C8.31383 27.4609 9.13329 27.4443 10.0008 27.3147C9.32827 27.8857 8.42968 28.1892 7.51415 28.2554C6.58731 28.3161 5.64634 28.1202 4.80427 27.6568C3.95655 27.185 3.33489 26.4346 2.94494 25.6374C2.55499 24.8346 2.34588 23.9711 2.38827 23.1104Z" fill="#B0BEC5"/>
<path d="M5.05853 22.7871C5.33263 23.2506 5.6039 23.623 5.9006 23.9485C6.19447 24.2741 6.51096 24.5417 6.85569 24.7844C7.20609 25.0189 7.59039 25.2258 8.00859 25.4327C8.2177 25.5376 8.44093 25.6203 8.66134 25.7417C8.89022 25.8383 9.12193 25.9403 9.36495 26.0866C9.1078 26.1804 8.84501 26.2355 8.57657 26.2769C8.31095 26.288 8.03685 26.3017 7.76558 26.2659C7.22304 26.1942 6.6805 26.0093 6.20578 25.6865C5.73953 25.3583 5.35241 24.9031 5.14048 24.3872C4.92572 23.8741 4.86355 23.3002 5.05853 22.7871Z" fill="#90A4AE"/>
<defs>
<radialGradient id="paint0_radial_2355_6336" cx="0" cy="0" r="1" gradientUnits="userSpaceOnUse" gradientTransform="translate(12.9046 12.2577) rotate(-44.3127) scale(25.4133 25.406)">
<stop offset="0.3533" stop-color="#FFCA28"/>
<stop offset="0.8723" stop-color="#FFB300"/>
</radialGradient>
</defs>
</svg>
