<svg width="36" height="37" viewBox="0 0 36 37" fill="none" xmlns="http://www.w3.org/2000/svg">
<path d="M7.07636 29.155C12.5193 34.5979 21.8051 37.0559 29.295 29.5633C36.7849 22.0706 34.3297 12.7875 28.8867 7.34459C25.8715 4.32104 22.0782 2.52787 18.1967 2.27683C13.9621 2.02303 9.96473 3.64239 6.66807 6.93905C3.37141 10.2357 1.77135 14.2138 2.02515 18.4484C2.27896 22.3272 4.07764 26.1507 7.07636 29.155Z" fill="url(#paint0_radial_46_10124)"/>
<path d="M15.1125 2.42578C12.3979 3.06304 9.87096 4.51964 7.63365 6.74041C4.32319 10.0509 2.73693 14.0179 2.99073 18.2498C3.25005 22.1395 5.04873 25.9548 8.05297 28.9591C11.5759 32.482 16.7098 34.7524 21.9265 33.8834C16.3815 35.2296 10.82 32.8985 7.07639 29.155C4.07767 26.1507 2.27898 22.3271 2.02518 18.4456C1.77138 14.211 3.37143 10.2329 6.6681 6.93628C9.1537 4.45068 12.0393 2.91959 15.1125 2.42578Z" fill="#EB8F00"/>
<path d="M8.8475 11.8112C9.61166 11.5905 10.4227 11.9685 10.7455 12.6968C12.1662 15.2817 13.9511 17.6459 16.045 19.7232C18.1195 21.8171 20.4865 23.602 23.0714 25.0199C23.797 25.3455 24.1722 26.1538 23.957 26.9179C23.7308 27.6766 22.9721 28.049 22.2576 28.3166C18.2547 29.8146 13.849 28.7001 10.4641 25.3344L10.431 25.3041C7.06812 21.9191 5.95361 17.5135 7.45159 13.5078C7.71642 12.7961 8.09161 12.0347 8.8475 11.8112Z" fill="#422B0D"/>
<path d="M10.6766 25.0581L10.6931 25.0746V25.0912L10.6766 25.0581Z" fill="#422B0D"/>
<path d="M15.7721 19.9326L15.8024 19.9602L15.83 19.9905L15.7721 19.9326Z" fill="#422B0D"/>
<path d="M15.7721 19.9326L15.8024 19.9602L15.83 19.9905L15.7721 19.9326Z" fill="#422B0D"/>
<path d="M10.6766 25.0581L10.6931 25.0746V25.0912L10.6766 25.0581Z" fill="#422B0D"/>
<path d="M8.10559 21.4165C8.24628 21.4165 8.38146 21.4358 8.51388 21.4468C10.0119 21.5434 11.4188 22.1972 12.4588 23.2786C13.5734 24.349 14.2796 25.778 14.4562 27.3146C14.4727 27.4498 14.4893 27.5905 14.4975 27.7229C14.5058 27.8553 14.4755 27.9657 14.4589 28.076C12.9664 27.4195 11.6119 26.4898 10.4643 25.3339L10.4312 25.3035C9.32494 24.2028 8.4256 22.9117 7.7773 21.4937C7.88489 21.4606 7.99524 21.4358 8.10559 21.4165Z" fill="#ED7770"/>
<path d="M10.7455 12.6968C12.1662 15.2817 13.9511 17.6459 16.045 19.7232C18.1195 21.8171 20.4865 23.602 23.0714 25.0199C23.797 25.3455 24.1722 26.1538 23.957 26.9179C23.9211 27.031 23.8742 27.1386 23.8135 27.2407C23.7004 27.2021 23.5928 27.1579 23.4852 27.1055C19.9624 25.9358 16.7678 23.944 14.1718 21.2901C11.6255 18.799 9.68339 15.7617 8.49162 12.4043C8.44472 12.2912 8.40334 12.1754 8.36748 12.0567C8.51093 11.9464 8.6737 11.8609 8.8475 11.8112C9.61166 11.5905 10.4227 11.9685 10.7455 12.6968Z" fill="white"/>
<path d="M15.8297 20.1364C14.2104 18.5695 13.151 17.0301 11.8765 15.1542C11.5592 14.6852 11.2585 14.2052 10.9689 13.7114L10.7592 13.3389C10.704 13.2424 10.6434 13.1486 10.5716 13.0631C10.4447 12.9058 10.282 12.7844 10.0944 12.7072C9.65849 12.5472 9.18124 12.5389 8.73984 12.6851C7.84326 13.1155 7.06255 14.6493 7.16186 14.3624C7.16186 14.3624 7.32462 13.7196 7.33014 13.7114C7.55084 13.1596 7.77705 12.5362 8.34811 12.0561C8.96054 11.5899 9.77712 11.4961 10.4778 11.8134C10.8061 11.9623 11.0903 12.1913 11.3054 12.4782C11.4103 12.6106 11.5041 12.7541 11.5813 12.9058L11.7662 13.27C12.0227 13.7527 12.2958 14.23 12.5938 14.6962C13.6531 16.4646 14.9028 18.1115 16.3208 19.6067L16.3649 19.6509C17.8298 21.0523 19.4437 22.2854 21.1816 23.3282C21.6506 23.6041 22.1251 23.88 22.6079 24.1559L22.9831 24.3462C23.1348 24.4234 23.2783 24.5145 23.4107 24.6221C23.7003 24.8373 23.9293 25.1214 24.0783 25.4497C24.3735 26.1449 24.2686 26.9477 23.8024 27.5436C23.0603 28.5119 21.3665 28.647 21.3582 28.647C21.0823 28.7464 22.7541 28.0346 23.1845 27.138C23.3362 26.7132 23.3362 26.247 23.1845 25.8221C23.1127 25.629 22.9941 25.458 22.8369 25.3256C22.7513 25.2538 22.6576 25.1931 22.561 25.1407L22.1886 24.9311C21.6975 24.6552 21.2175 24.3379 20.7458 24.0207C18.8726 22.7462 17.4353 21.8137 15.8766 20.1805" fill="#EB8F00"/>
<path d="M3.76599 9.5428C3.43494 11.6505 5.37156 13.6478 7.12886 13.885C8.36476 14.0505 9.74412 13.7664 11.8187 13.2505C12.1249 13.1926 12.4366 13.1015 12.7787 13.016C14.0422 12.6657 15.2836 12.2436 16.5002 11.7525C16.7402 11.6643 16.8726 11.4105 16.8119 11.1649C16.7761 11.0601 16.7044 10.9691 16.6133 10.9084C15.6836 9.95385 14.6353 9.12072 13.4987 8.42552C10.6269 6.64891 9.53446 6.4089 8.29855 6.24338C6.59367 5.96475 4.12462 7.24203 3.76599 9.5428Z" fill="url(#paint1_radial_46_10124)"/>
<path d="M6.41706 7.57061C5.61427 7.95131 5.60876 9.05204 6.83362 9.22584C7.61986 9.33067 11.6669 9.71137 11.1952 8.96376C10.4227 7.73613 7.55089 7.03266 6.41706 7.57061Z" fill="#81D4FA"/>
<path d="M15.4848 9.47715L18.031 11.7614L17.0876 8.13365C17.0793 8.08951 17.071 8.04813 17.0683 8.00399C16.9634 7.37501 17.391 6.77912 18.02 6.67705C18.169 6.65222 18.3235 6.65774 18.4724 6.69084C19.1428 6.87568 19.6283 7.46053 19.6835 8.15296C19.8408 9.75578 20.2104 13.5325 20.3539 15.0028C20.398 15.1491 20.3153 15.3035 20.169 15.3477C20.0725 15.378 19.9677 15.3504 19.8959 15.2787L14.1882 11.6703L14.075 11.5903C13.3854 11.0606 13.2171 10.051 13.7744 9.46611C14.1992 9.0192 14.933 9.05506 15.4848 9.47715Z" fill="#422B0D"/>
<path d="M28.3821 29.5879C28.4814 28.3989 28.4842 27.3285 27.4111 24.2746C26.9917 23.0663 26.4234 21.9159 25.72 20.8483C25.6813 20.749 25.6096 20.6662 25.5186 20.611C25.3006 20.5007 25.0358 20.5752 24.9034 20.7793C24.1944 21.8166 23.5461 22.8925 22.9557 24.0015C22.8068 24.305 22.6578 24.5753 22.5392 24.8512C21.6288 26.6968 21.0798 27.9299 20.9805 29.1189C20.8398 30.81 22.3102 33.0335 24.3489 33.1604C26.5696 33.2873 28.2773 31.2431 28.3821 29.5879Z" fill="url(#paint2_radial_46_10124)"/>
<path d="M26.4232 26.3245C25.8245 25.7258 25.3473 29.588 25.2838 30.3467C25.1873 31.5274 26.219 31.7481 26.7377 31.0777C27.477 30.1398 27.408 27.2955 26.4232 26.3245Z" fill="#81D4FA"/>
<path d="M27.2039 22.625L25.3666 19.7366L28.7902 21.2649L28.9061 21.3118C29.5102 21.516 30.1668 21.1932 30.3737 20.589C30.4233 20.4456 30.4427 20.2938 30.4316 20.1421C30.3599 19.4497 29.8633 18.8759 29.1874 18.7076L22.561 16.9117C22.4231 16.8455 22.2576 16.9034 22.1913 17.0413C22.1472 17.1324 22.1555 17.24 22.2162 17.32L24.8287 23.5409C24.8452 23.585 24.8645 23.6264 24.8866 23.6678C25.2949 24.4347 26.266 24.7712 26.9336 24.3133C27.4439 23.9657 27.5267 23.2429 27.2039 22.625Z" fill="#422B0D"/>
<defs>
<radialGradient id="paint0_radial_46_10124" cx="0" cy="0" r="1" gradientUnits="userSpaceOnUse" gradientTransform="translate(18.3885 17.7403) rotate(-135) scale(15.7779)">
<stop offset="0.5" stop-color="#FDE030"/>
<stop offset="0.92" stop-color="#F7C02B"/>
<stop offset="1" stop-color="#F4A223"/>
</radialGradient>
<radialGradient id="paint1_radial_46_10124" cx="0" cy="0" r="1" gradientUnits="userSpaceOnUse" gradientTransform="translate(14.1512 9.3121) rotate(-82.5191) scale(8.70445 13.4626)">
<stop offset="0.46" stop-color="#29B6F6"/>
<stop offset="1" stop-color="#1E88E5"/>
</radialGradient>
<radialGradient id="paint2_radial_46_10124" cx="0" cy="0" r="1" gradientUnits="userSpaceOnUse" gradientTransform="translate(24.6463 21.2272) rotate(4.57392) scale(8.37454 12.8181)">
<stop offset="0.46" stop-color="#29B6F6"/>
<stop offset="1" stop-color="#1E88E5"/>
</radialGradient>
</defs>
</svg>
