<svg width="25" height="25" viewBox="0 0 25 25" fill="none" xmlns="http://www.w3.org/2000/svg">
<g clip-path="url(#clip0_2335_2569)">
<path fill-rule="evenodd" clip-rule="evenodd" d="M23.5037 23.2461H18.6412V15.512C18.6412 13.488 17.8812 12.1058 16.2082 12.1058C14.9292 12.1058 14.2177 13.0386 13.8867 13.9373C13.7622 14.2596 13.7817 14.709 13.7817 15.1583V23.2461H8.96466C8.96466 23.2461 9.02666 9.54614 8.96466 8.30094H13.7817V10.6467C14.0667 9.62094 15.6057 8.15739 18.0617 8.15739C21.1092 8.15739 23.5037 10.3068 23.5037 14.9361V23.2461ZM4.09366 6.43149H4.06216C2.51016 6.43149 1.50366 5.28914 1.50366 3.84099C1.50366 2.36479 2.53966 1.24609 4.12316 1.24609C5.70516 1.24609 6.67816 2.36204 6.70866 3.83659C6.70866 5.28474 5.70516 6.43149 4.09366 6.43149ZM2.05866 8.30094H6.34666V23.2461H2.05866V8.30094Z" fill="#007EBB"/>
</g>
<defs>
<clipPath id="clip0_2335_2569">
<rect width="24" height="24" fill="white" transform="translate(0.503662 0.246094)"/>
</clipPath>
</defs>
</svg>
