<svg width="17" height="17" viewBox="0 0 17 17" fill="none" xmlns="http://www.w3.org/2000/svg">
<g clip-path="url(#clip0_2335_2930)">
<path d="M14.2702 6.91309C14.2702 11.5798 8.2702 15.5798 8.2702 15.5798C8.2702 15.5798 2.2702 11.5798 2.2702 6.91309C2.2702 5.32179 2.90234 3.79566 4.02756 2.67045C5.15278 1.54523 6.6789 0.913086 8.2702 0.913086C9.8615 0.913086 11.3876 1.54523 12.5128 2.67045C13.6381 3.79566 14.2702 5.32179 14.2702 6.91309Z" stroke="#8940D5" stroke-width="1.5" stroke-linecap="round" stroke-linejoin="round"/>
<path d="M8.2702 8.91309C9.37477 8.91309 10.2702 8.01766 10.2702 6.91309C10.2702 5.80852 9.37477 4.91309 8.2702 4.91309C7.16563 4.91309 6.2702 5.80852 6.2702 6.91309C6.2702 8.01766 7.16563 8.91309 8.2702 8.91309Z" stroke="#8940D5" stroke-width="1.5" stroke-linecap="round" stroke-linejoin="round"/>
</g>
<defs>
<clipPath id="clip0_2335_2930">
<rect width="16" height="16" fill="white" transform="translate(0.270203 0.246094)"/>
</clipPath>
</defs>
</svg>
