<svg width="25" height="24" viewBox="0 0 25 24" fill="none" xmlns="http://www.w3.org/2000/svg">
<g clip-path="url(#clip0_2335_2562)">
<path d="M13.0483 0.522461H14.6788V5.97534C17.5032 5.98079 20.3251 5.9674 23.147 5.97534C23.7031 5.94806 24.464 6.10877 24.4531 6.80966C24.5567 10.2586 24.456 13.7159 24.5027 17.1678C24.5136 17.7784 24.4947 18.7412 23.6629 18.7491C20.6718 18.8528 17.6728 18.7571 14.6793 18.7898V23.9704H12.9883C8.83303 23.2149 4.66686 22.52 0.506638 21.7878C0.504654 15.4277 0.503662 9.0681 0.503662 2.70897C4.6862 1.97583 8.86825 1.26651 13.0483 0.522461Z" fill="#0071C5"/>
<path d="M14.6789 6.79451C17.6997 6.79699 20.7181 6.78657 23.7389 6.79996C23.7285 6.97835 23.6823 7.15283 23.6032 7.31302C23.524 7.47322 23.4134 7.61587 23.2781 7.7325C21.4732 9.41471 19.6737 11.1012 17.8798 12.792C16.7974 11.8134 15.7468 10.8015 14.6789 9.80641V6.79451ZM6.3495 7.79104C7.10871 7.52794 7.93891 7.5586 8.67666 7.87698C9.4144 8.19535 10.0062 8.77838 10.3356 9.51127C11.225 11.5564 11.099 14.3535 9.33214 15.8997C7.70317 17.293 4.97499 16.4994 4.23343 14.5202C3.25773 12.238 3.73194 8.72606 6.3495 7.79104Z" fill="white"/>
<path d="M18.736 13.0341C20.3729 11.4771 22.0267 9.93142 23.6735 8.38281C23.6814 11.5782 23.6735 14.7762 23.6765 17.9716H14.679C14.679 15.594 14.6798 13.2173 14.6814 10.8416C15.6983 11.7414 16.609 12.7667 17.6889 13.5872C18.1333 13.6695 18.4334 13.2851 18.736 13.0341Z" fill="white"/>
<path d="M6.61378 9.42995C6.97241 9.27154 7.37849 9.25833 7.74666 9.39311C8.11482 9.52789 8.4164 9.80015 8.58798 10.1527C9.09913 11.2645 9.1655 12.5297 8.7735 13.6889C8.52003 14.4984 7.63263 15.1666 6.77499 14.8476C5.70356 14.5093 5.37915 13.239 5.36824 12.2439C5.35435 11.2132 5.59146 9.92896 6.61378 9.42995Z" fill="#0071C5"/>
</g>
<defs>
<clipPath id="clip0_2335_2562">
<rect width="24" height="23.4479" fill="white" transform="translate(0.503662 0.522461)"/>
</clipPath>
</defs>
</svg>
