<svg width="106" height="106" viewBox="0 0 106 106" fill="none" xmlns="http://www.w3.org/2000/svg">
<g opacity="0.65" clip-path="url(#clip0_2082_11638)">
<path fill-rule="evenodd" clip-rule="evenodd" d="M34.7053 72.1938C33.7207 71.3346 33.3516 69.9089 33.8897 68.6409L33.9537 68.49C36.6822 62.0595 37.0957 54.8817 35.1248 48.1851C33.5271 42.7825 33.7509 36.6583 36.2019 30.8819C37.6022 27.5817 39.5895 24.7251 41.9669 22.3971C42.685 21.6942 43.6994 21.3821 44.6886 21.5592C45.6779 21.7363 46.5199 22.3818 46.9493 23.2902L51.9566 33.8988L56.2328 32.8428C57.7843 32.4591 59.3732 33.3157 59.9059 34.8221L63.7137 45.591L68.9886 44.9958C70.1869 44.8606 71.3558 45.4315 71.9858 46.4612L75.213 51.7343C75.9015 52.8593 75.8049 54.2957 74.9718 55.318C72.7572 58.0352 70.0626 60.2122 67.1091 61.7546C60.9203 64.9925 56.0461 70.2767 53.3179 76.7064L53.2311 76.9027C52.6804 78.1439 51.414 78.8472 50.1299 78.7386L46.6356 86.9737C45.4844 89.6869 42.3521 90.9529 39.639 89.8017L34.039 87.4256C31.3258 86.2743 30.0598 83.1421 31.2111 80.4289L34.7053 72.1938ZM45.0104 82.8527L35.3039 78.7341L34.0701 81.642C33.589 82.7758 34.1183 84.0855 35.2521 84.5666L40.8521 86.9427C41.9859 87.4237 43.2955 86.8944 43.7766 85.7606L45.0104 82.8527ZM37.5043 73.5484L36.5173 75.8744L46.2239 79.993L47.2108 77.6669L37.5043 73.5484ZM44.1402 24.6159L50.2334 37.524L56.9779 35.8581L61.6089 48.9536L69.3361 48.0825L72.564 53.3559C70.622 55.7387 68.2611 57.6487 65.6688 59.0027C58.8431 62.5735 53.468 68.4015 50.4589 75.4933C50.4142 75.5905 50.3919 75.643 50.3919 75.643L36.7487 69.854L36.8127 69.7031C39.8221 62.6106 40.2787 54.6947 38.1033 47.3038C36.6994 42.5557 36.9066 37.1721 39.0609 32.095C40.2951 29.1864 42.0451 26.6679 44.1402 24.6159ZM79.6139 36.7389L77.9453 35.5267C77.5074 35.2083 77.2664 34.6853 77.3097 34.1452C77.3537 33.6055 77.6755 33.1269 78.159 32.8837L86.699 28.5802C87.4642 28.1941 88.3988 28.5021 88.7845 29.268C89.1705 30.0333 88.8619 30.9675 88.0967 31.3535L81.8318 34.511L83.5007 35.7224C83.9387 36.0408 84.1793 36.5645 84.1353 37.1043C84.0923 37.6436 83.7705 38.1222 83.2867 38.3661L74.747 42.6689C73.9818 43.0549 73.0472 42.747 72.6615 41.9811C72.2755 41.2158 72.5841 40.2816 73.3494 39.8956L79.6139 36.7389ZM56.9301 18.069L57.1018 25.8324C57.1213 26.6891 57.8324 27.3694 58.6887 27.3507C59.5461 27.3316 60.2264 26.6205 60.207 25.7638L60.0353 18.0004C60.0166 17.1441 59.3054 16.4638 58.4484 16.4822C57.5918 16.5016 56.9114 17.2127 56.9301 18.069ZM72.9279 21.091L69.0669 27.8281C68.6413 28.5716 68.899 29.5216 69.6425 29.9472C70.3857 30.3736 71.3357 30.1159 71.7624 29.3719L75.6224 22.6352C76.049 21.8913 75.791 20.942 75.0471 20.5153C74.3036 20.0897 73.3536 20.3474 72.9279 21.091Z" fill="#D6D1DA"/>
</g>
<defs>
<clipPath id="clip0_2082_11638">
<rect width="80" height="80" fill="white" transform="translate(31.7446 0.839844) rotate(22.992)"/>
</clipPath>
</defs>
</svg>
