<svg width="24" height="24" viewBox="0 0 24 24" fill="none" xmlns="http://www.w3.org/2000/svg">
<g clip-path="url(#clip0_13_15288)">
<path d="M10.8644 14.3939C10.8262 14.3938 10.7884 14.387 10.7533 14.3738C10.7181 14.3607 10.6863 14.3415 10.6598 14.3174C10.6333 14.2932 10.6125 14.2647 10.5988 14.2334C10.585 14.2021 10.5786 14.1687 10.5798 14.1351C10.5875 13.7911 10.6298 13.4484 10.7063 13.111C10.7867 12.7626 10.9334 12.4287 11.1403 12.1232C11.367 11.8029 11.6487 11.5153 11.9756 11.2706C12.2395 11.0759 12.4904 10.8679 12.7269 10.6476C12.9275 10.4625 13.0986 10.2543 13.2355 10.0287C13.361 9.81459 13.425 9.57681 13.4222 9.33601C13.454 8.97824 13.3287 8.62335 13.0722 8.34411C12.9345 8.22849 12.7708 8.13956 12.5915 8.08307C12.4123 8.02659 12.2215 8.00382 12.0316 8.01623C11.6669 8.01548 11.3135 8.12717 11.033 8.33183C10.9009 8.43373 10.7937 8.55801 10.7177 8.6972C10.6417 8.8364 10.5985 8.98764 10.5906 9.14187C10.5836 9.20376 10.5508 9.2612 10.4985 9.30311C10.4462 9.34501 10.3781 9.36842 10.3072 9.36882H8.03461C7.99544 9.36869 7.95671 9.36149 7.92083 9.34767C7.88496 9.33384 7.8527 9.31369 7.82607 9.28845C7.79943 9.26321 7.77899 9.23344 7.76601 9.20097C7.75304 9.1685 7.7478 9.13404 7.75062 9.09972C7.77386 8.51702 7.9743 7.95041 8.33111 7.45875C8.70855 6.96522 9.24457 6.58143 9.87101 6.3562C10.5567 6.11142 11.2915 5.99016 12.0316 5.99961C13.1454 5.94065 14.2464 6.2344 15.1347 6.82755C15.5148 7.12636 15.8126 7.49706 16.0058 7.91171C16.199 8.32635 16.2825 8.77411 16.25 9.22123C16.2616 9.65704 16.1527 10.0888 15.9327 10.4796C15.712 10.8486 15.4305 11.1869 15.0974 11.4838C14.7521 11.7953 14.3741 12.1204 13.9634 12.4593C13.6472 12.6859 13.4016 12.9792 13.2495 13.3118C13.1429 13.5866 13.0796 13.873 13.0614 14.1629C13.0561 14.2257 13.0239 14.2845 12.9713 14.3273C12.9187 14.3702 12.8496 14.3939 12.7778 14.3939L10.8644 14.3939ZM10.277 16.6962C10.2718 16.5235 10.3073 16.3517 10.3812 16.1916C10.455 16.0316 10.5657 15.8866 10.7063 15.7658C10.8591 15.6389 11.0396 15.5404 11.2369 15.4763C11.4342 15.4122 11.6442 15.3838 11.8543 15.3928C12.0637 15.3836 12.273 15.4119 12.4695 15.476C12.6661 15.5402 12.8457 15.6387 12.9975 15.7658C13.27 16.0156 13.4222 16.3482 13.4222 16.6941C13.4222 17.0401 13.27 17.3727 12.9975 17.6225C12.8464 17.7507 12.667 17.8503 12.4704 17.9152C12.2738 17.98 12.0641 18.0088 11.8543 17.9996C11.6438 18.0085 11.4334 17.9797 11.2361 17.9149C11.0387 17.85 10.8584 17.7505 10.7063 17.6225C10.5665 17.502 10.4562 17.3577 10.3824 17.1984C10.3086 17.0391 10.2727 16.8681 10.277 16.6962Z" fill="black"/>
</g>
<rect x="0.6" y="0.6" width="22.8" height="22.8" rx="11.4" stroke="#C4A0EA" stroke-width="1.2"/>
<defs>
<clipPath id="clip0_13_15288">
<rect width="8.5" height="12" fill="white" transform="translate(7.75 6)"/>
</clipPath>
</defs>
</svg>
