<svg width="28" height="34" viewBox="0 0 28 34" fill="none" xmlns="http://www.w3.org/2000/svg">
<path d="M18.2667 28.9479V30.0145L16.4507 32.7399C16.2533 33.0359 15.92 33.2145 15.5627 33.2145H12.4374C12.08 33.2145 11.7467 33.0359 11.5494 32.7399L9.73338 30.0145V28.9479H18.2667Z" fill="url(#paint0_radial_2355_3671)"/>
<path d="M18.2667 23.2142H9.73338V30.0142H18.2667V23.2142Z" fill="url(#paint1_linear_2355_3671)"/>
<path opacity="0.2" d="M10.5334 24.0142V29.7715L12.216 32.2942C12.2667 32.3688 12.3494 32.4142 12.4374 32.4142H15.5627C15.6533 32.4142 15.736 32.3688 15.784 32.2942L17.4667 29.7715V24.0142H10.5334ZM9.73338 23.2142H18.2667V30.0142L16.4507 32.7395C16.2533 33.0355 15.92 33.2141 15.5627 33.2141H12.4374C12.08 33.2141 11.7467 33.0355 11.5494 32.7395L9.73338 30.0142V23.2142Z" fill="#424242"/>
<path d="M9.78937 25.7473L18.024 27.4113C18.32 27.4727 18.6133 27.278 18.6747 26.9793L18.7067 26.814C18.768 26.518 18.5733 26.2247 18.2747 26.1633L10.04 24.4993C9.74404 24.438 9.45071 24.6327 9.38938 24.9313L9.35738 25.0967C9.29871 25.3953 9.49071 25.6887 9.78937 25.7473Z" fill="#BBDEFB"/>
<path d="M9.78937 28.3395L18.024 30.0035C18.32 30.0648 18.6133 29.8701 18.6747 29.5715L18.7067 29.4062C18.768 29.1102 18.5733 28.8168 18.2747 28.7555L10.04 27.0915C9.74404 27.0302 9.45071 27.2248 9.38938 27.5235L9.35738 27.6888C9.29871 27.9875 9.49071 28.2808 9.78937 28.3395Z" fill="#90CAF9"/>
<path d="M4.40008 10.8144C4.40008 5.51306 8.69872 1.21442 14 1.21442C19.3013 1.21442 23.6 5.51306 23.6 10.8144C23.6 13.1504 22.7013 15.2357 21.3813 16.953C20.168 18.5317 19.4987 20.1903 19.6453 21.393C20 24.297 18.2453 24.681 18.2453 24.681H9.75472C9.75472 24.681 8.00006 24.297 8.35473 21.393C8.50139 20.1903 7.83206 18.5317 6.61873 16.953C5.29874 15.2357 4.40008 13.1504 4.40008 10.8144Z" fill="url(#paint2_radial_2355_3671)"/>
<path d="M12.4587 25.2248H12.4934C12.7147 25.2061 12.8774 25.0114 12.8587 24.7928L12.728 23.2328C12.3014 19.9528 11.1227 16.0381 10.4214 13.9502C10.816 13.7688 11.2267 13.4355 11.5387 13.0222C11.7467 12.7448 11.896 12.4568 11.9814 12.1662C12.6667 12.1155 13.2587 11.8808 13.7307 11.5528C14.176 11.9528 14.8133 12.2888 15.72 12.3768C15.9467 12.3982 16.16 12.4088 16.36 12.4035C16.5093 12.7715 16.712 13.1768 16.9867 13.6275C17.1493 13.8968 17.3787 14.1048 17.656 14.2435L14.64 24.4594C14.5787 24.6701 14.6987 24.8941 14.9093 24.9554C15.12 25.0168 15.344 24.8968 15.4053 24.6861L18.4347 14.4328C18.504 14.4355 18.5787 14.4355 18.6507 14.4302C19.5147 14.3822 20.3866 13.8755 20.6773 13.2488C20.856 12.8648 20.8133 12.4675 20.56 12.1342C20.3573 11.8648 20.056 11.6942 19.712 11.6462C19.3627 11.6008 19.0027 11.6942 18.728 11.9048C18.128 12.3688 17.968 13.1048 17.9387 13.2808L17.888 13.4542C17.8053 13.3928 17.7307 13.3155 17.6693 13.2142C17.512 12.9555 17.3333 12.6328 17.1813 12.2915C17.5893 12.1768 17.9147 11.9795 18.152 11.6942C18.5333 11.2382 18.6107 10.5795 18.3573 9.97418C18.2453 9.71018 17.9653 9.36885 17.536 9.28352C17.192 9.21418 16.84 9.33685 16.5467 9.62485C16.1787 9.98751 15.8907 10.5955 16.1067 11.6008C16.008 11.5982 15.904 11.5902 15.7973 11.5795C15.144 11.5155 14.672 11.2942 14.3333 11.0168C14.5627 10.7582 14.7333 10.4835 14.8427 10.2142C15.1067 9.55818 15.024 8.91819 14.6187 8.50219C14.2853 8.15819 13.968 8.11552 13.7627 8.13952C13.3494 8.18752 13.096 8.51552 12.9814 8.70752C12.7627 9.07285 12.6827 9.71285 12.808 10.1048C12.8747 10.3128 12.9947 10.6195 13.208 10.9395C12.888 11.1448 12.5014 11.2968 12.0587 11.3475C12.0427 11.2062 12.0107 11.0675 11.9654 10.9288C11.6054 9.88618 11.0027 9.61951 10.6747 9.55552C10.3067 9.48085 9.93337 9.58218 9.72804 9.81418C9.48271 10.0888 9.35204 10.6648 9.59737 11.1875C9.77604 11.5742 10.192 12.0142 11.1414 12.1368C11.0694 12.2995 10.9787 12.4355 10.904 12.5342C10.6667 12.8488 10.3867 13.0622 10.1654 13.1822C10.0934 12.9795 10.0347 12.8168 9.98937 12.6942C9.55471 11.5502 8.69338 11.0488 8.06671 11.1475C7.68538 11.2062 7.26405 11.5128 7.22405 12.2008C7.20272 12.5795 7.32805 12.9315 7.58672 13.2222C8.16538 13.8702 9.22138 14.0382 9.63204 14.0808C10.3147 16.0995 11.5147 20.0408 11.9414 23.3128L12.072 24.8541C12.08 25.0674 12.2534 25.2248 12.4587 25.2248ZM19.5333 12.4328C19.5573 12.4328 19.5813 12.4355 19.6053 12.4382C19.736 12.4568 19.848 12.5182 19.92 12.6142C19.9947 12.7128 20.0027 12.7982 19.9493 12.9102C19.8053 13.2168 19.2667 13.5688 18.672 13.6248L18.7147 13.4808C18.72 13.4595 18.7253 13.4408 18.728 13.4195C18.728 13.4168 18.8133 12.8488 19.2187 12.5368C19.3067 12.4702 19.4187 12.4328 19.5333 12.4328ZM8.22405 11.9395C8.49604 11.9395 8.96804 12.2808 9.23471 12.9822C9.26137 13.0515 9.29071 13.1342 9.32537 13.2302C8.90138 13.1422 8.42405 12.9688 8.17338 12.6915C8.05338 12.5582 8.00272 12.4195 8.01338 12.2515C8.02405 12.0622 8.08005 11.9582 8.17871 11.9448C8.19471 11.9422 8.20805 11.9395 8.22405 11.9395ZM17.3467 10.0648C17.3573 10.0648 17.368 10.0648 17.3787 10.0675C17.48 10.0888 17.5813 10.1955 17.6187 10.2835C17.7573 10.6115 17.7253 10.9555 17.536 11.1795C17.3973 11.3448 17.1867 11.4648 16.9093 11.5315C16.776 11.0088 16.7867 10.5102 17.1067 10.1955C17.1973 10.1075 17.2773 10.0648 17.3467 10.0648ZM10.4267 10.3368C10.464 10.3368 10.512 10.3422 10.5654 10.3608C10.8214 10.4435 11.048 10.7422 11.2054 11.1982C11.224 11.2488 11.2374 11.2995 11.2454 11.3502C10.7707 11.2915 10.4507 11.1288 10.3227 10.8728C10.2 10.6328 10.2854 10.3955 10.3174 10.3528C10.3254 10.3502 10.3654 10.3368 10.4267 10.3368ZM13.8614 8.93685C13.8854 8.93685 13.952 8.96352 14.048 9.06218C14.304 9.32618 14.1733 9.74751 14.104 9.91818C14.0373 10.0808 13.9387 10.2462 13.8134 10.4062C13.6987 10.2142 13.624 10.0275 13.5734 9.87018C13.5174 9.69151 13.568 9.29418 13.672 9.12352C13.744 9.00352 13.824 8.94219 13.8587 8.93952C13.8587 8.93685 13.8587 8.93685 13.8614 8.93685Z" fill="#FFD54F"/>
<path d="M12.4587 25.2249H12.4934C12.7147 25.2063 12.8774 25.0116 12.8587 24.7929L12.728 23.2329C12.3014 19.9529 11.1227 16.0383 10.4214 13.9503C10.816 13.769 11.2267 13.4356 11.5387 13.0223C11.7467 12.745 11.896 12.457 11.9814 12.1663C12.6667 12.1157 13.2587 11.881 13.7307 11.553C14.176 11.953 14.8133 12.289 15.72 12.377C15.9467 12.3983 16.16 12.409 16.36 12.4037C16.5093 12.7717 16.712 13.177 16.9867 13.6276C17.1493 13.897 17.3787 14.105 17.656 14.2436L14.64 24.4596C14.5787 24.6703 14.6987 24.8943 14.9093 24.9556C15.12 25.0169 15.344 24.8969 15.4053 24.6863L18.4347 14.433C18.504 14.4356 18.5787 14.4356 18.6507 14.4303C19.5147 14.3823 20.3866 13.8756 20.6773 13.249C20.856 12.865 20.8133 12.4677 20.56 12.1343C20.3573 11.865 20.056 11.6943 19.712 11.6463C19.3627 11.601 19.0027 11.6943 18.728 11.905C18.128 12.369 17.968 13.105 17.9387 13.281L17.888 13.4543C17.8053 13.393 17.7307 13.3156 17.6693 13.2143C17.512 12.9556 17.3333 12.633 17.1813 12.2917C17.5893 12.177 17.9147 11.9797 18.152 11.6943C18.5333 11.2383 18.6107 10.5797 18.3573 9.97433C18.2453 9.71033 17.9653 9.369 17.536 9.28367C17.192 9.21434 16.84 9.337 16.5467 9.625C16.1787 9.98767 15.8907 10.5957 16.1067 11.601C16.008 11.5983 15.904 11.5903 15.7973 11.5797C15.144 11.5157 14.672 11.2943 14.3333 11.017C14.5627 10.7583 14.7333 10.4837 14.8427 10.2143C15.1067 9.55833 15.024 8.91834 14.6187 8.50234C14.2853 8.15834 13.968 8.11568 13.7627 8.13968C13.3494 8.18768 13.096 8.51567 12.9814 8.70767C12.7627 9.073 12.6827 9.713 12.808 10.105C12.8747 10.313 12.9947 10.6197 13.208 10.9397C12.888 11.145 12.5014 11.297 12.0587 11.3477C12.0427 11.2063 12.0107 11.0677 11.9654 10.929C11.6054 9.88633 11.0027 9.61967 10.6747 9.55567C10.3067 9.481 9.93337 9.58233 9.72804 9.81433C9.48271 10.089 9.35204 10.665 9.59737 11.1877C9.77604 11.5743 10.192 12.0143 11.1414 12.137C11.0694 12.2997 10.9787 12.4357 10.904 12.5343C10.6667 12.849 10.3867 13.0623 10.1654 13.1823C10.0934 12.9797 10.0347 12.817 9.98937 12.6943C9.55471 11.5503 8.69338 11.049 8.06671 11.1477C7.68538 11.2063 7.26405 11.513 7.22405 12.201C7.20272 12.5797 7.32805 12.9316 7.58672 13.2223C8.16538 13.8703 9.22138 14.0383 9.63204 14.081C10.3147 16.0996 11.5147 20.0409 11.9414 23.3129L12.072 24.8543C12.08 25.0676 12.2534 25.2249 12.4587 25.2249ZM19.5333 12.433C19.5573 12.433 19.5813 12.4357 19.6053 12.4383C19.736 12.457 19.848 12.5183 19.92 12.6143C19.9947 12.713 20.0027 12.7983 19.9493 12.9103C19.8053 13.217 19.2667 13.569 18.672 13.625L18.7147 13.481C18.72 13.4596 18.7253 13.441 18.728 13.4196C18.728 13.417 18.8133 12.849 19.2187 12.537C19.3067 12.4703 19.4187 12.433 19.5333 12.433ZM8.22405 11.9397C8.49604 11.9397 8.96804 12.281 9.23471 12.9823C9.26137 13.0516 9.29071 13.1343 9.32537 13.2303C8.90138 13.1423 8.42405 12.969 8.17338 12.6917C8.05338 12.5583 8.00272 12.4197 8.01338 12.2517C8.02405 12.0623 8.08005 11.9583 8.17871 11.945C8.19471 11.9423 8.20805 11.9397 8.22405 11.9397ZM17.3467 10.065C17.3573 10.065 17.368 10.065 17.3787 10.0677C17.48 10.089 17.5813 10.1957 17.6187 10.2837C17.7573 10.6117 17.7253 10.9557 17.536 11.1797C17.3973 11.345 17.1867 11.465 16.9093 11.5317C16.776 11.009 16.7867 10.5103 17.1067 10.1957C17.1973 10.1077 17.2773 10.065 17.3467 10.065ZM10.4267 10.337C10.464 10.337 10.512 10.3423 10.5654 10.361C10.8214 10.4437 11.048 10.7423 11.2054 11.1983C11.224 11.249 11.2374 11.2997 11.2454 11.3503C10.7707 11.2917 10.4507 11.129 10.3227 10.873C10.2 10.633 10.2854 10.3957 10.3174 10.353C10.3254 10.3503 10.3654 10.337 10.4267 10.337ZM13.8614 8.937C13.8854 8.937 13.952 8.96367 14.048 9.06234C14.304 9.32634 14.1733 9.74767 14.104 9.91833C14.0373 10.081 13.9387 10.2463 13.8134 10.4063C13.6987 10.2143 13.624 10.0277 13.5734 9.87033C13.5174 9.69167 13.568 9.29434 13.672 9.12367C13.744 9.00367 13.824 8.94234 13.8587 8.93967C13.8587 8.937 13.8587 8.937 13.8614 8.937Z" fill="#FDD835"/>
<path opacity="0.2" d="M13.8587 8.13706C13.824 8.13706 13.7947 8.13973 13.7627 8.14239C13.3494 8.19039 13.096 8.51839 12.9814 8.71039C12.7627 9.07572 12.6827 9.71572 12.808 10.1077C12.8747 10.3157 12.9947 10.6224 13.208 10.9424C12.888 11.1477 12.5014 11.2997 12.0587 11.3504C12.0427 11.209 12.0107 11.0704 11.9654 10.9317C11.6054 9.88905 11.0027 9.62239 10.6747 9.55839C10.5947 9.54239 10.5147 9.53439 10.4347 9.53439C10.152 9.53439 9.88805 9.63572 9.72805 9.81705C9.48272 10.0917 9.35205 10.6677 9.59738 11.1904C9.77605 11.577 10.192 12.017 11.1414 12.1397C11.0694 12.3024 10.9787 12.4384 10.904 12.537C10.6667 12.8517 10.3867 13.065 10.1654 13.185C10.0934 12.9824 10.0347 12.8197 9.98938 12.697C9.59205 11.6464 8.83205 11.137 8.22406 11.137C8.17072 11.137 8.11739 11.1397 8.06673 11.1477C7.68539 11.2064 7.26406 11.513 7.22406 12.201C7.20273 12.5797 7.32806 12.9317 7.58673 13.2224C8.16539 13.8704 9.22139 14.0384 9.63205 14.081C10.3147 16.0997 11.5147 20.041 11.9414 23.313L12.072 24.8543C12.0907 25.0623 12.264 25.2196 12.4694 25.2196H12.504C12.7254 25.201 12.888 25.0063 12.8694 24.7876L12.7387 23.2276C12.312 19.9477 11.1334 16.033 10.432 13.945C10.8267 13.7637 11.2374 13.4304 11.5494 13.017C11.7574 12.7397 11.9067 12.4517 11.992 12.161C12.6667 12.1157 13.2587 11.881 13.7307 11.553C14.176 11.953 14.8134 12.289 15.72 12.377C15.9067 12.3957 16.0827 12.4037 16.2507 12.4037H16.36C16.5093 12.7717 16.712 13.177 16.9867 13.6277C17.1493 13.897 17.3787 14.105 17.656 14.2437L14.64 24.4596C14.5787 24.6703 14.6987 24.8943 14.9094 24.9556C14.9467 24.9663 14.984 24.9716 15.024 24.9716C15.1974 24.9716 15.3574 24.8596 15.408 24.6836L18.4347 14.433C18.464 14.433 18.4933 14.4357 18.5227 14.4357C18.5653 14.4357 18.608 14.4357 18.6533 14.433C19.5173 14.385 20.3893 13.8784 20.68 13.2517C20.8587 12.8677 20.816 12.4704 20.5627 12.137C20.36 11.8677 20.0587 11.697 19.7147 11.649C19.656 11.641 19.5973 11.6384 19.5387 11.6384C19.248 11.6384 18.96 11.7344 18.7307 11.9104C18.1307 12.3744 17.9707 13.1104 17.9413 13.2864L17.8907 13.4597C17.808 13.3984 17.7333 13.321 17.672 13.2197C17.5147 12.961 17.336 12.6384 17.184 12.297C17.592 12.1824 17.9173 11.985 18.1547 11.6997C18.536 11.2437 18.6133 10.585 18.36 9.97972C18.248 9.71572 17.968 9.37439 17.5387 9.28905C17.4747 9.27572 17.4133 9.27039 17.3493 9.27039C17.0667 9.27039 16.7893 9.39572 16.5493 9.63039C16.1813 9.99305 15.8933 10.601 16.1093 11.6064C16.0107 11.6037 15.9067 11.5957 15.8 11.585C15.1467 11.521 14.6747 11.2997 14.336 11.0224C14.5654 10.7637 14.736 10.489 14.8454 10.2197C15.1094 9.56372 15.0267 8.92372 14.6214 8.50772C14.336 8.20906 14.0614 8.13706 13.8587 8.13706ZM13.8107 10.4064C13.696 10.2144 13.6214 10.0277 13.5707 9.87038C13.5147 9.69172 13.5654 9.29439 13.6694 9.12372C13.7414 9.00372 13.8214 8.94239 13.856 8.93972H13.8587C13.8827 8.93972 13.9494 8.96639 14.0454 9.06505C14.3014 9.32905 14.1707 9.75038 14.1014 9.92105C14.0374 10.0784 13.9387 10.2464 13.8107 10.4064ZM16.9093 11.5317C16.776 11.009 16.7867 10.5104 17.1067 10.1957C17.1947 10.1077 17.2747 10.065 17.3467 10.065C17.3573 10.065 17.368 10.065 17.3787 10.0677C17.48 10.089 17.5813 10.1957 17.6187 10.2837C17.7573 10.6117 17.7253 10.9557 17.536 11.1797C17.3973 11.345 17.1867 11.465 16.9093 11.5317ZM11.248 11.3504C10.7734 11.2917 10.4534 11.129 10.3254 10.873C10.2027 10.633 10.288 10.3957 10.32 10.353C10.3227 10.353 10.3627 10.3397 10.424 10.3397C10.4614 10.3397 10.5094 10.345 10.5627 10.3637C10.8187 10.4464 11.0454 10.745 11.2027 11.201C11.2267 11.249 11.24 11.2997 11.248 11.3504ZM9.32805 13.233C8.90405 13.145 8.42672 12.9717 8.17606 12.6944C8.05606 12.561 8.00539 12.4224 8.01606 12.2544C8.02672 12.065 8.08273 11.961 8.18139 11.9477C8.19473 11.945 8.21072 11.945 8.22406 11.945C8.49606 11.945 8.96805 12.2864 9.23472 12.9877C9.26138 13.0544 9.29072 13.137 9.32805 13.233ZM18.672 13.6277L18.7147 13.4837C18.72 13.4624 18.7253 13.4437 18.728 13.4224C18.728 13.4197 18.8133 12.8517 19.2187 12.5397C19.3067 12.4704 19.4187 12.4357 19.536 12.4357C19.56 12.4357 19.584 12.4384 19.608 12.441C19.7387 12.4597 19.8507 12.521 19.9227 12.617C19.9973 12.7157 20.0053 12.801 19.952 12.913C19.808 13.2197 19.2667 13.5717 18.672 13.6277ZM13.8587 7.60373C14.1467 7.60373 14.5787 7.6944 15.0027 8.13173C15.56 8.70506 15.6854 9.55839 15.3387 10.4144C15.2774 10.5664 15.2 10.7184 15.1094 10.865C15.2294 10.9184 15.36 10.9584 15.4987 10.9904C15.4854 10.1264 15.8347 9.57439 16.1707 9.24372C16.512 8.90772 16.92 8.72906 17.3467 8.72906C17.4453 8.72906 17.544 8.73972 17.64 8.75839C18.272 8.88639 18.6773 9.36105 18.848 9.76372C19.0453 10.233 19.0853 10.729 18.9813 11.1824C19.16 11.1264 19.3467 11.0997 19.536 11.0997C19.6187 11.0997 19.7013 11.105 19.7813 11.1157C20.2667 11.1797 20.6933 11.4277 20.984 11.809C21.3573 12.3024 21.4213 12.9077 21.16 13.4704C20.8053 14.2357 19.8453 14.8384 18.8373 14.9477L15.9173 24.833C15.8 25.2276 15.432 25.5023 15.0214 25.5023C14.9334 25.5023 14.8427 25.489 14.7574 25.465C14.5174 25.3956 14.32 25.2356 14.2027 25.017C14.0827 24.7983 14.056 24.545 14.128 24.3076L17.032 14.473C16.8347 14.3157 16.664 14.121 16.5307 13.9024C16.328 13.5664 16.152 13.241 16.008 12.9317C15.8987 12.9264 15.784 12.9184 15.6694 12.9077C14.9067 12.833 14.2427 12.5984 13.6907 12.2037C13.28 12.4304 12.8347 12.5824 12.368 12.657C12.264 12.8917 12.1307 13.121 11.9627 13.3424C11.712 13.6757 11.3974 13.9717 11.064 14.1957C11.6667 16.041 12.824 19.8517 13.256 23.1636L13.2587 23.1743V23.1876L13.3894 24.7476C13.432 25.2596 13.0507 25.713 12.5387 25.7556C12.5067 25.7583 12.4827 25.7583 12.4587 25.7583C11.9787 25.7583 11.5707 25.3823 11.528 24.905L11.4 23.3743C10.968 20.0623 9.73072 16.1077 9.22139 14.569C8.64272 14.4704 7.74673 14.217 7.1814 13.5824C6.82673 13.185 6.6534 12.697 6.6854 12.1744C6.74407 11.169 7.41873 10.713 7.97873 10.625C8.05606 10.6144 8.13606 10.6064 8.21606 10.6064C8.44272 10.6064 8.68806 10.657 8.93605 10.7637C8.89339 10.241 9.06672 9.75305 9.32539 9.46239C9.58672 9.17172 9.98938 9.00372 10.432 9.00372C10.5467 9.00372 10.664 9.01439 10.7787 9.03839C11.2134 9.12639 12.0054 9.46239 12.456 10.721C12.4614 10.7184 12.4694 10.7157 12.4747 10.7157C12.3947 10.545 12.3414 10.3904 12.3014 10.2704C12.1334 9.73438 12.232 8.93172 12.5254 8.43839C12.6907 8.16373 13.0614 7.68906 13.7014 7.6144C13.7547 7.6064 13.808 7.60373 13.8587 7.60373Z" fill="#FFFF8D"/>
<path opacity="0.2" d="M14 2.01441C9.14672 2.01441 5.20008 5.96106 5.20008 10.8144C5.20008 12.7637 5.9094 14.7183 7.2534 16.465C8.62939 18.2543 9.32005 20.0863 9.14939 21.489C8.92539 23.3103 9.64272 23.777 9.88272 23.881H18.1173C18.3573 23.777 19.0747 23.313 18.8507 21.489C18.68 20.0863 19.3707 18.2543 20.7467 16.465C22.0907 14.7183 22.8 12.7637 22.8 10.8144C22.8 5.96106 18.8533 2.01441 14 2.01441ZM14 1.21442C19.3013 1.21442 23.6 5.51306 23.6 10.8144C23.6 13.1504 22.7013 15.2357 21.3813 16.953C20.168 18.5317 19.4987 20.1903 19.6453 21.393C20 24.297 18.2453 24.681 18.2453 24.681H9.75472C9.75472 24.681 8.00006 24.297 8.35473 21.393C8.50139 20.1903 7.83206 18.5317 6.61873 16.953C5.29874 15.2357 4.40008 13.1504 4.40008 10.8144C4.40008 5.51306 8.69872 1.21442 14 1.21442Z" fill="#424242"/>
<defs>
<radialGradient id="paint0_radial_2355_3671" cx="0" cy="0" r="1" gradientUnits="userSpaceOnUse" gradientTransform="translate(13.9658 29.9479) rotate(90) scale(3.57225 6.33324)">
<stop stop-color="#1E88E5"/>
<stop offset="0.9869" stop-color="#0D47A1"/>
</radialGradient>
<linearGradient id="paint1_linear_2355_3671" x1="14" y1="23.4142" x2="14" y2="30.3768" gradientUnits="userSpaceOnUse">
<stop stop-color="#90CAF9"/>
<stop offset="0.1981" stop-color="#88C6F9"/>
<stop offset="0.5085" stop-color="#72BCF7"/>
<stop offset="0.8905" stop-color="#4DAAF6"/>
<stop offset="0.9957" stop-color="#42A5F5"/>
</linearGradient>
<radialGradient id="paint2_radial_2355_3671" cx="0" cy="0" r="1" gradientUnits="userSpaceOnUse" gradientTransform="translate(13.9 1.51441) rotate(180) scale(24.3009)">
<stop stop-color="#FFF59D"/>
<stop offset="0.1485" stop-color="#FFF599"/>
<stop offset="0.3111" stop-color="#FFF38B"/>
<stop offset="0.4772" stop-color="#FFF176"/>
<stop offset="0.7791" stop-color="#FFED51"/>
<stop offset="0.9957" stop-color="#FFEB3B"/>
</radialGradient>
</defs>
</svg>
