<svg width="36" height="37" viewBox="0 0 36 37" fill="none" xmlns="http://www.w3.org/2000/svg">
<path d="M17.999 33.8355C10.3025 33.8355 1.99902 29.0079 1.99902 18.4148C1.99902 7.82173 10.3025 2.99414 17.999 2.99414C22.2749 2.99414 26.2197 4.40104 29.1439 6.96655C32.3163 9.78035 33.999 13.7528 33.999 18.4148C33.999 23.0769 32.3163 27.0217 29.1439 29.8355C26.2197 32.401 22.2473 33.8355 17.999 33.8355Z" fill="url(#paint0_radial_1163_6599)"/>
<path d="M12.5921 12.3569C11.4363 12.3569 10.3852 13.3335 10.3852 14.9556C10.3852 16.5776 11.4363 17.5514 12.5921 17.5514C13.7507 17.5514 14.799 16.5749 14.799 14.9556C14.799 13.3362 13.7618 12.3569 12.5921 12.3569Z" fill="#422B0D"/>
<path d="M12.4956 13.4411C12.1039 13.2535 11.6321 13.419 11.4418 13.8107C11.2956 14.1169 11.3618 14.4838 11.6073 14.7211C11.999 14.9087 12.4707 14.7431 12.6611 14.3514C12.8073 14.0452 12.7411 13.6783 12.4956 13.4411Z" fill="#896024"/>
<path d="M23.1852 12.3569C22.0294 12.3569 20.9783 13.3335 20.9783 14.9556C20.9783 16.5776 22.0294 17.5514 23.1852 17.5514C24.3411 17.5514 25.3921 16.5749 25.3921 14.9556C25.3921 13.3362 24.3411 12.3569 23.1852 12.3569Z" fill="#422B0D"/>
<path d="M23.0749 13.4411C22.6832 13.2535 22.2114 13.419 22.0211 13.8107C21.8749 14.1169 21.9411 14.4838 22.1866 14.7211C22.5783 14.9087 23.0501 14.7431 23.2404 14.3514C23.3866 14.0452 23.3204 13.6783 23.0749 13.4411Z" fill="#896024"/>
<path d="M17.8335 26.3348C15.3314 26.3541 12.9425 25.3031 11.268 23.4438C11.1411 23.2976 11.1108 23.0907 11.1908 22.9141C11.2708 22.7348 11.4473 22.619 11.6432 22.6162C11.7314 22.6162 11.8197 22.641 11.897 22.6852C13.2266 23.4493 15.4501 24.3983 17.8335 24.3983H17.8721C20.2528 24.3983 22.479 23.4493 23.8059 22.6852C23.8832 22.641 23.9714 22.6162 24.0597 22.6162C24.2556 22.619 24.4321 22.7348 24.5121 22.9141C24.5949 23.0907 24.5645 23.2976 24.4349 23.4438C22.7604 25.3031 20.3659 26.3569 17.8639 26.3348" fill="#422B0D"/>
<path d="M31.21 9.24805C32.6804 11.6205 33.4473 14.4453 33.4473 17.5874C33.4473 22.2494 31.7645 26.1943 28.5921 29.008C25.668 31.5736 21.6956 33.008 17.4473 33.008C12.4652 33.008 7.24039 30.9805 4.15625 26.6798C7.12453 31.5515 12.708 33.8356 17.999 33.8356C22.2473 33.8356 26.2197 32.4012 29.1438 29.8356C32.3162 27.0218 33.999 23.077 33.999 18.4149C33.999 14.9005 33.0418 11.7777 31.21 9.24805Z" fill="#EB8F00"/>
<defs>
<radialGradient id="paint0_radial_1163_6599" cx="0" cy="0" r="1" gradientUnits="userSpaceOnUse" gradientTransform="translate(17.999 18.4148) scale(15.713 15.713)">
<stop offset="0.5" stop-color="#FDE030"/>
<stop offset="0.92" stop-color="#F7C02B"/>
<stop offset="1" stop-color="#F4A223"/>
</radialGradient>
</defs>
</svg>
