<svg width="72" height="72" viewBox="0 0 72 72" fill="none" xmlns="http://www.w3.org/2000/svg">
<g opacity="0.65">
<path d="M23.5648 57.3502L23.6241 57.2683M23.5648 57.3502L23.7376 57.2942L23.6375 57.2684L23.6308 57.2667L23.6306 57.2667L23.6241 57.2683M23.5648 57.3502L23.6241 57.2683M23.5648 57.3502L23.6178 57.2634L23.5239 57.2942L23.6241 57.2683M23.6292 53.0002C22.1172 48.0003 20.4532 44.469 17.8052 41.8223C15.1577 39.176 11.6271 37.5143 6.62877 36.0062C11.6272 34.4962 15.1578 32.8335 17.8047 30.1866C20.4521 27.5392 22.1149 24.0079 23.6251 19.0081C25.1353 24.0079 26.7982 27.5392 29.4455 30.1866C32.0925 32.8335 35.623 34.4962 40.6215 36.0062C35.6232 37.5143 32.0927 39.176 29.4462 41.8225C26.7994 44.4693 25.1376 48.0006 23.6292 53.0002Z" stroke="#D6D1DA" stroke-width="2.5"/>
<path d="M65.291 16.8737C62.467 17.774 60.3508 18.8383 58.7203 20.4688C57.0898 22.0994 56.0254 24.2155 55.1251 27.0395C54.2249 24.2155 53.1605 22.0994 51.53 20.4688C49.8995 18.8383 47.7833 17.774 44.9593 16.8737C47.7833 15.9734 49.8995 14.909 51.53 13.2785C53.1605 11.648 54.2249 9.53185 55.1251 6.70784C56.0254 9.53185 57.0898 11.648 58.7203 13.2785C60.3508 14.909 62.467 15.9734 65.291 16.8737Z" stroke="#D6D1DA" stroke-width="2.5"/>
<path d="M58.7203 51.5285C60.3508 53.159 62.467 54.2234 65.291 55.1237C62.467 56.024 60.3508 57.0883 58.7203 58.7188C57.0898 60.3494 56.0254 62.4655 55.1251 65.2895C54.2249 62.4655 53.1605 60.3494 51.53 58.7188C49.8995 57.0883 47.7833 56.024 44.9593 55.1237C47.7833 54.2234 49.8995 53.159 51.53 51.5285C53.1605 49.898 54.2249 47.7818 55.1251 44.9578C56.0254 47.7818 57.0898 49.898 58.7203 51.5285Z" stroke="#D6D1DA" stroke-width="2.5"/>
</g>
</svg>
