<svg width="102" height="73" viewBox="0 0 102 73" fill="none" xmlns="http://www.w3.org/2000/svg">
<rect x="0.664463" y="41.7985" width="95" height="33" rx="16.5" transform="rotate(-25 0.664463 41.7985)" fill="white"/>
<circle cx="21.6854" cy="50.2023" r="4" transform="rotate(-25 21.6854 50.2023)" fill="#7167DA"/>
<path d="M39.7825 47.4663C42.0156 46.4249 42.8206 44.2422 42.1962 42.1082L41.0923 42.6229C41.4868 44.2308 40.9315 45.7565 39.3455 46.496C37.4042 47.4013 35.2985 46.5295 34.3104 44.4106C33.3223 42.2916 34.0199 40.1436 35.9739 39.2324C37.6995 38.4277 39.2716 39.1158 39.8292 40.9412L40.8824 40.4501C40.1954 38.0826 37.8589 37.1794 35.5115 38.274C32.9992 39.4455 31.9607 42.1542 33.2446 44.9076C34.5285 47.6609 37.2702 48.6378 39.7825 47.4663ZM45.1037 44.7996L46.068 44.3499L41.9264 35.4681L40.9621 35.9177L45.1037 44.7996ZM50.6278 42.409C52.4676 41.5511 53.0771 39.6449 52.1482 37.6528C51.2193 35.6608 49.3673 34.9024 47.5275 35.7603C45.675 36.6242 45.0655 38.5304 45.9944 40.5224C46.9233 42.5145 48.7753 43.2728 50.6278 42.409ZM50.2137 41.5208C48.9829 42.0947 47.7026 41.5023 47.0221 40.0432C46.3417 38.584 46.7109 37.2224 47.9417 36.6485C49.1597 36.0805 50.4401 36.6729 51.1205 38.1321C51.8009 39.5912 51.4317 40.9528 50.2137 41.5208ZM57.4088 39.247C58.9441 38.5311 59.66 37.3167 59.0979 36.1113C57.9915 33.7386 54.2633 36.7747 53.5415 35.2267C53.2456 34.5923 53.7288 33.8727 54.5916 33.4704C55.6574 32.9734 56.6891 33.2646 56.8876 34.2534L57.8139 33.8215C57.509 32.3726 55.9072 31.8528 54.2451 32.6279C52.8367 33.2846 52.037 34.5843 52.5991 35.7897C53.67 38.0863 57.4101 35.0756 58.1556 36.6744C58.4396 37.2834 58.0012 37.9666 57.0496 38.4104C55.7935 38.9961 54.7693 38.655 54.4305 37.5309L53.5043 37.9628C54.084 39.6697 55.6832 40.0516 57.4088 39.247ZM64.8851 33.2428C64.9618 34.103 64.4837 34.8666 63.6082 35.2748C62.4409 35.8192 61.3373 35.4069 60.601 34.1592L65.2703 31.9819C64.8329 29.6525 63.1172 28.4907 60.9855 29.4847C59.0569 30.3841 58.4542 32.2717 59.389 34.2764C60.3238 36.2812 62.1445 37.0387 64.0351 36.1571C65.4816 35.4826 66.1679 34.2048 65.9382 32.7517L64.8851 33.2428ZM61.3498 30.3653C62.5806 29.7914 63.5827 30.2509 64.0119 31.5028L60.2055 33.2778C59.7838 31.976 60.1698 30.9155 61.3498 30.3653ZM66.3985 31.394L69.2407 30.0687L68.791 29.1044L65.9488 30.4297L66.3985 31.394ZM72.9069 24.1111L74.4393 27.3974C75.0665 28.7423 74.7176 30.0481 73.6138 30.5628C72.4845 31.0894 71.8073 30.2003 71.3931 29.3121L69.6714 25.6198L68.7071 26.0695L70.4347 29.7745C70.9672 30.9164 72.0536 32.418 73.7792 31.6133C74.7055 31.1814 75.2479 30.3569 75.2558 29.1483L75.8652 30.4552L76.8295 30.0056L73.8712 23.6614L72.9069 24.1111ZM78.6512 21.2471C77.6742 21.7027 77.1132 22.5204 77.0047 23.5133L76.5018 22.4348L75.5375 22.8844L79.6791 31.7663L80.6434 31.3166L78.9572 27.7004C79.7876 28.2555 80.7745 28.3514 81.7515 27.8958C83.4264 27.1148 84.0038 25.239 83.0689 23.2343C82.14 21.2422 80.3388 20.4602 78.6512 21.2471ZM81.1217 27.1082C79.8909 27.6821 78.6233 27.0838 77.9429 25.6246C77.2624 24.1654 77.6189 22.8098 78.8497 22.2359C80.0805 21.6619 81.3608 22.2544 82.0412 23.7135C82.7216 25.1727 82.3524 26.5343 81.1217 27.1082Z" fill="#17151A"/>
<rect x="0.664463" y="41.7985" width="95" height="33" rx="16.5" transform="rotate(-25 0.664463 41.7985)" stroke="#7167DA"/>
</svg>
