<svg width="115" height="78" viewBox="0 0 115 78" fill="none" xmlns="http://www.w3.org/2000/svg">
<rect x="0.664463" y="46.986" width="109" height="33" rx="16.5" transform="rotate(-25 0.664463 46.986)" fill="white"/>
<circle cx="21.6854" cy="55.3898" r="4" transform="rotate(-25 21.6854 55.3898)" fill="#7167DA"/>
<path d="M38.979 46.9886C39.5611 46.3155 39.7034 45.4613 39.2774 44.5477C38.6443 43.1901 37.2954 42.815 35.8363 43.4954L31.6872 45.4302L35.8289 54.312L39.9906 52.3713C41.8177 51.5193 42.5388 49.8855 41.8407 48.3883C41.3141 47.259 40.2562 46.7792 38.979 46.9886ZM38.2767 45.1843C38.6672 46.0217 38.3946 46.8285 37.5699 47.2131L34.4485 48.6686L33.1528 45.8899L36.2741 44.4344C37.0989 44.0498 37.8862 44.3469 38.2767 45.1843ZM39.5401 51.4383L36.4188 52.8938L34.8864 49.6075L38.0838 48.1165C39.2511 47.5722 40.3015 47.8702 40.7571 48.8472C41.2304 49.8623 40.7455 50.8762 39.5401 51.4383ZM41.5423 42.6111C41.9483 42.4218 42.1176 41.9567 41.9223 41.538C41.733 41.1319 41.2679 40.9626 40.8618 41.152C40.4431 41.3472 40.2738 41.8124 40.4632 42.2184C40.6584 42.6371 41.1235 42.8064 41.5423 42.6111ZM44.5213 50.2586L45.4857 49.809L42.5273 43.4648L41.563 43.9145L44.5213 50.2586ZM49.4573 46.2423C50.6899 44.9106 51.1039 43.5127 50.5478 42.32C50.3584 41.9139 50.0854 41.5933 49.7471 41.3648C50.1262 40.7865 49.9869 39.9246 49.4915 39.2596L48.5272 39.7093C48.8062 40.0426 49.157 40.7287 49.0418 41.0449C48.3703 40.8637 47.5601 40.9481 46.7226 41.3386C45.0732 42.1077 44.3944 43.5673 45.0453 44.9631C45.6665 46.2953 47.0898 46.6975 48.6124 45.9875C48.8662 45.8692 49.0827 45.7373 49.2748 45.586C48.7866 46.2616 48.0607 46.9245 47.1733 47.5391L47.623 48.5034C48.1872 48.024 48.8445 47.5785 49.4536 47.2945C50.659 46.7324 51.607 46.8773 51.9384 47.5878C52.2638 48.2857 51.7789 49.0679 50.7385 49.5531C49.6727 50.05 48.6612 49.9347 48.2038 49.2521L47.0618 49.7846C47.9132 50.9477 49.5159 51.2045 51.1526 50.4412C52.8275 49.6602 53.5282 48.314 52.9661 47.1086C52.4218 45.9413 51.0272 45.6338 49.4573 46.2423ZM46.0662 44.5024C45.658 43.6269 46.1091 42.706 47.1495 42.2208C48.2026 41.7298 49.16 41.9939 49.5682 42.8694C49.9765 43.7449 49.5508 44.654 48.5103 45.1392C47.4572 45.6302 46.4745 45.3779 46.0662 44.5024ZM57.4289 33.4266L53.4828 35.2667L57.6245 44.1485L58.6523 43.6693L56.8181 39.7359L59.7237 38.381C61.5001 37.5527 62.057 36.1962 61.3174 34.6102C60.5778 33.0241 59.1926 32.6042 57.4289 33.4266ZM59.2986 37.4361L56.3803 38.797L54.9484 35.7264L57.8667 34.3656C58.9579 33.8567 59.8028 34.1116 60.2643 35.1012C60.7199 36.0782 60.3898 36.9273 59.2986 37.4361ZM62.6192 32.7828C63.0253 32.5935 63.1945 32.1283 62.9993 31.7096C62.81 31.3036 62.3448 31.1343 61.9388 31.3236C61.5201 31.5189 61.3508 31.984 61.5401 32.39C61.7354 32.8087 62.2005 32.978 62.6192 32.7828ZM65.5983 40.4303L66.5626 39.9806L63.6043 33.6365L62.64 34.0861L65.5983 40.4303ZM71.1224 38.0397C72.8861 37.2173 73.2883 35.5622 72.9682 34.2131L71.915 34.7042C72.0864 35.7674 71.6726 36.7019 70.7082 37.1515C69.4775 37.7255 68.1972 37.133 67.5167 35.6739C66.8363 34.2147 67.1928 32.8591 68.4743 32.2615C69.6797 31.6994 70.6978 32.2596 71.1144 33.7491L72.1421 33.2699C71.631 31.3456 70.0015 30.468 68.0855 31.3615C66.1569 32.2608 65.5601 34.1611 66.489 36.1531C67.4179 38.1452 69.2699 38.9036 71.1224 38.0397ZM76.0363 28.9052L75.6281 28.0297L73.839 28.8639L73.0758 27.2271L72.1114 27.6768L72.8747 29.3136L71.7327 29.8461L72.141 30.7216L73.2829 30.1891L74.9929 33.856C75.2295 34.3635 75.9167 35.8041 77.5916 35.0231C77.9468 34.8574 78.2412 34.6275 78.4536 34.4203L78.0453 33.5448C77.8584 33.7401 77.6342 33.9219 77.3423 34.058C76.5557 34.4248 76.2293 33.99 75.9513 33.3937L74.2473 29.7394L76.0363 28.9052ZM80.8867 25.5776L82.4191 28.8638C83.0462 30.2088 82.6974 31.5146 81.5935 32.0293C80.4643 32.5559 79.7871 31.6668 79.3729 30.7786L77.6511 27.0863L76.6868 27.536L78.4145 31.241C78.947 32.3829 80.0334 33.8845 81.759 33.0798C82.6852 32.6479 83.2276 31.8234 83.2356 30.6148L83.845 31.9217L84.8093 31.472L81.851 25.1279L80.8867 25.5776ZM86.1108 22.9562C85.3621 23.3052 84.9915 24.0342 84.9963 25.0051L84.4815 23.9012L83.5172 24.3509L86.4755 30.6951L87.4399 30.2454L86.0021 27.1621C85.3039 25.6649 85.388 24.4208 86.2001 24.0422C86.6822 23.8173 87.1592 24.012 87.4136 24.5576C87.532 24.8114 87.5987 25.1201 87.5453 25.4694L88.573 24.9901C88.5765 24.6332 88.5183 24.2433 88.3408 23.8626C87.9266 22.9745 87.0243 22.5302 86.1108 22.9562ZM95.3296 24.2338C95.4063 25.094 94.9282 25.8576 94.0528 26.2658C92.8854 26.8101 91.7818 26.3979 91.0455 25.1502L95.7148 22.9729C95.2774 20.6435 93.5617 19.4817 91.43 20.4757C89.5014 21.3751 88.8987 23.2627 89.8335 25.2674C90.7683 27.2722 92.5891 28.0297 94.4796 27.1481C95.9261 26.4736 96.6124 25.1958 96.3828 23.7427L95.3296 24.2338ZM91.7943 21.3563C93.0251 20.7824 94.0272 21.2419 94.4565 22.4938L90.65 24.2688C90.2283 22.967 90.6143 21.9065 91.7943 21.3563Z" fill="#17151A"/>
<rect x="0.664463" y="46.986" width="109" height="33" rx="16.5" transform="rotate(-25 0.664463 46.986)" stroke="#7167DA"/>
</svg>
