<svg width="33" height="33" viewBox="0 0 33 33" fill="none" xmlns="http://www.w3.org/2000/svg">
<path d="M11.8619 4.78808V8.08965H20.148V4.78808H11.8619ZM10.7417 2.26367H21.2682C22.0426 2.26367 22.6697 2.89076 22.6697 3.66523V9.20982C22.6697 9.9843 22.0426 10.6114 21.2682 10.6114H10.7417C9.96727 10.6114 9.34019 9.9843 9.34019 9.20982V3.66523C9.34019 2.89076 9.96727 2.26367 10.7417 2.26367Z" fill="url(#paint0_linear_2355_6372)"/>
<path d="M29.3452 8.1543H2.66199C1.47482 8.1543 0.510073 9.11636 0.510073 10.3062V28.304C0.510073 29.4912 1.47214 30.4559 2.66199 30.4559H29.3452C30.535 30.4559 31.4971 29.4912 31.4971 28.304V10.3062C31.4971 9.11904 30.535 8.1543 29.3452 8.1543Z" fill="url(#paint1_linear_2355_6372)"/>
<path d="M1.83393 7.17285H30.1759C31.1862 7.17285 32.0036 7.9902 32.0036 9.0005V16.3084C32.0036 16.5979 31.8589 16.8632 31.6177 17.0266C28.0642 19.4358 21.989 20.7489 16.0049 20.8695C10.0209 20.7489 3.94565 19.4358 0.392178 17.0266C0.153671 16.8658 0.0062809 16.5979 0.0062809 16.3084V9.0005C0.0062809 7.99288 0.823633 7.17285 1.83393 7.17285Z" fill="url(#paint2_linear_2355_6372)"/>
<path d="M13.7405 20.6155V22.9496C13.7405 23.0809 13.9361 23.1881 14.1773 23.1881H17.8326C18.0738 23.1881 18.2694 23.0809 18.2694 22.9496V20.6155C18.2694 20.4841 18.0738 20.377 17.8326 20.377H14.1773C13.9361 20.377 13.7405 20.4815 13.7405 20.6155Z" fill="#FFCA28"/>
<path d="M13.1938 19.8811V20.4064C13.1938 20.6476 13.3894 20.8432 13.6306 20.8432H18.3793C18.6205 20.8432 18.8161 20.6476 18.8161 20.4064V19.8811C18.8161 19.64 18.6205 19.4443 18.3793 19.4443H13.6333C13.3894 19.4443 13.1938 19.64 13.1938 19.8811Z" fill="#F9A825"/>
<path opacity="0.2" d="M10.7417 3.06762C10.4121 3.06762 10.1441 3.33561 10.1441 3.66523V7.17314C10.1441 7.618 9.78503 7.9771 9.34017 7.9771H1.83393C1.26849 7.9771 0.810234 8.43535 0.810234 9.0008V16.3087C0.810234 16.3275 0.820952 16.3462 0.84239 16.3596C0.85311 16.3677 0.86383 16.373 0.87723 16.3811C0.904028 16.3972 0.930825 16.4132 0.957624 16.432C1.18273 16.5821 1.3194 16.834 1.3194 17.102V28.3037C1.3194 29.046 1.92505 29.6517 2.66736 29.6517H29.3452C30.0875 29.6517 30.6932 29.046 30.6932 28.3037V17.102C30.6932 16.8313 30.8298 16.5794 31.0549 16.432C31.0817 16.4159 31.1085 16.3972 31.1353 16.3811C31.1461 16.373 31.1595 16.3677 31.1702 16.3596C31.1889 16.3462 31.2023 16.3275 31.2023 16.3087V9.0008C31.2023 8.43535 30.7441 7.9771 30.1786 7.9771H22.6724C22.2275 7.9771 21.8684 7.618 21.8684 7.17314V3.66523C21.8684 3.33561 21.6005 3.06762 21.2708 3.06762H10.7417ZM20.148 7.9771H11.8619C11.4171 7.9771 11.058 7.618 11.058 7.17314V4.78808C11.058 4.34323 11.4171 3.98413 11.8619 3.98413H20.148C20.5928 3.98413 20.9519 4.34323 20.9519 4.78808V7.17314C20.9519 7.618 20.5902 7.9771 20.148 7.9771M10.7417 2.26367H21.2682C22.0426 2.26367 22.6697 2.89076 22.6697 3.66523V7.17314H30.1759C31.1862 7.17314 32.0036 7.9905 32.0036 9.0008V16.3087C32.0036 16.5982 31.8589 16.8635 31.6177 17.0269C31.5802 17.0537 31.5373 17.0778 31.4971 17.102V28.3037C31.4971 29.4936 30.5324 30.4556 29.3452 30.4556H2.662C1.47483 30.4556 0.51009 29.4936 0.51009 28.3037V17.102C0.469893 17.0752 0.427016 17.051 0.389498 17.0269C0.150992 16.8661 0.00360033 16.5982 0.00360033 16.3087V9.0008C0.00360033 7.9905 0.820952 7.17314 1.83125 7.17314H9.34017V3.66523C9.34017 2.89076 9.96726 2.26367 10.7417 2.26367V2.26367ZM20.148 7.17314V4.78808H11.8646V7.17314H20.148Z" fill="#424242"/>
<defs>
<linearGradient id="paint0_linear_2355_6372" x1="16.005" y1="2.2358" x2="16.005" y2="9.38696" gradientUnits="userSpaceOnUse">
<stop offset="0.0005936" stop-color="#A1887F"/>
<stop offset="0.2381" stop-color="#927971"/>
<stop offset="0.6929" stop-color="#6C524B"/>
<stop offset="1" stop-color="#4E342E"/>
</linearGradient>
<linearGradient id="paint1_linear_2355_6372" x1="16.0049" y1="8.40567" x2="16.0049" y2="30.2952" gradientUnits="userSpaceOnUse">
<stop stop-color="#4E342E"/>
<stop offset="0.424" stop-color="#503630"/>
<stop offset="0.618" stop-color="#583D36"/>
<stop offset="0.7651" stop-color="#644941"/>
<stop offset="0.8878" stop-color="#765950"/>
<stop offset="0.9933" stop-color="#8D6E63"/>
</linearGradient>
<linearGradient id="paint2_linear_2355_6372" x1="16.0049" y1="7.21305" x2="16.0049" y2="20.7551" gradientUnits="userSpaceOnUse">
<stop offset="0.0067402" stop-color="#BCAAA4"/>
<stop offset="1" stop-color="#6D4C41"/>
</linearGradient>
</defs>
</svg>
