<svg width="17" height="17" viewBox="0 0 17 17" fill="none" xmlns="http://www.w3.org/2000/svg">
<path d="M13.8369 4.91309H3.17025C2.43387 4.91309 1.83691 5.51004 1.83691 6.24642V12.9131C1.83691 13.6495 2.43387 14.2464 3.17025 14.2464H13.8369C14.5733 14.2464 15.1702 13.6495 15.1702 12.9131V6.24642C15.1702 5.51004 14.5733 4.91309 13.8369 4.91309Z" stroke="#8940D5" stroke-width="1.5" stroke-linecap="round" stroke-linejoin="round"/>
<path d="M11.1702 14.2461V3.57943C11.1702 3.22581 11.0298 2.88667 10.7797 2.63662C10.5297 2.38657 10.1905 2.24609 9.83691 2.24609H7.17025C6.81663 2.24609 6.47749 2.38657 6.22744 2.63662C5.97739 2.88667 5.83691 3.22581 5.83691 3.57943V14.2461" stroke="#8940D5" stroke-width="1.5" stroke-linecap="round" stroke-linejoin="round"/>
</svg>
